M48
; DRILL file {KiCad (5.1.5)-3} date 30.05.2020 16:59:44
; FORMAT={-:-/ absolute / metric / decimal}
; #@! TF.CreationDate,2020-05-30T16:59:44+02:00
; #@! TF.GenerationSoftware,Kicad,Pcbnew,(5.1.5)-3
FMAT,2
METRIC
T1C0.400
T2C0.700
T3C0.950
T4C1.000
T5C1.016
T6C1.200
T7C1.520
%
G90
G05
T1
X6.286Y-34.29
X10.16Y-27.495
X10.16Y-28.638
X11.303Y-27.495
X11.303Y-28.638
X15.811Y-16.764
X15.811Y-17.843
X15.811Y-18.923
X15.811Y-21.971
X15.811Y-23.05
X15.811Y-24.13
X15.875Y-11.62
X15.875Y-12.7
X15.875Y-13.779
X17.589Y-16.764
X17.589Y-17.843
X17.589Y-18.923
X17.589Y-21.971
X17.589Y-23.05
X17.589Y-24.13
X17.653Y-11.62
X17.653Y-12.7
X17.653Y-13.779
X17.907Y-49.847
X18.351Y-32.448
X18.351Y-33.528
X19.304Y-16.764
X19.304Y-17.843
X19.304Y-18.923
X19.304Y-21.971
X19.304Y-23.05
X19.304Y-24.13
X19.367Y-11.62
X19.367Y-12.7
X19.367Y-13.779
X19.431Y-32.448
X19.431Y-33.528
X26.86Y-10.731
X29.21Y-32.067
X29.21Y-33.274
X29.21Y-34.48
X29.4Y-66.358
X29.4Y-68.897
X29.591Y-76.073
X30.48Y-32.067
X30.48Y-33.274
X30.48Y-34.48
X30.48Y-57.277
X31.75Y-32.067
X31.75Y-33.274
X31.75Y-34.48
X36.068Y-32.067
X36.068Y-33.274
X36.068Y-34.48
X36.893Y-57.277
X37.338Y-32.067
X37.338Y-33.274
X37.338Y-34.48
X38.608Y-32.067
X38.608Y-33.274
X38.608Y-34.48
X40.386Y-68.897
X41.275Y-39.116
X41.402Y-37.148
X42.1Y-66.358
X43.053Y-32.067
X43.053Y-33.274
X43.053Y-34.48
X43.307Y-57.277
X44.323Y-32.067
X44.323Y-33.274
X44.323Y-34.48
X45.593Y-32.067
X45.593Y-33.274
X45.593Y-34.48
X48.704Y-11.112
X49.34Y-39.751
X50.419Y-61.658
X51.405Y-62.327
X52.144Y-61.727
X53.086Y-35.115
X53.53Y-64.453
X54.546Y-64.453
X55.562Y-64.453
X56.388Y-22.733
X56.578Y-64.453
X56.578Y-65.469
X59.118Y-41.656
X62.103Y-11.62
X63.373Y-22.742
X63.69Y-41.021
X63.817Y-39.878
X64.262Y-51.689
X67.437Y-38.989
X70.436Y-22.719
X78.041Y-22.733
X79.883Y-21.272
X79.883Y-26.543
X88.265Y-14.605
X100.33Y-7.175
X100.33Y-22.225
X101.346Y-53.023
X101.79Y-37.719
X107.061Y-2.794
X29.575Y-25.257
X29.575Y-26.281
X29.575Y-27.305
X29.575Y-28.329
X30.599Y-25.257
X30.599Y-26.281
X30.599Y-27.305
X30.599Y-28.329
X31.623Y-25.257
X31.623Y-26.281
X31.623Y-27.305
X31.623Y-28.329
X32.647Y-25.257
X32.647Y-26.281
X32.647Y-27.305
X32.647Y-28.329
X43.434Y-25.249
X43.434Y-26.273
X43.434Y-27.297
X43.434Y-28.321
X44.458Y-25.249
X44.458Y-26.273
X44.458Y-27.297
X44.458Y-28.321
X45.482Y-25.249
X45.482Y-26.273
X45.482Y-27.297
X45.482Y-28.321
X46.506Y-25.249
X46.506Y-26.273
X46.506Y-27.297
X46.506Y-28.321
X36.449Y-25.249
X36.449Y-26.273
X36.449Y-27.297
X36.449Y-28.321
X37.473Y-25.249
X37.473Y-26.273
X37.473Y-27.297
X37.473Y-28.321
X38.497Y-25.249
X38.497Y-26.273
X38.497Y-27.297
X38.497Y-28.321
X39.521Y-25.249
X39.521Y-26.273
X39.521Y-27.297
X39.521Y-28.321
T2
X8.7Y-11.684
X8.7Y-13.843
X8.7Y-17.018
X8.7Y-18.923
X10.414Y-11.684
X10.414Y-13.843
X10.414Y-17.018
X10.414Y-18.923
X10.414Y-20.637
X10.414Y-22.288
X12.128Y-11.684
X12.128Y-13.843
X12.128Y-17.018
X12.128Y-18.923
X12.128Y-20.637
X12.128Y-22.288
X12.128Y-23.939
X19.177Y-43.878
T3
X106.489Y-68.7
X106.489Y-71.2
X106.489Y-73.7
X106.489Y-76.2
X69.921Y-63.503
X69.921Y-66.003
X69.921Y-68.503
X106.489Y-53.46
X106.489Y-55.96
X106.489Y-58.46
X106.489Y-60.96
X69.921Y-43.183
X69.921Y-45.683
X69.921Y-48.183
X77.541Y-63.503
X77.541Y-66.003
X77.541Y-68.503
X77.541Y-43.183
X77.541Y-45.683
X77.541Y-48.183
X69.921Y-53.343
X69.921Y-55.843
X69.921Y-58.343
X106.489Y-7.74
X106.489Y-10.24
X106.489Y-12.74
X106.489Y-15.24
X77.541Y-53.343
X77.541Y-55.843
X77.541Y-58.343
X106.489Y-38.22
X106.489Y-40.72
X106.489Y-43.22
X106.489Y-45.72
X106.426Y-22.98
X106.426Y-25.48
X106.426Y-27.98
X106.426Y-30.48
T4
X83.82Y-66.04
X86.36Y-66.04
X88.9Y-66.04
X91.44Y-66.04
X93.98Y-66.04
X96.52Y-66.04
X99.06Y-66.04
X101.6Y-66.04
X83.82Y-55.88
X83.82Y-58.42
X86.36Y-55.88
X86.36Y-58.42
X88.9Y-55.88
X88.9Y-58.42
X83.82Y-48.26
X86.36Y-48.26
X88.9Y-48.26
X91.44Y-48.26
X93.98Y-48.26
X96.52Y-48.26
X99.06Y-48.26
X101.6Y-48.26
X27.305Y-59.372
X27.305Y-61.872
X19.558Y-58.039
X19.558Y-60.579
X19.558Y-63.119
X22.098Y-58.039
X22.098Y-60.579
X22.098Y-63.119
X60.579Y-48.578
X60.579Y-51.117
X60.579Y-53.657
X60.579Y-56.197
X60.579Y-58.737
X60.579Y-61.277
X52.736Y-16.755
X55.236Y-16.755
X33.528Y-59.372
X33.528Y-61.872
X83.82Y-71.12
X83.82Y-73.66
X86.36Y-71.12
X86.36Y-73.66
X88.9Y-71.12
X88.9Y-73.66
X60.579Y-37.846
X60.579Y-40.386
X60.579Y-42.926
X60.579Y-45.466
X54.864Y-37.782
X54.864Y-40.322
X54.864Y-42.862
X54.864Y-45.402
X39.878Y-59.372
X39.878Y-61.872
X83.82Y-5.08
X86.36Y-5.08
X88.9Y-5.08
X91.44Y-5.08
X93.98Y-5.08
X96.52Y-5.08
X99.06Y-5.08
X101.6Y-5.08
X7.943Y-6.35
X7.943Y-8.89
X10.483Y-6.35
X10.483Y-8.89
X13.023Y-6.35
X13.023Y-8.89
X15.563Y-6.35
X15.563Y-8.89
X18.103Y-6.35
X18.103Y-8.89
X20.643Y-6.35
X20.643Y-8.89
X23.183Y-6.35
X23.183Y-8.89
X25.723Y-6.35
X25.723Y-8.89
X28.263Y-6.35
X28.263Y-8.89
X30.803Y-6.35
X30.803Y-8.89
X33.343Y-6.35
X33.343Y-8.89
X35.883Y-6.35
X35.883Y-8.89
X38.423Y-6.35
X38.423Y-8.89
X40.963Y-6.35
X40.963Y-8.89
X43.503Y-6.35
X43.503Y-8.89
X46.043Y-6.35
X46.043Y-8.89
X48.583Y-6.35
X48.583Y-8.89
X51.123Y-6.35
X51.123Y-8.89
X53.663Y-6.35
X53.663Y-8.89
X56.203Y-6.35
X56.203Y-8.89
X58.743Y-6.35
X58.743Y-8.89
X61.283Y-6.35
X61.283Y-8.89
X63.823Y-6.35
X63.823Y-8.89
X66.363Y-6.35
X66.363Y-8.89
X68.903Y-6.35
X68.903Y-8.89
X71.443Y-6.35
X71.443Y-8.89
X73.983Y-6.35
X73.983Y-8.89
X76.523Y-6.35
X76.523Y-8.89
X79.063Y-6.35
X79.063Y-8.89
X81.603Y-6.35
X81.603Y-8.89
X83.82Y-40.64
X83.82Y-43.18
X86.36Y-40.64
X86.36Y-43.18
X88.9Y-40.64
X88.9Y-43.18
X83.82Y-78.74
X86.36Y-78.74
X88.9Y-78.74
X91.44Y-78.74
X93.98Y-78.74
X96.52Y-78.74
X99.06Y-78.74
X101.6Y-78.74
X65.215Y-28.892
X65.215Y-31.432
X65.215Y-33.972
X65.215Y-36.512
X65.215Y-39.052
X65.215Y-41.593
X65.215Y-44.133
X65.215Y-46.672
X65.215Y-49.212
X42.989Y-43.878
X42.989Y-46.418
X42.989Y-48.959
X42.989Y-51.498
X57.912Y-48.578
X57.912Y-51.117
X57.912Y-53.657
X57.912Y-56.197
X57.912Y-58.737
X57.912Y-61.277
X45.657Y-43.878
X45.657Y-46.418
X45.657Y-48.959
X45.657Y-51.498
X46.228Y-59.372
X46.228Y-61.872
X60.356Y-16.755
X62.856Y-16.755
X83.82Y-20.32
X86.36Y-20.32
X88.9Y-20.32
X91.44Y-20.32
X93.98Y-20.32
X96.52Y-20.32
X99.06Y-20.32
X101.6Y-20.32
X7.943Y-74.803
X7.943Y-77.343
X10.483Y-74.803
X10.483Y-77.343
X13.023Y-74.803
X13.023Y-77.343
X15.563Y-74.803
X15.563Y-77.343
X18.103Y-74.803
X18.103Y-77.343
X20.643Y-74.803
X20.643Y-77.343
X23.183Y-74.803
X23.183Y-77.343
X25.723Y-74.803
X25.723Y-77.343
X28.263Y-74.803
X28.263Y-77.343
X30.803Y-74.803
X30.803Y-77.343
X33.343Y-74.803
X33.343Y-77.343
X35.883Y-74.803
X35.883Y-77.343
X38.423Y-74.803
X38.423Y-77.343
X40.963Y-74.803
X40.963Y-77.343
X43.503Y-74.803
X43.503Y-77.343
X46.043Y-74.803
X46.043Y-77.343
X48.583Y-74.803
X48.583Y-77.343
X51.123Y-74.803
X51.123Y-77.343
X53.663Y-74.803
X53.663Y-77.343
X56.203Y-74.803
X56.203Y-77.343
X58.743Y-74.803
X58.743Y-77.343
X61.283Y-74.803
X61.283Y-77.343
X63.823Y-74.803
X63.823Y-77.343
X66.363Y-74.803
X66.363Y-77.343
X68.903Y-74.803
X68.903Y-77.343
X71.443Y-74.803
X71.443Y-77.343
X73.983Y-74.803
X73.983Y-77.343
X76.523Y-74.803
X76.523Y-77.343
X79.063Y-74.803
X79.063Y-77.343
X81.603Y-74.803
X81.603Y-77.343
X57.721Y-37.846
X57.721Y-40.386
X57.721Y-42.926
X57.721Y-45.466
X83.82Y-63.5
X86.36Y-63.5
X88.9Y-63.5
X91.44Y-63.5
X93.98Y-63.5
X96.52Y-63.5
X99.06Y-63.5
X101.6Y-63.5
X1.651Y-22.796
X1.651Y-25.336
X1.651Y-27.877
X1.651Y-30.416
X1.651Y-32.956
X1.651Y-35.496
X1.651Y-38.036
X1.651Y-40.576
X1.651Y-43.116
X1.651Y-45.657
X1.651Y-48.197
X1.651Y-50.736
X1.651Y-53.276
X1.651Y-55.816
X1.651Y-58.356
X1.651Y-60.896
X4.191Y-22.796
X4.191Y-25.336
X4.191Y-27.877
X4.191Y-30.416
X4.191Y-32.956
X4.191Y-35.496
X4.191Y-38.036
X4.191Y-40.576
X4.191Y-43.116
X4.191Y-45.657
X4.191Y-48.197
X4.191Y-50.736
X4.191Y-53.276
X4.191Y-55.816
X4.191Y-58.356
X4.191Y-60.896
X84.519Y-10.16
X84.519Y-12.7
X87.058Y-10.16
X87.058Y-12.7
X89.599Y-10.16
X89.599Y-12.7
X83.82Y-25.4
X83.82Y-27.94
X86.36Y-25.4
X86.36Y-27.94
X88.9Y-25.4
X88.9Y-27.94
X75.501Y-29.972
X75.501Y-32.512
X75.501Y-35.052
X21.463Y-27.877
X24.003Y-27.877
X26.543Y-27.877
X50.609Y-80.073
X53.149Y-80.073
X67.936Y-16.755
X70.436Y-16.755
X75.556Y-16.755
X78.056Y-16.755
X83.82Y-35.56
X86.36Y-35.56
X88.9Y-35.56
X91.44Y-35.56
X93.98Y-35.56
X96.52Y-35.56
X99.06Y-35.56
X101.6Y-35.56
X83.82Y-17.78
X86.36Y-17.78
X88.9Y-17.78
X91.44Y-17.78
X93.98Y-17.78
X96.52Y-17.78
X99.06Y-17.78
X101.6Y-17.78
X78.041Y-29.972
X78.041Y-32.512
X78.041Y-35.052
X72.962Y-29.972
X72.962Y-32.512
X72.962Y-35.052
X21.463Y-33.21
X24.003Y-33.21
X26.543Y-33.21
X83.82Y-50.8
X86.36Y-50.8
X88.9Y-50.8
X91.44Y-50.8
X93.98Y-50.8
X96.52Y-50.8
X99.06Y-50.8
X101.6Y-50.8
X83.82Y-33.02
X86.36Y-33.02
X88.9Y-33.02
X91.44Y-33.02
X93.98Y-33.02
X96.52Y-33.02
X99.06Y-33.02
X101.6Y-33.02
X56.325Y-80.073
X58.864Y-80.073
X61.404Y-80.073
T5
X11.303Y-31.75
X11.303Y-34.29
X11.303Y-36.83
X11.303Y-39.37
X11.303Y-41.91
X13.843Y-31.75
X13.843Y-34.29
X13.843Y-36.83
X13.843Y-39.37
X13.843Y-41.91
X11.303Y-54.61
X11.303Y-57.15
X11.303Y-59.69
X11.303Y-62.23
X11.303Y-64.77
X13.843Y-54.61
X13.843Y-57.15
X13.843Y-59.69
X13.843Y-62.23
X13.843Y-64.77
T6
X41.212Y-19.685
X44.712Y-19.685
X34.099Y-19.685
X37.599Y-19.685
T7
X3.81Y-12.763
X3.81Y-17.843
X24.32Y-19.748
X29.4Y-19.748
T0
M30
