G04 #@! TF.GenerationSoftware,KiCad,Pcbnew,(5.1.5)-3*
G04 #@! TF.CreationDate,2020-05-30T16:59:50+02:00*
G04 #@! TF.ProjectId,RAMPS_STM32F407_TFT_Touch,52414d50-535f-4535-944d-333246343037,rev?*
G04 #@! TF.SameCoordinates,Original*
G04 #@! TF.FileFunction,Legend,Bot*
G04 #@! TF.FilePolarity,Positive*
%FSLAX46Y46*%
G04 Gerber Fmt 4.6, Leading zero omitted, Abs format (unit mm)*
G04 Created by KiCad (PCBNEW (5.1.5)-3) date 2020-05-30 16:59:50*
%MOMM*%
%LPD*%
G04 APERTURE LIST*
%ADD10C,0.150000*%
%ADD11C,0.200000*%
%ADD12C,0.120000*%
%ADD13O,1.718000X1.718000*%
%ADD14C,1.718000*%
%ADD15R,2.118000X2.118000*%
%ADD16R,1.718000X1.718000*%
%ADD17C,0.100000*%
%ADD18C,0.618000*%
%ADD19O,2.018000X1.718000*%
%ADD20O,1.968000X1.718000*%
%ADD21O,1.745200X1.745200*%
%ADD22R,1.745200X1.745200*%
%ADD23C,2.318000*%
%ADD24R,2.318000X2.318000*%
%ADD25C,3.018000*%
%ADD26R,3.018000X3.018000*%
%ADD27O,1.718000X2.018000*%
G04 APERTURE END LIST*
D10*
X107035380Y-78365404D02*
X106768714Y-79165404D01*
X106502047Y-78365404D01*
X105625857Y-79165404D02*
X105625857Y-78365404D01*
X105359190Y-78936833D01*
X105092523Y-78365404D01*
X105092523Y-79165404D01*
X104559190Y-78365404D02*
X104406809Y-78365404D01*
X104330619Y-78403500D01*
X104254428Y-78479690D01*
X104216333Y-78632071D01*
X104216333Y-78898738D01*
X104254428Y-79051119D01*
X104330619Y-79127309D01*
X104406809Y-79165404D01*
X104559190Y-79165404D01*
X104635380Y-79127309D01*
X104711571Y-79051119D01*
X104749666Y-78898738D01*
X104749666Y-78632071D01*
X104711571Y-78479690D01*
X104635380Y-78403500D01*
X104559190Y-78365404D01*
X103987761Y-78365404D02*
X103530619Y-78365404D01*
X103759190Y-79165404D02*
X103759190Y-78365404D01*
X107035380Y-63125404D02*
X106768714Y-63925404D01*
X106502047Y-63125404D01*
X105625857Y-63925404D02*
X105625857Y-63125404D01*
X105359190Y-63696833D01*
X105092523Y-63125404D01*
X105092523Y-63925404D01*
X104559190Y-63125404D02*
X104406809Y-63125404D01*
X104330619Y-63163500D01*
X104254428Y-63239690D01*
X104216333Y-63392071D01*
X104216333Y-63658738D01*
X104254428Y-63811119D01*
X104330619Y-63887309D01*
X104406809Y-63925404D01*
X104559190Y-63925404D01*
X104635380Y-63887309D01*
X104711571Y-63811119D01*
X104749666Y-63658738D01*
X104749666Y-63392071D01*
X104711571Y-63239690D01*
X104635380Y-63163500D01*
X104559190Y-63125404D01*
X103987761Y-63125404D02*
X103530619Y-63125404D01*
X103759190Y-63925404D02*
X103759190Y-63125404D01*
X107035380Y-47821904D02*
X106768714Y-48621904D01*
X106502047Y-47821904D01*
X105625857Y-48621904D02*
X105625857Y-47821904D01*
X105359190Y-48393333D01*
X105092523Y-47821904D01*
X105092523Y-48621904D01*
X104559190Y-47821904D02*
X104406809Y-47821904D01*
X104330619Y-47860000D01*
X104254428Y-47936190D01*
X104216333Y-48088571D01*
X104216333Y-48355238D01*
X104254428Y-48507619D01*
X104330619Y-48583809D01*
X104406809Y-48621904D01*
X104559190Y-48621904D01*
X104635380Y-48583809D01*
X104711571Y-48507619D01*
X104749666Y-48355238D01*
X104749666Y-48088571D01*
X104711571Y-47936190D01*
X104635380Y-47860000D01*
X104559190Y-47821904D01*
X103987761Y-47821904D02*
X103530619Y-47821904D01*
X103759190Y-48621904D02*
X103759190Y-47821904D01*
X106971880Y-32581904D02*
X106705214Y-33381904D01*
X106438547Y-32581904D01*
X105562357Y-33381904D02*
X105562357Y-32581904D01*
X105295690Y-33153333D01*
X105029023Y-32581904D01*
X105029023Y-33381904D01*
X104495690Y-32581904D02*
X104343309Y-32581904D01*
X104267119Y-32620000D01*
X104190928Y-32696190D01*
X104152833Y-32848571D01*
X104152833Y-33115238D01*
X104190928Y-33267619D01*
X104267119Y-33343809D01*
X104343309Y-33381904D01*
X104495690Y-33381904D01*
X104571880Y-33343809D01*
X104648071Y-33267619D01*
X104686166Y-33115238D01*
X104686166Y-32848571D01*
X104648071Y-32696190D01*
X104571880Y-32620000D01*
X104495690Y-32581904D01*
X103924261Y-32581904D02*
X103467119Y-32581904D01*
X103695690Y-33381904D02*
X103695690Y-32581904D01*
X22580214Y-22167904D02*
X22313547Y-22967904D01*
X22046880Y-22167904D01*
X21780214Y-22967904D02*
X21780214Y-22167904D01*
X21399261Y-22967904D02*
X21399261Y-22167904D01*
X20942119Y-22967904D01*
X20942119Y-22167904D01*
X19951642Y-22663142D02*
X19342119Y-22663142D01*
X18389738Y-22244095D02*
X18351642Y-22206000D01*
X18275452Y-22167904D01*
X18084976Y-22167904D01*
X18008785Y-22206000D01*
X17970690Y-22244095D01*
X17932595Y-22320285D01*
X17932595Y-22396476D01*
X17970690Y-22510761D01*
X18427833Y-22967904D01*
X17932595Y-22967904D01*
X17246880Y-22434571D02*
X17246880Y-22967904D01*
X17437357Y-22129809D02*
X17627833Y-22701238D01*
X17132595Y-22701238D01*
X16942119Y-22167904D02*
X16675452Y-22967904D01*
X16408785Y-22167904D01*
X31787714Y-15563904D02*
X31521047Y-16363904D01*
X31254380Y-15563904D01*
X30987714Y-16363904D02*
X30987714Y-15563904D01*
X30606761Y-16363904D02*
X30606761Y-15563904D01*
X30149619Y-16363904D01*
X30149619Y-15563904D01*
X29159142Y-16059142D02*
X28549619Y-16059142D01*
X27597238Y-15640095D02*
X27559142Y-15602000D01*
X27482952Y-15563904D01*
X27292476Y-15563904D01*
X27216285Y-15602000D01*
X27178190Y-15640095D01*
X27140095Y-15716285D01*
X27140095Y-15792476D01*
X27178190Y-15906761D01*
X27635333Y-16363904D01*
X27140095Y-16363904D01*
X26454380Y-15830571D02*
X26454380Y-16363904D01*
X26644857Y-15525809D02*
X26835333Y-16097238D01*
X26340095Y-16097238D01*
X26149619Y-15563904D02*
X25882952Y-16363904D01*
X25616285Y-15563904D01*
X56794071Y-993857D02*
X56394071Y-2193857D01*
X55994071Y-993857D01*
X54679785Y-2193857D02*
X54679785Y-993857D01*
X54279785Y-1851000D01*
X53879785Y-993857D01*
X53879785Y-2193857D01*
X53079785Y-993857D02*
X52851214Y-993857D01*
X52736928Y-1051000D01*
X52622642Y-1165285D01*
X52565500Y-1393857D01*
X52565500Y-1793857D01*
X52622642Y-2022428D01*
X52736928Y-2136714D01*
X52851214Y-2193857D01*
X53079785Y-2193857D01*
X53194071Y-2136714D01*
X53308357Y-2022428D01*
X53365500Y-1793857D01*
X53365500Y-1393857D01*
X53308357Y-1165285D01*
X53194071Y-1051000D01*
X53079785Y-993857D01*
X52222642Y-993857D02*
X51536928Y-993857D01*
X51879785Y-2193857D02*
X51879785Y-993857D01*
X7162690Y-12388904D02*
X6896023Y-13188904D01*
X6629357Y-12388904D01*
X6362690Y-13188904D02*
X6362690Y-12388904D01*
X5981738Y-13188904D02*
X5981738Y-12388904D01*
X5524595Y-13188904D01*
X5524595Y-12388904D01*
X19989690Y-25723904D02*
X19723023Y-26523904D01*
X19456357Y-25723904D01*
X19189690Y-26523904D02*
X19189690Y-25723904D01*
X18808738Y-26523904D02*
X18808738Y-25723904D01*
X18351595Y-26523904D01*
X18351595Y-25723904D01*
X20446880Y-55772095D02*
X20408785Y-55734000D01*
X20332595Y-55695904D01*
X20142119Y-55695904D01*
X20065928Y-55734000D01*
X20027833Y-55772095D01*
X19989738Y-55848285D01*
X19989738Y-55924476D01*
X20027833Y-56038761D01*
X20484976Y-56495904D01*
X19989738Y-56495904D01*
X19304023Y-55962571D02*
X19304023Y-56495904D01*
X19494500Y-55657809D02*
X19684976Y-56229238D01*
X19189738Y-56229238D01*
X18999261Y-55695904D02*
X18732595Y-56495904D01*
X18465928Y-55695904D01*
X8612142Y-29084595D02*
X8659761Y-29036976D01*
X8707380Y-28894119D01*
X8707380Y-28798880D01*
X8659761Y-28656023D01*
X8564523Y-28560785D01*
X8469285Y-28513166D01*
X8278809Y-28465547D01*
X8135952Y-28465547D01*
X7945476Y-28513166D01*
X7850238Y-28560785D01*
X7755000Y-28656023D01*
X7707380Y-28798880D01*
X7707380Y-28894119D01*
X7755000Y-29036976D01*
X7802619Y-29084595D01*
X8707380Y-29656023D02*
X8659761Y-29560785D01*
X8612142Y-29513166D01*
X8516904Y-29465547D01*
X8231190Y-29465547D01*
X8135952Y-29513166D01*
X8088333Y-29560785D01*
X8040714Y-29656023D01*
X8040714Y-29798880D01*
X8088333Y-29894119D01*
X8135952Y-29941738D01*
X8231190Y-29989357D01*
X8516904Y-29989357D01*
X8612142Y-29941738D01*
X8659761Y-29894119D01*
X8707380Y-29798880D01*
X8707380Y-29656023D01*
X8040714Y-30417928D02*
X8707380Y-30417928D01*
X8135952Y-30417928D02*
X8088333Y-30465547D01*
X8040714Y-30560785D01*
X8040714Y-30703642D01*
X8088333Y-30798880D01*
X8183571Y-30846500D01*
X8707380Y-30846500D01*
X8040714Y-31322690D02*
X8707380Y-31322690D01*
X8135952Y-31322690D02*
X8088333Y-31370309D01*
X8040714Y-31465547D01*
X8040714Y-31608404D01*
X8088333Y-31703642D01*
X8183571Y-31751261D01*
X8707380Y-31751261D01*
X8659761Y-32608404D02*
X8707380Y-32513166D01*
X8707380Y-32322690D01*
X8659761Y-32227452D01*
X8564523Y-32179833D01*
X8183571Y-32179833D01*
X8088333Y-32227452D01*
X8040714Y-32322690D01*
X8040714Y-32513166D01*
X8088333Y-32608404D01*
X8183571Y-32656023D01*
X8278809Y-32656023D01*
X8374047Y-32179833D01*
X8659761Y-33513166D02*
X8707380Y-33417928D01*
X8707380Y-33227452D01*
X8659761Y-33132214D01*
X8612142Y-33084595D01*
X8516904Y-33036976D01*
X8231190Y-33036976D01*
X8135952Y-33084595D01*
X8088333Y-33132214D01*
X8040714Y-33227452D01*
X8040714Y-33417928D01*
X8088333Y-33513166D01*
X8040714Y-33798880D02*
X8040714Y-34179833D01*
X7707380Y-33941738D02*
X8564523Y-33941738D01*
X8659761Y-33989357D01*
X8707380Y-34084595D01*
X8707380Y-34179833D01*
X8707380Y-34656023D02*
X8659761Y-34560785D01*
X8612142Y-34513166D01*
X8516904Y-34465547D01*
X8231190Y-34465547D01*
X8135952Y-34513166D01*
X8088333Y-34560785D01*
X8040714Y-34656023D01*
X8040714Y-34798880D01*
X8088333Y-34894119D01*
X8135952Y-34941738D01*
X8231190Y-34989357D01*
X8516904Y-34989357D01*
X8612142Y-34941738D01*
X8659761Y-34894119D01*
X8707380Y-34798880D01*
X8707380Y-34656023D01*
X8707380Y-35417928D02*
X8040714Y-35417928D01*
X8231190Y-35417928D02*
X8135952Y-35465547D01*
X8088333Y-35513166D01*
X8040714Y-35608404D01*
X8040714Y-35703642D01*
X8040714Y-36703642D02*
X8707380Y-36894119D01*
X8231190Y-37084595D01*
X8707380Y-37275071D01*
X8040714Y-37465547D01*
X8707380Y-37846500D02*
X8040714Y-37846500D01*
X7707380Y-37846500D02*
X7755000Y-37798880D01*
X7802619Y-37846500D01*
X7755000Y-37894119D01*
X7707380Y-37846500D01*
X7802619Y-37846500D01*
X8040714Y-38179833D02*
X8040714Y-38560785D01*
X7707380Y-38322690D02*
X8564523Y-38322690D01*
X8659761Y-38370309D01*
X8707380Y-38465547D01*
X8707380Y-38560785D01*
X8707380Y-38894119D02*
X7707380Y-38894119D01*
X8707380Y-39322690D02*
X8183571Y-39322690D01*
X8088333Y-39275071D01*
X8040714Y-39179833D01*
X8040714Y-39036976D01*
X8088333Y-38941738D01*
X8135952Y-38894119D01*
X8040714Y-40560785D02*
X9040714Y-40560785D01*
X8088333Y-40560785D02*
X8040714Y-40656023D01*
X8040714Y-40846500D01*
X8088333Y-40941738D01*
X8135952Y-40989357D01*
X8231190Y-41036976D01*
X8516904Y-41036976D01*
X8612142Y-40989357D01*
X8659761Y-40941738D01*
X8707380Y-40846500D01*
X8707380Y-40656023D01*
X8659761Y-40560785D01*
X8707380Y-41465547D02*
X8040714Y-41465547D01*
X7707380Y-41465547D02*
X7755000Y-41417928D01*
X7802619Y-41465547D01*
X7755000Y-41513166D01*
X7707380Y-41465547D01*
X7802619Y-41465547D01*
X8040714Y-41941738D02*
X8707380Y-41941738D01*
X8135952Y-41941738D02*
X8088333Y-41989357D01*
X8040714Y-42084595D01*
X8040714Y-42227452D01*
X8088333Y-42322690D01*
X8183571Y-42370309D01*
X8707380Y-42370309D01*
X8707380Y-43608404D02*
X8040714Y-43608404D01*
X8135952Y-43608404D02*
X8088333Y-43656023D01*
X8040714Y-43751261D01*
X8040714Y-43894119D01*
X8088333Y-43989357D01*
X8183571Y-44036976D01*
X8707380Y-44036976D01*
X8183571Y-44036976D02*
X8088333Y-44084595D01*
X8040714Y-44179833D01*
X8040714Y-44322690D01*
X8088333Y-44417928D01*
X8183571Y-44465547D01*
X8707380Y-44465547D01*
X8707380Y-44941738D02*
X8040714Y-44941738D01*
X7707380Y-44941738D02*
X7755000Y-44894119D01*
X7802619Y-44941738D01*
X7755000Y-44989357D01*
X7707380Y-44941738D01*
X7802619Y-44941738D01*
X8040714Y-45417928D02*
X8707380Y-45417928D01*
X8135952Y-45417928D02*
X8088333Y-45465547D01*
X8040714Y-45560785D01*
X8040714Y-45703642D01*
X8088333Y-45798880D01*
X8183571Y-45846500D01*
X8707380Y-45846500D01*
X8707380Y-47608404D02*
X8707380Y-47036976D01*
X8707380Y-47322690D02*
X7707380Y-47322690D01*
X7850238Y-47227452D01*
X7945476Y-47132214D01*
X7993095Y-47036976D01*
X7802619Y-47989357D02*
X7755000Y-48036976D01*
X7707380Y-48132214D01*
X7707380Y-48370309D01*
X7755000Y-48465547D01*
X7802619Y-48513166D01*
X7897857Y-48560785D01*
X7993095Y-48560785D01*
X8135952Y-48513166D01*
X8707380Y-47941738D01*
X8707380Y-48560785D01*
X8707380Y-48989357D02*
X8040714Y-48989357D01*
X8135952Y-48989357D02*
X8088333Y-49036976D01*
X8040714Y-49132214D01*
X8040714Y-49275071D01*
X8088333Y-49370309D01*
X8183571Y-49417928D01*
X8707380Y-49417928D01*
X8183571Y-49417928D02*
X8088333Y-49465547D01*
X8040714Y-49560785D01*
X8040714Y-49703642D01*
X8088333Y-49798880D01*
X8183571Y-49846500D01*
X8707380Y-49846500D01*
X8707380Y-50322690D02*
X8040714Y-50322690D01*
X8135952Y-50322690D02*
X8088333Y-50370309D01*
X8040714Y-50465547D01*
X8040714Y-50608404D01*
X8088333Y-50703642D01*
X8183571Y-50751261D01*
X8707380Y-50751261D01*
X8183571Y-50751261D02*
X8088333Y-50798880D01*
X8040714Y-50894119D01*
X8040714Y-51036976D01*
X8088333Y-51132214D01*
X8183571Y-51179833D01*
X8707380Y-51179833D01*
X8707380Y-52560785D02*
X8659761Y-52465547D01*
X8564523Y-52417928D01*
X7707380Y-52417928D01*
X8707380Y-53084595D02*
X8659761Y-52989357D01*
X8612142Y-52941738D01*
X8516904Y-52894119D01*
X8231190Y-52894119D01*
X8135952Y-52941738D01*
X8088333Y-52989357D01*
X8040714Y-53084595D01*
X8040714Y-53227452D01*
X8088333Y-53322690D01*
X8135952Y-53370309D01*
X8231190Y-53417928D01*
X8516904Y-53417928D01*
X8612142Y-53370309D01*
X8659761Y-53322690D01*
X8707380Y-53227452D01*
X8707380Y-53084595D01*
X8040714Y-53846500D02*
X8707380Y-53846500D01*
X8135952Y-53846500D02*
X8088333Y-53894119D01*
X8040714Y-53989357D01*
X8040714Y-54132214D01*
X8088333Y-54227452D01*
X8183571Y-54275071D01*
X8707380Y-54275071D01*
X8040714Y-55179833D02*
X8850238Y-55179833D01*
X8945476Y-55132214D01*
X8993095Y-55084595D01*
X9040714Y-54989357D01*
X9040714Y-54846500D01*
X8993095Y-54751261D01*
X8659761Y-55179833D02*
X8707380Y-55084595D01*
X8707380Y-54894119D01*
X8659761Y-54798880D01*
X8612142Y-54751261D01*
X8516904Y-54703642D01*
X8231190Y-54703642D01*
X8135952Y-54751261D01*
X8088333Y-54798880D01*
X8040714Y-54894119D01*
X8040714Y-55084595D01*
X8088333Y-55179833D01*
D11*
X6581785Y-25017928D02*
X6581785Y-24617928D01*
X7210357Y-24617928D02*
X6010357Y-24617928D01*
X6010357Y-25189357D01*
X7153214Y-25589357D02*
X7210357Y-25760785D01*
X7210357Y-26046499D01*
X7153214Y-26160785D01*
X7096071Y-26217928D01*
X6981785Y-26275071D01*
X6867500Y-26275071D01*
X6753214Y-26217928D01*
X6696071Y-26160785D01*
X6638928Y-26046499D01*
X6581785Y-25817928D01*
X6524642Y-25703642D01*
X6467500Y-25646499D01*
X6353214Y-25589357D01*
X6238928Y-25589357D01*
X6124642Y-25646499D01*
X6067500Y-25703642D01*
X6010357Y-25817928D01*
X6010357Y-26103642D01*
X6067500Y-26275071D01*
X7210357Y-26789357D02*
X6010357Y-26789357D01*
X6867500Y-27189357D01*
X6010357Y-27589357D01*
X7210357Y-27589357D01*
X7096071Y-28846499D02*
X7153214Y-28789357D01*
X7210357Y-28617928D01*
X7210357Y-28503642D01*
X7153214Y-28332214D01*
X7038928Y-28217928D01*
X6924642Y-28160785D01*
X6696071Y-28103642D01*
X6524642Y-28103642D01*
X6296071Y-28160785D01*
X6181785Y-28217928D01*
X6067500Y-28332214D01*
X6010357Y-28503642D01*
X6010357Y-28617928D01*
X6067500Y-28789357D01*
X6124642Y-28846499D01*
X7210357Y-30903642D02*
X7210357Y-30217928D01*
X7210357Y-30560785D02*
X6010357Y-30560785D01*
X6181785Y-30446499D01*
X6296071Y-30332214D01*
X6353214Y-30217928D01*
X6010357Y-31932214D02*
X6010357Y-31703642D01*
X6067500Y-31589357D01*
X6124642Y-31532214D01*
X6296071Y-31417928D01*
X6524642Y-31360785D01*
X6981785Y-31360785D01*
X7096071Y-31417928D01*
X7153214Y-31475071D01*
X7210357Y-31589357D01*
X7210357Y-31817928D01*
X7153214Y-31932214D01*
X7096071Y-31989357D01*
X6981785Y-32046499D01*
X6696071Y-32046499D01*
X6581785Y-31989357D01*
X6524642Y-31932214D01*
X6467500Y-31817928D01*
X6467500Y-31589357D01*
X6524642Y-31475071D01*
X6581785Y-31417928D01*
X6696071Y-31360785D01*
X7210357Y-32560785D02*
X6010357Y-32560785D01*
X6467500Y-32560785D02*
X6410357Y-32675071D01*
X6410357Y-32903642D01*
X6467500Y-33017928D01*
X6524642Y-33075071D01*
X6638928Y-33132214D01*
X6981785Y-33132214D01*
X7096071Y-33075071D01*
X7153214Y-33017928D01*
X7210357Y-32903642D01*
X7210357Y-32675071D01*
X7153214Y-32560785D01*
X7210357Y-33646499D02*
X6410357Y-33646499D01*
X6010357Y-33646499D02*
X6067500Y-33589357D01*
X6124642Y-33646499D01*
X6067500Y-33703642D01*
X6010357Y-33646499D01*
X6124642Y-33646499D01*
X6410357Y-34046499D02*
X6410357Y-34503642D01*
X6010357Y-34217928D02*
X7038928Y-34217928D01*
X7153214Y-34275071D01*
X7210357Y-34389357D01*
X7210357Y-34503642D01*
X6010357Y-36560785D02*
X6010357Y-37246499D01*
X7210357Y-36903642D02*
X6010357Y-36903642D01*
X6581785Y-38046499D02*
X6581785Y-37646499D01*
X7210357Y-37646499D02*
X6010357Y-37646499D01*
X6010357Y-38217928D01*
X6010357Y-38503642D02*
X6010357Y-39189357D01*
X7210357Y-38846499D02*
X6010357Y-38846499D01*
X6010357Y-40389357D02*
X6010357Y-41132214D01*
X6467500Y-40732214D01*
X6467500Y-40903642D01*
X6524642Y-41017928D01*
X6581785Y-41075071D01*
X6696071Y-41132214D01*
X6981785Y-41132214D01*
X7096071Y-41075071D01*
X7153214Y-41017928D01*
X7210357Y-40903642D01*
X7210357Y-40560785D01*
X7153214Y-40446499D01*
X7096071Y-40389357D01*
X6124642Y-41589357D02*
X6067500Y-41646499D01*
X6010357Y-41760785D01*
X6010357Y-42046499D01*
X6067500Y-42160785D01*
X6124642Y-42217928D01*
X6238928Y-42275071D01*
X6353214Y-42275071D01*
X6524642Y-42217928D01*
X7210357Y-41532214D01*
X7210357Y-42275071D01*
X6010357Y-43017928D02*
X6010357Y-43132214D01*
X6067500Y-43246499D01*
X6124642Y-43303642D01*
X6238928Y-43360785D01*
X6467500Y-43417928D01*
X6753214Y-43417928D01*
X6981785Y-43360785D01*
X7096071Y-43303642D01*
X7153214Y-43246499D01*
X7210357Y-43132214D01*
X7210357Y-43017928D01*
X7153214Y-42903642D01*
X7096071Y-42846499D01*
X6981785Y-42789357D01*
X6753214Y-42732214D01*
X6467500Y-42732214D01*
X6238928Y-42789357D01*
X6124642Y-42846499D01*
X6067500Y-42903642D01*
X6010357Y-43017928D01*
X7210357Y-43817928D02*
X6410357Y-44446499D01*
X6410357Y-43817928D02*
X7210357Y-44446499D01*
X6124642Y-44846499D02*
X6067500Y-44903642D01*
X6010357Y-45017928D01*
X6010357Y-45303642D01*
X6067500Y-45417928D01*
X6124642Y-45475071D01*
X6238928Y-45532214D01*
X6353214Y-45532214D01*
X6524642Y-45475071D01*
X7210357Y-44789357D01*
X7210357Y-45532214D01*
X6410357Y-46560785D02*
X7210357Y-46560785D01*
X5953214Y-46275071D02*
X6810357Y-45989357D01*
X6810357Y-46732214D01*
X6010357Y-47417928D02*
X6010357Y-47532214D01*
X6067500Y-47646499D01*
X6124642Y-47703642D01*
X6238928Y-47760785D01*
X6467500Y-47817928D01*
X6753214Y-47817928D01*
X6981785Y-47760785D01*
X7096071Y-47703642D01*
X7153214Y-47646499D01*
X7210357Y-47532214D01*
X7210357Y-47417928D01*
X7153214Y-47303642D01*
X7096071Y-47246499D01*
X6981785Y-47189357D01*
X6753214Y-47132214D01*
X6467500Y-47132214D01*
X6238928Y-47189357D01*
X6124642Y-47246499D01*
X6067500Y-47303642D01*
X6010357Y-47417928D01*
X6410357Y-49132214D02*
X7210357Y-49360785D01*
X6638928Y-49589357D01*
X7210357Y-49817928D01*
X6410357Y-50046499D01*
X7210357Y-50503642D02*
X6410357Y-50503642D01*
X6010357Y-50503642D02*
X6067499Y-50446499D01*
X6124642Y-50503642D01*
X6067499Y-50560785D01*
X6010357Y-50503642D01*
X6124642Y-50503642D01*
X6410357Y-50903642D02*
X6410357Y-51360785D01*
X6010357Y-51075071D02*
X7038928Y-51075071D01*
X7153214Y-51132214D01*
X7210357Y-51246499D01*
X7210357Y-51360785D01*
X7210357Y-51760785D02*
X6010357Y-51760785D01*
X7210357Y-52275071D02*
X6581785Y-52275071D01*
X6467499Y-52217928D01*
X6410357Y-52103642D01*
X6410357Y-51932214D01*
X6467499Y-51817928D01*
X6524642Y-51760785D01*
X6010357Y-53589357D02*
X6010357Y-54275071D01*
X7210357Y-53932214D02*
X6010357Y-53932214D01*
X6010357Y-54903642D02*
X6010357Y-55132214D01*
X6067499Y-55246499D01*
X6181785Y-55360785D01*
X6410357Y-55417928D01*
X6810357Y-55417928D01*
X7038928Y-55360785D01*
X7153214Y-55246499D01*
X7210357Y-55132214D01*
X7210357Y-54903642D01*
X7153214Y-54789357D01*
X7038928Y-54675071D01*
X6810357Y-54617928D01*
X6410357Y-54617928D01*
X6181785Y-54675071D01*
X6067499Y-54789357D01*
X6010357Y-54903642D01*
X6010357Y-55932214D02*
X6981785Y-55932214D01*
X7096071Y-55989357D01*
X7153214Y-56046499D01*
X7210357Y-56160785D01*
X7210357Y-56389357D01*
X7153214Y-56503642D01*
X7096071Y-56560785D01*
X6981785Y-56617928D01*
X6010357Y-56617928D01*
X7096071Y-57875071D02*
X7153214Y-57817928D01*
X7210357Y-57646499D01*
X7210357Y-57532214D01*
X7153214Y-57360785D01*
X7038928Y-57246499D01*
X6924642Y-57189357D01*
X6696071Y-57132214D01*
X6524642Y-57132214D01*
X6296071Y-57189357D01*
X6181785Y-57246499D01*
X6067499Y-57360785D01*
X6010357Y-57532214D01*
X6010357Y-57646499D01*
X6067499Y-57817928D01*
X6124642Y-57875071D01*
X7210357Y-58389357D02*
X6010357Y-58389357D01*
X6581785Y-58389357D02*
X6581785Y-59075071D01*
X7210357Y-59075071D02*
X6010357Y-59075071D01*
D10*
X41147976Y-48474380D02*
X41624166Y-48474380D01*
X41671785Y-48950571D01*
X41624166Y-48902952D01*
X41528928Y-48855333D01*
X41290833Y-48855333D01*
X41195595Y-48902952D01*
X41147976Y-48950571D01*
X41100357Y-49045809D01*
X41100357Y-49283904D01*
X41147976Y-49379142D01*
X41195595Y-49426761D01*
X41290833Y-49474380D01*
X41528928Y-49474380D01*
X41624166Y-49426761D01*
X41671785Y-49379142D01*
X40814642Y-48474380D02*
X40481309Y-49474380D01*
X40147976Y-48474380D01*
X41830476Y-43489619D02*
X41782857Y-43442000D01*
X41687619Y-43394380D01*
X41449523Y-43394380D01*
X41354285Y-43442000D01*
X41306666Y-43489619D01*
X41259047Y-43584857D01*
X41259047Y-43680095D01*
X41306666Y-43822952D01*
X41878095Y-44394380D01*
X41259047Y-44394380D01*
X40401904Y-43727714D02*
X40401904Y-44394380D01*
X40640000Y-43346761D02*
X40878095Y-44061047D01*
X40259047Y-44061047D01*
X40020952Y-43394380D02*
X39687619Y-44394380D01*
X39354285Y-43394380D01*
X26729114Y-30108148D02*
X27133175Y-29704087D01*
X26931144Y-29906118D02*
X26224038Y-29199011D01*
X26392396Y-29232683D01*
X26527083Y-29232683D01*
X26628099Y-29199011D01*
X25819977Y-29737759D02*
X25752633Y-29737759D01*
X25651618Y-29771431D01*
X25483259Y-29939790D01*
X25449587Y-30040805D01*
X25449587Y-30108148D01*
X25483259Y-30209164D01*
X25550603Y-30276507D01*
X25685290Y-30343851D01*
X26493412Y-30343851D01*
X26055679Y-30781583D01*
X25146542Y-30276507D02*
X25617946Y-31219316D01*
X24675137Y-30747912D01*
X53333595Y-37934880D02*
X53333595Y-38315833D01*
X52952642Y-38353928D01*
X52990738Y-38315833D01*
X53028833Y-38239642D01*
X53028833Y-38049166D01*
X52990738Y-37972976D01*
X52952642Y-37934880D01*
X52876452Y-37896785D01*
X52685976Y-37896785D01*
X52609785Y-37934880D01*
X52571690Y-37972976D01*
X52533595Y-38049166D01*
X52533595Y-38239642D01*
X52571690Y-38315833D01*
X52609785Y-38353928D01*
X53333595Y-37668214D02*
X52533595Y-37401547D01*
X53333595Y-37134880D01*
X106971880Y-17341904D02*
X106705214Y-18141904D01*
X106438547Y-17341904D01*
X105562357Y-18141904D02*
X105562357Y-17341904D01*
X105295690Y-17913333D01*
X105029023Y-17341904D01*
X105029023Y-18141904D01*
X104495690Y-17341904D02*
X104343309Y-17341904D01*
X104267119Y-17380000D01*
X104190928Y-17456190D01*
X104152833Y-17608571D01*
X104152833Y-17875238D01*
X104190928Y-18027619D01*
X104267119Y-18103809D01*
X104343309Y-18141904D01*
X104495690Y-18141904D01*
X104571880Y-18103809D01*
X104648071Y-18027619D01*
X104686166Y-17875238D01*
X104686166Y-17608571D01*
X104648071Y-17456190D01*
X104571880Y-17380000D01*
X104495690Y-17341904D01*
X103924261Y-17341904D02*
X103467119Y-17341904D01*
X103695690Y-18141904D02*
X103695690Y-17341904D01*
X22339190Y-34867904D02*
X22072523Y-35667904D01*
X21805857Y-34867904D01*
X21539190Y-35667904D02*
X21539190Y-34867904D01*
X21158238Y-35667904D02*
X21158238Y-34867904D01*
X20701095Y-35667904D01*
X20701095Y-34867904D01*
X26822380Y-34931404D02*
X27203333Y-34931404D01*
X27241428Y-35312357D01*
X27203333Y-35274261D01*
X27127142Y-35236166D01*
X26936666Y-35236166D01*
X26860476Y-35274261D01*
X26822380Y-35312357D01*
X26784285Y-35388547D01*
X26784285Y-35579023D01*
X26822380Y-35655214D01*
X26860476Y-35693309D01*
X26936666Y-35731404D01*
X27127142Y-35731404D01*
X27203333Y-35693309D01*
X27241428Y-35655214D01*
X26555714Y-34931404D02*
X26289047Y-35731404D01*
X26022380Y-34931404D01*
X41259047Y-46934380D02*
X41830476Y-46934380D01*
X41544761Y-46934380D02*
X41544761Y-45934380D01*
X41640000Y-46077238D01*
X41735238Y-46172476D01*
X41830476Y-46220095D01*
X40878095Y-46029619D02*
X40830476Y-45982000D01*
X40735238Y-45934380D01*
X40497142Y-45934380D01*
X40401904Y-45982000D01*
X40354285Y-46029619D01*
X40306666Y-46124857D01*
X40306666Y-46220095D01*
X40354285Y-46362952D01*
X40925714Y-46934380D01*
X40306666Y-46934380D01*
X40020952Y-45934380D02*
X39687619Y-46934380D01*
X39354285Y-45934380D01*
X26144642Y-71993071D02*
X26201785Y-72050214D01*
X26373214Y-72107357D01*
X26487500Y-72107357D01*
X26658928Y-72050214D01*
X26773214Y-71935928D01*
X26830357Y-71821642D01*
X26887500Y-71593071D01*
X26887500Y-71421642D01*
X26830357Y-71193071D01*
X26773214Y-71078785D01*
X26658928Y-70964500D01*
X26487500Y-70907357D01*
X26373214Y-70907357D01*
X26201785Y-70964500D01*
X26144642Y-71021642D01*
X25630357Y-72107357D02*
X25630357Y-71307357D01*
X25630357Y-71535928D02*
X25573214Y-71421642D01*
X25516071Y-71364500D01*
X25401785Y-71307357D01*
X25287500Y-71307357D01*
X24430357Y-72050214D02*
X24544642Y-72107357D01*
X24773214Y-72107357D01*
X24887500Y-72050214D01*
X24944642Y-71935928D01*
X24944642Y-71478785D01*
X24887500Y-71364500D01*
X24773214Y-71307357D01*
X24544642Y-71307357D01*
X24430357Y-71364500D01*
X24373214Y-71478785D01*
X24373214Y-71593071D01*
X24944642Y-71707357D01*
X23344642Y-72107357D02*
X23344642Y-71478785D01*
X23401785Y-71364500D01*
X23516071Y-71307357D01*
X23744642Y-71307357D01*
X23858928Y-71364500D01*
X23344642Y-72050214D02*
X23458928Y-72107357D01*
X23744642Y-72107357D01*
X23858928Y-72050214D01*
X23916071Y-71935928D01*
X23916071Y-71821642D01*
X23858928Y-71707357D01*
X23744642Y-71650214D01*
X23458928Y-71650214D01*
X23344642Y-71593071D01*
X22944642Y-71307357D02*
X22487500Y-71307357D01*
X22773214Y-70907357D02*
X22773214Y-71935928D01*
X22716071Y-72050214D01*
X22601785Y-72107357D01*
X22487500Y-72107357D01*
X21630357Y-72050214D02*
X21744642Y-72107357D01*
X21973214Y-72107357D01*
X22087499Y-72050214D01*
X22144642Y-71935928D01*
X22144642Y-71478785D01*
X22087499Y-71364500D01*
X21973214Y-71307357D01*
X21744642Y-71307357D01*
X21630357Y-71364500D01*
X21573214Y-71478785D01*
X21573214Y-71593071D01*
X22144642Y-71707357D01*
X20544642Y-72107357D02*
X20544642Y-70907357D01*
X20544642Y-72050214D02*
X20658928Y-72107357D01*
X20887499Y-72107357D01*
X21001785Y-72050214D01*
X21058928Y-71993071D01*
X21116071Y-71878785D01*
X21116071Y-71535928D01*
X21058928Y-71421642D01*
X21001785Y-71364500D01*
X20887499Y-71307357D01*
X20658928Y-71307357D01*
X20544642Y-71364500D01*
X19058928Y-72107357D02*
X19058928Y-70907357D01*
X19058928Y-71364500D02*
X18944642Y-71307357D01*
X18716071Y-71307357D01*
X18601785Y-71364500D01*
X18544642Y-71421642D01*
X18487499Y-71535928D01*
X18487499Y-71878785D01*
X18544642Y-71993071D01*
X18601785Y-72050214D01*
X18716071Y-72107357D01*
X18944642Y-72107357D01*
X19058928Y-72050214D01*
X18087499Y-71307357D02*
X17801785Y-72107357D01*
X17516071Y-71307357D02*
X17801785Y-72107357D01*
X17916071Y-72393071D01*
X17973214Y-72450214D01*
X18087499Y-72507357D01*
X15801785Y-70907357D02*
X15801785Y-71764500D01*
X15858928Y-71935928D01*
X15973214Y-72050214D01*
X16144642Y-72107357D01*
X16258928Y-72107357D01*
X14716071Y-72107357D02*
X14716071Y-71478785D01*
X14773214Y-71364500D01*
X14887499Y-71307357D01*
X15116071Y-71307357D01*
X15230357Y-71364500D01*
X14716071Y-72050214D02*
X14830357Y-72107357D01*
X15116071Y-72107357D01*
X15230357Y-72050214D01*
X15287499Y-71935928D01*
X15287499Y-71821642D01*
X15230357Y-71707357D01*
X15116071Y-71650214D01*
X14830357Y-71650214D01*
X14716071Y-71593071D01*
X14144642Y-72107357D02*
X14144642Y-71307357D01*
X14144642Y-71535928D02*
X14087499Y-71421642D01*
X14030357Y-71364500D01*
X13916071Y-71307357D01*
X13801785Y-71307357D01*
X13401785Y-72107357D02*
X13401785Y-71307357D01*
X13401785Y-70907357D02*
X13458928Y-70964500D01*
X13401785Y-71021642D01*
X13344642Y-70964500D01*
X13401785Y-70907357D01*
X13401785Y-71021642D01*
X12830357Y-71307357D02*
X12830357Y-72107357D01*
X12830357Y-71421642D02*
X12773214Y-71364500D01*
X12658928Y-71307357D01*
X12487499Y-71307357D01*
X12373214Y-71364500D01*
X12316071Y-71478785D01*
X12316071Y-72107357D01*
X11687499Y-70907357D02*
X11801785Y-71135928D01*
X11230357Y-72050214D02*
X11116071Y-72107357D01*
X10887499Y-72107357D01*
X10773214Y-72050214D01*
X10716071Y-71935928D01*
X10716071Y-71878785D01*
X10773214Y-71764500D01*
X10887499Y-71707357D01*
X11058928Y-71707357D01*
X11173214Y-71650214D01*
X11230357Y-71535928D01*
X11230357Y-71478785D01*
X11173214Y-71364500D01*
X11058928Y-71307357D01*
X10887499Y-71307357D01*
X10773214Y-71364500D01*
X8944642Y-72564500D02*
X9001785Y-72507357D01*
X9116071Y-72335928D01*
X9173214Y-72221642D01*
X9230357Y-72050214D01*
X9287499Y-71764500D01*
X9287499Y-71535928D01*
X9230357Y-71250214D01*
X9173214Y-71078785D01*
X9116071Y-70964500D01*
X9001785Y-70793071D01*
X8944642Y-70735928D01*
X7973214Y-72050214D02*
X8087499Y-72107357D01*
X8316071Y-72107357D01*
X8430357Y-72050214D01*
X8487499Y-71993071D01*
X8544642Y-71878785D01*
X8544642Y-71535928D01*
X8487499Y-71421642D01*
X8430357Y-71364500D01*
X8316071Y-71307357D01*
X8087499Y-71307357D01*
X7973214Y-71364500D01*
X7573214Y-72564500D02*
X7516071Y-72507357D01*
X7401785Y-72335928D01*
X7344642Y-72221642D01*
X7287499Y-72050214D01*
X7230357Y-71764500D01*
X7230357Y-71535928D01*
X7287499Y-71250214D01*
X7344642Y-71078785D01*
X7401785Y-70964500D01*
X7516071Y-70793071D01*
X7573214Y-70735928D01*
X5801785Y-71021642D02*
X5744642Y-70964500D01*
X5630357Y-70907357D01*
X5344642Y-70907357D01*
X5230357Y-70964500D01*
X5173214Y-71021642D01*
X5116071Y-71135928D01*
X5116071Y-71250214D01*
X5173214Y-71421642D01*
X5858928Y-72107357D01*
X5116071Y-72107357D01*
X4373214Y-70907357D02*
X4258928Y-70907357D01*
X4144642Y-70964500D01*
X4087499Y-71021642D01*
X4030357Y-71135928D01*
X3973214Y-71364500D01*
X3973214Y-71650214D01*
X4030357Y-71878785D01*
X4087499Y-71993071D01*
X4144642Y-72050214D01*
X4258928Y-72107357D01*
X4373214Y-72107357D01*
X4487499Y-72050214D01*
X4544642Y-71993071D01*
X4601785Y-71878785D01*
X4658928Y-71650214D01*
X4658928Y-71364500D01*
X4601785Y-71135928D01*
X4544642Y-71021642D01*
X4487499Y-70964500D01*
X4373214Y-70907357D01*
X3516071Y-71021642D02*
X3458928Y-70964500D01*
X3344642Y-70907357D01*
X3058928Y-70907357D01*
X2944642Y-70964500D01*
X2887499Y-71021642D01*
X2830357Y-71135928D01*
X2830357Y-71250214D01*
X2887499Y-71421642D01*
X3573214Y-72107357D01*
X2830357Y-72107357D01*
X2087499Y-70907357D02*
X1973214Y-70907357D01*
X1858928Y-70964500D01*
X1801785Y-71021642D01*
X1744642Y-71135928D01*
X1687499Y-71364500D01*
X1687499Y-71650214D01*
X1744642Y-71878785D01*
X1801785Y-71993071D01*
X1858928Y-72050214D01*
X1973214Y-72107357D01*
X2087499Y-72107357D01*
X2201785Y-72050214D01*
X2258928Y-71993071D01*
X2316071Y-71878785D01*
X2373214Y-71650214D01*
X2373214Y-71364500D01*
X2316071Y-71135928D01*
X2258928Y-71021642D01*
X2201785Y-70964500D01*
X2087499Y-70907357D01*
X45269642Y-69694357D02*
X45669642Y-69122928D01*
X45955357Y-69694357D02*
X45955357Y-68494357D01*
X45498214Y-68494357D01*
X45383928Y-68551500D01*
X45326785Y-68608642D01*
X45269642Y-68722928D01*
X45269642Y-68894357D01*
X45326785Y-69008642D01*
X45383928Y-69065785D01*
X45498214Y-69122928D01*
X45955357Y-69122928D01*
X44812500Y-69351500D02*
X44241071Y-69351500D01*
X44926785Y-69694357D02*
X44526785Y-68494357D01*
X44126785Y-69694357D01*
X43726785Y-69694357D02*
X43726785Y-68494357D01*
X43326785Y-69351500D01*
X42926785Y-68494357D01*
X42926785Y-69694357D01*
X42355357Y-69694357D02*
X42355357Y-68494357D01*
X41898214Y-68494357D01*
X41783928Y-68551500D01*
X41726785Y-68608642D01*
X41669642Y-68722928D01*
X41669642Y-68894357D01*
X41726785Y-69008642D01*
X41783928Y-69065785D01*
X41898214Y-69122928D01*
X42355357Y-69122928D01*
X41212500Y-69637214D02*
X41041071Y-69694357D01*
X40755357Y-69694357D01*
X40641071Y-69637214D01*
X40583928Y-69580071D01*
X40526785Y-69465785D01*
X40526785Y-69351500D01*
X40583928Y-69237214D01*
X40641071Y-69180071D01*
X40755357Y-69122928D01*
X40983928Y-69065785D01*
X41098214Y-69008642D01*
X41155357Y-68951500D01*
X41212500Y-68837214D01*
X41212500Y-68722928D01*
X41155357Y-68608642D01*
X41098214Y-68551500D01*
X40983928Y-68494357D01*
X40698214Y-68494357D01*
X40526785Y-68551500D01*
X39269642Y-68894357D02*
X38812499Y-68894357D01*
X39098214Y-69694357D02*
X39098214Y-68665785D01*
X39041071Y-68551500D01*
X38926785Y-68494357D01*
X38812499Y-68494357D01*
X38241071Y-69694357D02*
X38355357Y-69637214D01*
X38412500Y-69580071D01*
X38469642Y-69465785D01*
X38469642Y-69122928D01*
X38412500Y-69008642D01*
X38355357Y-68951500D01*
X38241071Y-68894357D01*
X38069642Y-68894357D01*
X37955357Y-68951500D01*
X37898214Y-69008642D01*
X37841071Y-69122928D01*
X37841071Y-69465785D01*
X37898214Y-69580071D01*
X37955357Y-69637214D01*
X38069642Y-69694357D01*
X38241071Y-69694357D01*
X37326785Y-69694357D02*
X37326785Y-68894357D01*
X37326785Y-69122928D02*
X37269642Y-69008642D01*
X37212500Y-68951500D01*
X37098214Y-68894357D01*
X36983928Y-68894357D01*
X35726785Y-69637214D02*
X35555357Y-69694357D01*
X35269642Y-69694357D01*
X35155357Y-69637214D01*
X35098214Y-69580071D01*
X35041071Y-69465785D01*
X35041071Y-69351500D01*
X35098214Y-69237214D01*
X35155357Y-69180071D01*
X35269642Y-69122928D01*
X35498214Y-69065785D01*
X35612500Y-69008642D01*
X35669642Y-68951500D01*
X35726785Y-68837214D01*
X35726785Y-68722928D01*
X35669642Y-68608642D01*
X35612500Y-68551500D01*
X35498214Y-68494357D01*
X35212500Y-68494357D01*
X35041071Y-68551500D01*
X34698214Y-68494357D02*
X34012500Y-68494357D01*
X34355357Y-69694357D02*
X34355357Y-68494357D01*
X33612500Y-69694357D02*
X33612500Y-68494357D01*
X33212499Y-69351500D01*
X32812499Y-68494357D01*
X32812499Y-69694357D01*
X31726785Y-68894357D02*
X31726785Y-69694357D01*
X32012500Y-68437214D02*
X32298214Y-69294357D01*
X31555357Y-69294357D01*
X30869642Y-68494357D02*
X30755357Y-68494357D01*
X30641071Y-68551500D01*
X30583928Y-68608642D01*
X30526785Y-68722928D01*
X30469642Y-68951500D01*
X30469642Y-69237214D01*
X30526785Y-69465785D01*
X30583928Y-69580071D01*
X30641071Y-69637214D01*
X30755357Y-69694357D01*
X30869642Y-69694357D01*
X30983928Y-69637214D01*
X31041071Y-69580071D01*
X31098214Y-69465785D01*
X31155357Y-69237214D01*
X31155357Y-68951500D01*
X31098214Y-68722928D01*
X31041071Y-68608642D01*
X30983928Y-68551500D01*
X30869642Y-68494357D01*
X30069642Y-68494357D02*
X29269642Y-68494357D01*
X29783928Y-69694357D01*
X28412500Y-69065785D02*
X28812500Y-69065785D01*
X28812500Y-69694357D02*
X28812500Y-68494357D01*
X28241071Y-68494357D01*
X27269642Y-68894357D02*
X27269642Y-69694357D01*
X27555357Y-68437214D02*
X27841071Y-69294357D01*
X27098214Y-69294357D01*
X26412500Y-68494357D02*
X26298214Y-68494357D01*
X26183928Y-68551500D01*
X26126785Y-68608642D01*
X26069642Y-68722928D01*
X26012500Y-68951500D01*
X26012500Y-69237214D01*
X26069642Y-69465785D01*
X26126785Y-69580071D01*
X26183928Y-69637214D01*
X26298214Y-69694357D01*
X26412500Y-69694357D01*
X26526785Y-69637214D01*
X26583928Y-69580071D01*
X26641071Y-69465785D01*
X26698214Y-69237214D01*
X26698214Y-68951500D01*
X26641071Y-68722928D01*
X26583928Y-68608642D01*
X26526785Y-68551500D01*
X26412500Y-68494357D01*
X25612500Y-68494357D02*
X24812500Y-68494357D01*
X25326785Y-69694357D01*
X24469642Y-68494357D02*
X23669642Y-68494357D01*
X24469642Y-69694357D01*
X23669642Y-69694357D01*
X23212500Y-69065785D02*
X22812500Y-69065785D01*
X22641071Y-69694357D02*
X23212500Y-69694357D01*
X23212500Y-68494357D01*
X22641071Y-68494357D01*
X21269642Y-68437214D02*
X22298214Y-69980071D01*
X20983928Y-68494357D02*
X20183928Y-68494357D01*
X20983928Y-69694357D01*
X20183928Y-69694357D01*
X19098214Y-68551500D02*
X19212500Y-68494357D01*
X19383928Y-68494357D01*
X19555357Y-68551500D01*
X19669642Y-68665785D01*
X19726785Y-68780071D01*
X19783928Y-69008642D01*
X19783928Y-69180071D01*
X19726785Y-69408642D01*
X19669642Y-69522928D01*
X19555357Y-69637214D01*
X19383928Y-69694357D01*
X19269642Y-69694357D01*
X19098214Y-69637214D01*
X19041071Y-69580071D01*
X19041071Y-69180071D01*
X19269642Y-69180071D01*
X17212500Y-69065785D02*
X17041071Y-69122928D01*
X16983928Y-69180071D01*
X16926785Y-69294357D01*
X16926785Y-69465785D01*
X16983928Y-69580071D01*
X17041071Y-69637214D01*
X17155357Y-69694357D01*
X17612500Y-69694357D01*
X17612500Y-68494357D01*
X17212500Y-68494357D01*
X17098214Y-68551500D01*
X17041071Y-68608642D01*
X16983928Y-68722928D01*
X16983928Y-68837214D01*
X17041071Y-68951500D01*
X17098214Y-69008642D01*
X17212500Y-69065785D01*
X17612500Y-69065785D01*
X16241071Y-69694357D02*
X16355357Y-69637214D01*
X16412500Y-69522928D01*
X16412500Y-68494357D01*
X15269642Y-69694357D02*
X15269642Y-69065785D01*
X15326785Y-68951500D01*
X15441071Y-68894357D01*
X15669642Y-68894357D01*
X15783928Y-68951500D01*
X15269642Y-69637214D02*
X15383928Y-69694357D01*
X15669642Y-69694357D01*
X15783928Y-69637214D01*
X15841071Y-69522928D01*
X15841071Y-69408642D01*
X15783928Y-69294357D01*
X15669642Y-69237214D01*
X15383928Y-69237214D01*
X15269642Y-69180071D01*
X14183928Y-69637214D02*
X14298214Y-69694357D01*
X14526785Y-69694357D01*
X14641071Y-69637214D01*
X14698214Y-69580071D01*
X14755357Y-69465785D01*
X14755357Y-69122928D01*
X14698214Y-69008642D01*
X14641071Y-68951500D01*
X14526785Y-68894357D01*
X14298214Y-68894357D01*
X14183928Y-68951500D01*
X13669642Y-69694357D02*
X13669642Y-68494357D01*
X13555357Y-69237214D02*
X13212500Y-69694357D01*
X13212500Y-68894357D02*
X13669642Y-69351500D01*
X11783928Y-69694357D02*
X11783928Y-68494357D01*
X11783928Y-68951500D02*
X11669642Y-68894357D01*
X11441071Y-68894357D01*
X11326785Y-68951500D01*
X11269642Y-69008642D01*
X11212500Y-69122928D01*
X11212500Y-69465785D01*
X11269642Y-69580071D01*
X11326785Y-69637214D01*
X11441071Y-69694357D01*
X11669642Y-69694357D01*
X11783928Y-69637214D01*
X10526785Y-69694357D02*
X10641071Y-69637214D01*
X10698214Y-69580071D01*
X10755357Y-69465785D01*
X10755357Y-69122928D01*
X10698214Y-69008642D01*
X10641071Y-68951500D01*
X10526785Y-68894357D01*
X10355357Y-68894357D01*
X10241071Y-68951500D01*
X10183928Y-69008642D01*
X10126785Y-69122928D01*
X10126785Y-69465785D01*
X10183928Y-69580071D01*
X10241071Y-69637214D01*
X10355357Y-69694357D01*
X10526785Y-69694357D01*
X9098214Y-69694357D02*
X9098214Y-69065785D01*
X9155357Y-68951500D01*
X9269642Y-68894357D01*
X9498214Y-68894357D01*
X9612500Y-68951500D01*
X9098214Y-69637214D02*
X9212500Y-69694357D01*
X9498214Y-69694357D01*
X9612500Y-69637214D01*
X9669642Y-69522928D01*
X9669642Y-69408642D01*
X9612500Y-69294357D01*
X9498214Y-69237214D01*
X9212500Y-69237214D01*
X9098214Y-69180071D01*
X8526785Y-69694357D02*
X8526785Y-68894357D01*
X8526785Y-69122928D02*
X8469642Y-69008642D01*
X8412500Y-68951500D01*
X8298214Y-68894357D01*
X8183928Y-68894357D01*
X7269642Y-69694357D02*
X7269642Y-68494357D01*
X7269642Y-69637214D02*
X7383928Y-69694357D01*
X7612500Y-69694357D01*
X7726785Y-69637214D01*
X7783928Y-69580071D01*
X7841071Y-69465785D01*
X7841071Y-69122928D01*
X7783928Y-69008642D01*
X7726785Y-68951500D01*
X7612500Y-68894357D01*
X7383928Y-68894357D01*
X7269642Y-68951500D01*
X5898214Y-68894357D02*
X5612500Y-69694357D01*
X5326785Y-68894357D01*
X3326785Y-69694357D02*
X4012500Y-69694357D01*
X3669642Y-69694357D02*
X3669642Y-68494357D01*
X3783928Y-68665785D01*
X3898214Y-68780071D01*
X4012500Y-68837214D01*
X2812500Y-69580071D02*
X2755357Y-69637214D01*
X2812500Y-69694357D01*
X2869642Y-69637214D01*
X2812500Y-69580071D01*
X2812500Y-69694357D01*
X2012500Y-68494357D02*
X1898214Y-68494357D01*
X1783928Y-68551500D01*
X1726785Y-68608642D01*
X1669642Y-68722928D01*
X1612500Y-68951500D01*
X1612500Y-69237214D01*
X1669642Y-69465785D01*
X1726785Y-69580071D01*
X1783928Y-69637214D01*
X1898214Y-69694357D01*
X2012500Y-69694357D01*
X2126785Y-69637214D01*
X2183928Y-69580071D01*
X2241071Y-69465785D01*
X2298214Y-69237214D01*
X2298214Y-68951500D01*
X2241071Y-68722928D01*
X2183928Y-68608642D01*
X2126785Y-68551500D01*
X2012500Y-68494357D01*
X64890690Y-56762285D02*
X64852595Y-56648000D01*
X64852595Y-56457523D01*
X64890690Y-56381333D01*
X64928785Y-56343238D01*
X65004976Y-56305142D01*
X65081166Y-56305142D01*
X65157357Y-56343238D01*
X65195452Y-56381333D01*
X65233547Y-56457523D01*
X65271642Y-56609904D01*
X65309738Y-56686095D01*
X65347833Y-56724190D01*
X65424023Y-56762285D01*
X65500214Y-56762285D01*
X65576404Y-56724190D01*
X65614500Y-56686095D01*
X65652595Y-56609904D01*
X65652595Y-56419428D01*
X65614500Y-56305142D01*
X64852595Y-55962285D02*
X65652595Y-55962285D01*
X65652595Y-55771809D01*
X65614500Y-55657523D01*
X65538309Y-55581333D01*
X65462119Y-55543238D01*
X65309738Y-55505142D01*
X65195452Y-55505142D01*
X65043071Y-55543238D01*
X64966880Y-55581333D01*
X64890690Y-55657523D01*
X64852595Y-55771809D01*
X64852595Y-55962285D01*
X64852595Y-55162285D02*
X65652595Y-55162285D01*
X65652595Y-54628952D02*
X65652595Y-54476571D01*
X65614500Y-54400380D01*
X65538309Y-54324190D01*
X65385928Y-54286095D01*
X65119261Y-54286095D01*
X64966880Y-54324190D01*
X64890690Y-54400380D01*
X64852595Y-54476571D01*
X64852595Y-54628952D01*
X64890690Y-54705142D01*
X64966880Y-54781333D01*
X65119261Y-54819428D01*
X65385928Y-54819428D01*
X65538309Y-54781333D01*
X65614500Y-54705142D01*
X65652595Y-54628952D01*
X64928785Y-52876571D02*
X64890690Y-52914666D01*
X64852595Y-53028952D01*
X64852595Y-53105142D01*
X64890690Y-53219428D01*
X64966880Y-53295619D01*
X65043071Y-53333714D01*
X65195452Y-53371809D01*
X65309738Y-53371809D01*
X65462119Y-53333714D01*
X65538309Y-53295619D01*
X65614500Y-53219428D01*
X65652595Y-53105142D01*
X65652595Y-53028952D01*
X65614500Y-52914666D01*
X65576404Y-52876571D01*
X64852595Y-52190857D02*
X65271642Y-52190857D01*
X65347833Y-52228952D01*
X65385928Y-52305142D01*
X65385928Y-52457523D01*
X65347833Y-52533714D01*
X64890690Y-52190857D02*
X64852595Y-52267047D01*
X64852595Y-52457523D01*
X64890690Y-52533714D01*
X64966880Y-52571809D01*
X65043071Y-52571809D01*
X65119261Y-52533714D01*
X65157357Y-52457523D01*
X65157357Y-52267047D01*
X65195452Y-52190857D01*
X64852595Y-51809904D02*
X65385928Y-51809904D01*
X65233547Y-51809904D02*
X65309738Y-51771809D01*
X65347833Y-51733714D01*
X65385928Y-51657523D01*
X65385928Y-51581333D01*
X64852595Y-50971809D02*
X65652595Y-50971809D01*
X64890690Y-50971809D02*
X64852595Y-51048000D01*
X64852595Y-51200380D01*
X64890690Y-51276571D01*
X64928785Y-51314666D01*
X65004976Y-51352761D01*
X65233547Y-51352761D01*
X65309738Y-51314666D01*
X65347833Y-51276571D01*
X65385928Y-51200380D01*
X65385928Y-51048000D01*
X65347833Y-50971809D01*
X67475467Y-44765528D02*
X67475467Y-44819403D01*
X67529342Y-44927153D01*
X67583217Y-44981028D01*
X67690967Y-45034902D01*
X67798716Y-45034902D01*
X67879528Y-45007965D01*
X68014215Y-44927153D01*
X68095028Y-44846341D01*
X68175840Y-44711654D01*
X68202777Y-44630841D01*
X68202777Y-44523092D01*
X68148902Y-44415342D01*
X68095028Y-44361467D01*
X67987278Y-44307593D01*
X67933403Y-44307593D01*
X67179156Y-44576967D02*
X67744841Y-44011281D01*
X67152219Y-44226780D01*
X67367718Y-43634158D01*
X66802032Y-44199843D01*
X66532658Y-43930469D02*
X67098344Y-43364784D01*
X66963657Y-43230097D01*
X66855907Y-43176222D01*
X66748158Y-43176222D01*
X66667345Y-43203159D01*
X66532658Y-43283971D01*
X66451846Y-43364784D01*
X66371034Y-43499471D01*
X66344097Y-43580283D01*
X66344097Y-43688032D01*
X66397971Y-43795782D01*
X66532658Y-43930469D01*
X67471624Y-32105935D02*
X68037309Y-31540249D01*
X67902622Y-31405562D01*
X67794873Y-31351687D01*
X67687123Y-31351687D01*
X67606311Y-31378625D01*
X67471624Y-31459437D01*
X67390812Y-31540249D01*
X67310000Y-31674936D01*
X67283062Y-31755748D01*
X67283062Y-31863498D01*
X67336937Y-31971248D01*
X67471624Y-32105935D01*
X66609627Y-31243938D02*
X66932876Y-31567187D01*
X66771251Y-31405562D02*
X67336937Y-30839877D01*
X67310000Y-30974564D01*
X67310000Y-31082313D01*
X67336937Y-31163125D01*
X68343246Y-30193182D02*
X68235496Y-30139307D01*
X68100809Y-30004620D01*
X68073872Y-29923808D01*
X68073872Y-29869933D01*
X68100809Y-29789121D01*
X68154684Y-29735246D01*
X68235496Y-29708309D01*
X68289371Y-29708309D01*
X68370183Y-29735246D01*
X68504870Y-29816058D01*
X68585683Y-29842996D01*
X68639557Y-29842996D01*
X68720370Y-29816058D01*
X68774244Y-29762183D01*
X68801182Y-29681371D01*
X68801182Y-29627496D01*
X68774244Y-29546684D01*
X68639557Y-29411997D01*
X68531808Y-29358122D01*
X67750623Y-29654434D02*
X68316309Y-29088748D01*
X68181622Y-28954061D01*
X68073872Y-28900187D01*
X67966122Y-28900187D01*
X67885310Y-28927124D01*
X67750623Y-29007936D01*
X67669811Y-29088748D01*
X67588999Y-29223435D01*
X67562061Y-29304248D01*
X67562061Y-29411997D01*
X67615936Y-29519747D01*
X67750623Y-29654434D01*
X67184938Y-29088748D02*
X67750623Y-28523063D01*
X67615936Y-28388376D01*
X67508187Y-28334501D01*
X67400437Y-28334501D01*
X67319625Y-28361438D01*
X67184938Y-28442251D01*
X67104125Y-28523063D01*
X67023313Y-28657750D01*
X66996376Y-28738562D01*
X66996376Y-28846312D01*
X67050251Y-28954061D01*
X67184938Y-29088748D01*
X66915564Y-28226751D02*
X66727002Y-28038190D01*
X66349878Y-28253689D02*
X66619252Y-28523063D01*
X67184938Y-27957377D01*
X66915564Y-27688003D01*
X66753939Y-27526379D02*
X66430690Y-27203130D01*
X66026629Y-27930440D02*
X66592315Y-27364755D01*
X67408124Y-34709435D02*
X67973809Y-34143749D01*
X67839122Y-34009062D01*
X67731373Y-33955187D01*
X67623623Y-33955187D01*
X67542811Y-33982125D01*
X67408124Y-34062937D01*
X67327312Y-34143749D01*
X67246500Y-34278436D01*
X67219562Y-34359248D01*
X67219562Y-34466998D01*
X67273437Y-34574748D01*
X67408124Y-34709435D01*
X67300374Y-33470314D02*
X67246500Y-33416439D01*
X67165687Y-33389502D01*
X67111812Y-33389502D01*
X67031000Y-33416439D01*
X66896313Y-33497251D01*
X66761626Y-33631938D01*
X66680814Y-33766625D01*
X66653877Y-33847438D01*
X66653877Y-33901312D01*
X66680814Y-33982125D01*
X66734689Y-34036000D01*
X66815501Y-34062937D01*
X66869376Y-34062937D01*
X66950188Y-34036000D01*
X67084875Y-33955187D01*
X67219562Y-33820500D01*
X67300374Y-33685813D01*
X67327312Y-33605001D01*
X67327312Y-33551126D01*
X67300374Y-33470314D01*
X67808341Y-40008777D02*
X67700592Y-39954902D01*
X67565905Y-39820215D01*
X67538967Y-39739403D01*
X67538967Y-39685528D01*
X67565905Y-39604716D01*
X67619780Y-39550841D01*
X67700592Y-39523904D01*
X67754467Y-39523904D01*
X67835279Y-39550841D01*
X67969966Y-39631654D01*
X68050778Y-39658591D01*
X68104653Y-39658591D01*
X68185465Y-39631654D01*
X68239340Y-39577779D01*
X68266277Y-39496967D01*
X68266277Y-39443092D01*
X68239340Y-39362280D01*
X68104653Y-39227593D01*
X67996903Y-39173718D01*
X66946345Y-39092906D02*
X66946345Y-39146780D01*
X67000219Y-39254530D01*
X67054094Y-39308405D01*
X67161844Y-39362280D01*
X67269593Y-39362280D01*
X67350406Y-39335342D01*
X67485093Y-39254530D01*
X67565905Y-39173718D01*
X67646717Y-39039031D01*
X67673654Y-38958219D01*
X67673654Y-38850469D01*
X67619780Y-38742719D01*
X67565905Y-38688845D01*
X67458155Y-38634970D01*
X67404280Y-38634970D01*
X66650033Y-38904344D02*
X67215719Y-38338658D01*
X66326784Y-38581095D02*
X66892470Y-38500283D01*
X66892470Y-38015410D02*
X66892470Y-38661907D01*
X73278904Y-68078404D02*
X72745571Y-68078404D01*
X73278904Y-68878404D01*
X72745571Y-68878404D01*
X72440809Y-68573642D02*
X71831285Y-68573642D01*
X73031285Y-65576500D02*
X73107476Y-65538404D01*
X73221761Y-65538404D01*
X73336047Y-65576500D01*
X73412238Y-65652690D01*
X73450333Y-65728880D01*
X73488428Y-65881261D01*
X73488428Y-65995547D01*
X73450333Y-66147928D01*
X73412238Y-66224119D01*
X73336047Y-66300309D01*
X73221761Y-66338404D01*
X73145571Y-66338404D01*
X73031285Y-66300309D01*
X72993190Y-66262214D01*
X72993190Y-65995547D01*
X73145571Y-65995547D01*
X72650333Y-65805071D02*
X72650333Y-66338404D01*
X72650333Y-65881261D02*
X72612238Y-65843166D01*
X72536047Y-65805071D01*
X72421761Y-65805071D01*
X72345571Y-65843166D01*
X72307476Y-65919357D01*
X72307476Y-66338404D01*
X71583666Y-66338404D02*
X71583666Y-65538404D01*
X71583666Y-66300309D02*
X71659857Y-66338404D01*
X71812238Y-66338404D01*
X71888428Y-66300309D01*
X71926523Y-66262214D01*
X71964619Y-66186023D01*
X71964619Y-65957452D01*
X71926523Y-65881261D01*
X71888428Y-65843166D01*
X71812238Y-65805071D01*
X71659857Y-65805071D01*
X71583666Y-65843166D01*
X41878095Y-50950880D02*
X41259047Y-50950880D01*
X41592380Y-51331833D01*
X41449523Y-51331833D01*
X41354285Y-51379452D01*
X41306666Y-51427071D01*
X41259047Y-51522309D01*
X41259047Y-51760404D01*
X41306666Y-51855642D01*
X41354285Y-51903261D01*
X41449523Y-51950880D01*
X41735238Y-51950880D01*
X41830476Y-51903261D01*
X41878095Y-51855642D01*
X40973333Y-50950880D02*
X40640000Y-51950880D01*
X40306666Y-50950880D01*
X40068571Y-50950880D02*
X39449523Y-50950880D01*
X39782857Y-51331833D01*
X39640000Y-51331833D01*
X39544761Y-51379452D01*
X39497142Y-51427071D01*
X39449523Y-51522309D01*
X39449523Y-51760404D01*
X39497142Y-51855642D01*
X39544761Y-51903261D01*
X39640000Y-51950880D01*
X39925714Y-51950880D01*
X40020952Y-51903261D01*
X40068571Y-51855642D01*
X17805380Y-62617404D02*
X18186333Y-62617404D01*
X18224428Y-62998357D01*
X18186333Y-62960261D01*
X18110142Y-62922166D01*
X17919666Y-62922166D01*
X17843476Y-62960261D01*
X17805380Y-62998357D01*
X17767285Y-63074547D01*
X17767285Y-63265023D01*
X17805380Y-63341214D01*
X17843476Y-63379309D01*
X17919666Y-63417404D01*
X18110142Y-63417404D01*
X18186333Y-63379309D01*
X18224428Y-63341214D01*
X17538714Y-62617404D02*
X17272047Y-63417404D01*
X17005380Y-62617404D01*
X80035380Y-24961904D02*
X80416333Y-24961904D01*
X80454428Y-25342857D01*
X80416333Y-25304761D01*
X80340142Y-25266666D01*
X80149666Y-25266666D01*
X80073476Y-25304761D01*
X80035380Y-25342857D01*
X79997285Y-25419047D01*
X79997285Y-25609523D01*
X80035380Y-25685714D01*
X80073476Y-25723809D01*
X80149666Y-25761904D01*
X80340142Y-25761904D01*
X80416333Y-25723809D01*
X80454428Y-25685714D01*
X79768714Y-24961904D02*
X79502047Y-25761904D01*
X79235380Y-24961904D01*
X31787714Y-12833404D02*
X31521047Y-13633404D01*
X31254380Y-12833404D01*
X30987714Y-13633404D02*
X30987714Y-12833404D01*
X30606761Y-13633404D02*
X30606761Y-12833404D01*
X30149619Y-13633404D01*
X30149619Y-12833404D01*
X29159142Y-13328642D02*
X28549619Y-13328642D01*
X27597238Y-12909595D02*
X27559142Y-12871500D01*
X27482952Y-12833404D01*
X27292476Y-12833404D01*
X27216285Y-12871500D01*
X27178190Y-12909595D01*
X27140095Y-12985785D01*
X27140095Y-13061976D01*
X27178190Y-13176261D01*
X27635333Y-13633404D01*
X27140095Y-13633404D01*
X26454380Y-13100071D02*
X26454380Y-13633404D01*
X26644857Y-12795309D02*
X26835333Y-13366738D01*
X26340095Y-13366738D01*
X26149619Y-12833404D02*
X25882952Y-13633404D01*
X25616285Y-12833404D01*
X76111023Y-18523000D02*
X76187214Y-18484904D01*
X76301500Y-18484904D01*
X76415785Y-18523000D01*
X76491976Y-18599190D01*
X76530071Y-18675380D01*
X76568166Y-18827761D01*
X76568166Y-18942047D01*
X76530071Y-19094428D01*
X76491976Y-19170619D01*
X76415785Y-19246809D01*
X76301500Y-19284904D01*
X76225309Y-19284904D01*
X76111023Y-19246809D01*
X76072928Y-19208714D01*
X76072928Y-18942047D01*
X76225309Y-18942047D01*
X75730071Y-19284904D02*
X75730071Y-18484904D01*
X75272928Y-19284904D01*
X75272928Y-18484904D01*
X74891976Y-19284904D02*
X74891976Y-18484904D01*
X74701500Y-18484904D01*
X74587214Y-18523000D01*
X74511023Y-18599190D01*
X74472928Y-18675380D01*
X74434833Y-18827761D01*
X74434833Y-18942047D01*
X74472928Y-19094428D01*
X74511023Y-19170619D01*
X74587214Y-19246809D01*
X74701500Y-19284904D01*
X74891976Y-19284904D01*
X68491023Y-18523000D02*
X68567214Y-18484904D01*
X68681500Y-18484904D01*
X68795785Y-18523000D01*
X68871976Y-18599190D01*
X68910071Y-18675380D01*
X68948166Y-18827761D01*
X68948166Y-18942047D01*
X68910071Y-19094428D01*
X68871976Y-19170619D01*
X68795785Y-19246809D01*
X68681500Y-19284904D01*
X68605309Y-19284904D01*
X68491023Y-19246809D01*
X68452928Y-19208714D01*
X68452928Y-18942047D01*
X68605309Y-18942047D01*
X68110071Y-19284904D02*
X68110071Y-18484904D01*
X67652928Y-19284904D01*
X67652928Y-18484904D01*
X67271976Y-19284904D02*
X67271976Y-18484904D01*
X67081500Y-18484904D01*
X66967214Y-18523000D01*
X66891023Y-18599190D01*
X66852928Y-18675380D01*
X66814833Y-18827761D01*
X66814833Y-18942047D01*
X66852928Y-19094428D01*
X66891023Y-19170619D01*
X66967214Y-19246809D01*
X67081500Y-19284904D01*
X67271976Y-19284904D01*
X60934523Y-18523000D02*
X61010714Y-18484904D01*
X61125000Y-18484904D01*
X61239285Y-18523000D01*
X61315476Y-18599190D01*
X61353571Y-18675380D01*
X61391666Y-18827761D01*
X61391666Y-18942047D01*
X61353571Y-19094428D01*
X61315476Y-19170619D01*
X61239285Y-19246809D01*
X61125000Y-19284904D01*
X61048809Y-19284904D01*
X60934523Y-19246809D01*
X60896428Y-19208714D01*
X60896428Y-18942047D01*
X61048809Y-18942047D01*
X60553571Y-19284904D02*
X60553571Y-18484904D01*
X60096428Y-19284904D01*
X60096428Y-18484904D01*
X59715476Y-19284904D02*
X59715476Y-18484904D01*
X59525000Y-18484904D01*
X59410714Y-18523000D01*
X59334523Y-18599190D01*
X59296428Y-18675380D01*
X59258333Y-18827761D01*
X59258333Y-18942047D01*
X59296428Y-19094428D01*
X59334523Y-19170619D01*
X59410714Y-19246809D01*
X59525000Y-19284904D01*
X59715476Y-19284904D01*
X53314523Y-18523000D02*
X53390714Y-18484904D01*
X53505000Y-18484904D01*
X53619285Y-18523000D01*
X53695476Y-18599190D01*
X53733571Y-18675380D01*
X53771666Y-18827761D01*
X53771666Y-18942047D01*
X53733571Y-19094428D01*
X53695476Y-19170619D01*
X53619285Y-19246809D01*
X53505000Y-19284904D01*
X53428809Y-19284904D01*
X53314523Y-19246809D01*
X53276428Y-19208714D01*
X53276428Y-18942047D01*
X53428809Y-18942047D01*
X52933571Y-19284904D02*
X52933571Y-18484904D01*
X52476428Y-19284904D01*
X52476428Y-18484904D01*
X52095476Y-19284904D02*
X52095476Y-18484904D01*
X51905000Y-18484904D01*
X51790714Y-18523000D01*
X51714523Y-18599190D01*
X51676428Y-18675380D01*
X51638333Y-18827761D01*
X51638333Y-18942047D01*
X51676428Y-19094428D01*
X51714523Y-19170619D01*
X51790714Y-19246809D01*
X51905000Y-19284904D01*
X52095476Y-19284904D01*
X55873571Y-18484904D02*
X55416428Y-18484904D01*
X55645000Y-19284904D02*
X55645000Y-18484904D01*
X54692619Y-19208714D02*
X54730714Y-19246809D01*
X54845000Y-19284904D01*
X54921190Y-19284904D01*
X55035476Y-19246809D01*
X55111666Y-19170619D01*
X55149761Y-19094428D01*
X55187857Y-18942047D01*
X55187857Y-18827761D01*
X55149761Y-18675380D01*
X55111666Y-18599190D01*
X55035476Y-18523000D01*
X54921190Y-18484904D01*
X54845000Y-18484904D01*
X54730714Y-18523000D01*
X54692619Y-18561095D01*
X63493571Y-18484904D02*
X63036428Y-18484904D01*
X63265000Y-19284904D02*
X63265000Y-18484904D01*
X62503095Y-18865857D02*
X62388809Y-18903952D01*
X62350714Y-18942047D01*
X62312619Y-19018238D01*
X62312619Y-19132523D01*
X62350714Y-19208714D01*
X62388809Y-19246809D01*
X62465000Y-19284904D01*
X62769761Y-19284904D01*
X62769761Y-18484904D01*
X62503095Y-18484904D01*
X62426904Y-18523000D01*
X62388809Y-18561095D01*
X62350714Y-18637285D01*
X62350714Y-18713476D01*
X62388809Y-18789666D01*
X62426904Y-18827761D01*
X62503095Y-18865857D01*
X62769761Y-18865857D01*
X71031023Y-18421404D02*
X70573880Y-18421404D01*
X70802452Y-19221404D02*
X70802452Y-18421404D01*
X69888166Y-19221404D02*
X70345309Y-19221404D01*
X70116738Y-19221404D02*
X70116738Y-18421404D01*
X70192928Y-18535690D01*
X70269119Y-18611880D01*
X70345309Y-18649976D01*
X78651023Y-18484904D02*
X78193880Y-18484904D01*
X78422452Y-19284904D02*
X78422452Y-18484904D01*
X77774833Y-18484904D02*
X77698642Y-18484904D01*
X77622452Y-18523000D01*
X77584357Y-18561095D01*
X77546261Y-18637285D01*
X77508166Y-18789666D01*
X77508166Y-18980142D01*
X77546261Y-19132523D01*
X77584357Y-19208714D01*
X77622452Y-19246809D01*
X77698642Y-19284904D01*
X77774833Y-19284904D01*
X77851023Y-19246809D01*
X77889119Y-19208714D01*
X77927214Y-19132523D01*
X77965309Y-18980142D01*
X77965309Y-18789666D01*
X77927214Y-18637285D01*
X77889119Y-18561095D01*
X77851023Y-18523000D01*
X77774833Y-18484904D01*
X80289380Y-62998404D02*
X80670333Y-62998404D01*
X80708428Y-63379357D01*
X80670333Y-63341261D01*
X80594142Y-63303166D01*
X80403666Y-63303166D01*
X80327476Y-63341261D01*
X80289380Y-63379357D01*
X80251285Y-63455547D01*
X80251285Y-63646023D01*
X80289380Y-63722214D01*
X80327476Y-63760309D01*
X80403666Y-63798404D01*
X80594142Y-63798404D01*
X80670333Y-63760309D01*
X80708428Y-63722214D01*
X80022714Y-62998404D02*
X79756047Y-63798404D01*
X79489380Y-62998404D01*
X72669380Y-62998404D02*
X73050333Y-62998404D01*
X73088428Y-63379357D01*
X73050333Y-63341261D01*
X72974142Y-63303166D01*
X72783666Y-63303166D01*
X72707476Y-63341261D01*
X72669380Y-63379357D01*
X72631285Y-63455547D01*
X72631285Y-63646023D01*
X72669380Y-63722214D01*
X72707476Y-63760309D01*
X72783666Y-63798404D01*
X72974142Y-63798404D01*
X73050333Y-63760309D01*
X73088428Y-63722214D01*
X72402714Y-62998404D02*
X72136047Y-63798404D01*
X71869380Y-62998404D01*
X72669380Y-52838404D02*
X73050333Y-52838404D01*
X73088428Y-53219357D01*
X73050333Y-53181261D01*
X72974142Y-53143166D01*
X72783666Y-53143166D01*
X72707476Y-53181261D01*
X72669380Y-53219357D01*
X72631285Y-53295547D01*
X72631285Y-53486023D01*
X72669380Y-53562214D01*
X72707476Y-53600309D01*
X72783666Y-53638404D01*
X72974142Y-53638404D01*
X73050333Y-53600309D01*
X73088428Y-53562214D01*
X72402714Y-52838404D02*
X72136047Y-53638404D01*
X71869380Y-52838404D01*
X80289380Y-52838404D02*
X80670333Y-52838404D01*
X80708428Y-53219357D01*
X80670333Y-53181261D01*
X80594142Y-53143166D01*
X80403666Y-53143166D01*
X80327476Y-53181261D01*
X80289380Y-53219357D01*
X80251285Y-53295547D01*
X80251285Y-53486023D01*
X80289380Y-53562214D01*
X80327476Y-53600309D01*
X80403666Y-53638404D01*
X80594142Y-53638404D01*
X80670333Y-53600309D01*
X80708428Y-53562214D01*
X80022714Y-52838404D02*
X79756047Y-53638404D01*
X79489380Y-52838404D01*
X80289380Y-42678404D02*
X80670333Y-42678404D01*
X80708428Y-43059357D01*
X80670333Y-43021261D01*
X80594142Y-42983166D01*
X80403666Y-42983166D01*
X80327476Y-43021261D01*
X80289380Y-43059357D01*
X80251285Y-43135547D01*
X80251285Y-43326023D01*
X80289380Y-43402214D01*
X80327476Y-43440309D01*
X80403666Y-43478404D01*
X80594142Y-43478404D01*
X80670333Y-43440309D01*
X80708428Y-43402214D01*
X80022714Y-42678404D02*
X79756047Y-43478404D01*
X79489380Y-42678404D01*
X72669380Y-42678404D02*
X73050333Y-42678404D01*
X73088428Y-43059357D01*
X73050333Y-43021261D01*
X72974142Y-42983166D01*
X72783666Y-42983166D01*
X72707476Y-43021261D01*
X72669380Y-43059357D01*
X72631285Y-43135547D01*
X72631285Y-43326023D01*
X72669380Y-43402214D01*
X72707476Y-43440309D01*
X72783666Y-43478404D01*
X72974142Y-43478404D01*
X73050333Y-43440309D01*
X73088428Y-43402214D01*
X72402714Y-42678404D02*
X72136047Y-43478404D01*
X71869380Y-42678404D01*
X73031285Y-45256500D02*
X73107476Y-45218404D01*
X73221761Y-45218404D01*
X73336047Y-45256500D01*
X73412238Y-45332690D01*
X73450333Y-45408880D01*
X73488428Y-45561261D01*
X73488428Y-45675547D01*
X73450333Y-45827928D01*
X73412238Y-45904119D01*
X73336047Y-45980309D01*
X73221761Y-46018404D01*
X73145571Y-46018404D01*
X73031285Y-45980309D01*
X72993190Y-45942214D01*
X72993190Y-45675547D01*
X73145571Y-45675547D01*
X72650333Y-45485071D02*
X72650333Y-46018404D01*
X72650333Y-45561261D02*
X72612238Y-45523166D01*
X72536047Y-45485071D01*
X72421761Y-45485071D01*
X72345571Y-45523166D01*
X72307476Y-45599357D01*
X72307476Y-46018404D01*
X71583666Y-46018404D02*
X71583666Y-45218404D01*
X71583666Y-45980309D02*
X71659857Y-46018404D01*
X71812238Y-46018404D01*
X71888428Y-45980309D01*
X71926523Y-45942214D01*
X71964619Y-45866023D01*
X71964619Y-45637452D01*
X71926523Y-45561261D01*
X71888428Y-45523166D01*
X71812238Y-45485071D01*
X71659857Y-45485071D01*
X71583666Y-45523166D01*
X80651285Y-45256500D02*
X80727476Y-45218404D01*
X80841761Y-45218404D01*
X80956047Y-45256500D01*
X81032238Y-45332690D01*
X81070333Y-45408880D01*
X81108428Y-45561261D01*
X81108428Y-45675547D01*
X81070333Y-45827928D01*
X81032238Y-45904119D01*
X80956047Y-45980309D01*
X80841761Y-46018404D01*
X80765571Y-46018404D01*
X80651285Y-45980309D01*
X80613190Y-45942214D01*
X80613190Y-45675547D01*
X80765571Y-45675547D01*
X80270333Y-45485071D02*
X80270333Y-46018404D01*
X80270333Y-45561261D02*
X80232238Y-45523166D01*
X80156047Y-45485071D01*
X80041761Y-45485071D01*
X79965571Y-45523166D01*
X79927476Y-45599357D01*
X79927476Y-46018404D01*
X79203666Y-46018404D02*
X79203666Y-45218404D01*
X79203666Y-45980309D02*
X79279857Y-46018404D01*
X79432238Y-46018404D01*
X79508428Y-45980309D01*
X79546523Y-45942214D01*
X79584619Y-45866023D01*
X79584619Y-45637452D01*
X79546523Y-45561261D01*
X79508428Y-45523166D01*
X79432238Y-45485071D01*
X79279857Y-45485071D01*
X79203666Y-45523166D01*
X80651285Y-55416500D02*
X80727476Y-55378404D01*
X80841761Y-55378404D01*
X80956047Y-55416500D01*
X81032238Y-55492690D01*
X81070333Y-55568880D01*
X81108428Y-55721261D01*
X81108428Y-55835547D01*
X81070333Y-55987928D01*
X81032238Y-56064119D01*
X80956047Y-56140309D01*
X80841761Y-56178404D01*
X80765571Y-56178404D01*
X80651285Y-56140309D01*
X80613190Y-56102214D01*
X80613190Y-55835547D01*
X80765571Y-55835547D01*
X80270333Y-55645071D02*
X80270333Y-56178404D01*
X80270333Y-55721261D02*
X80232238Y-55683166D01*
X80156047Y-55645071D01*
X80041761Y-55645071D01*
X79965571Y-55683166D01*
X79927476Y-55759357D01*
X79927476Y-56178404D01*
X79203666Y-56178404D02*
X79203666Y-55378404D01*
X79203666Y-56140309D02*
X79279857Y-56178404D01*
X79432238Y-56178404D01*
X79508428Y-56140309D01*
X79546523Y-56102214D01*
X79584619Y-56026023D01*
X79584619Y-55797452D01*
X79546523Y-55721261D01*
X79508428Y-55683166D01*
X79432238Y-55645071D01*
X79279857Y-55645071D01*
X79203666Y-55683166D01*
X73031285Y-55416500D02*
X73107476Y-55378404D01*
X73221761Y-55378404D01*
X73336047Y-55416500D01*
X73412238Y-55492690D01*
X73450333Y-55568880D01*
X73488428Y-55721261D01*
X73488428Y-55835547D01*
X73450333Y-55987928D01*
X73412238Y-56064119D01*
X73336047Y-56140309D01*
X73221761Y-56178404D01*
X73145571Y-56178404D01*
X73031285Y-56140309D01*
X72993190Y-56102214D01*
X72993190Y-55835547D01*
X73145571Y-55835547D01*
X72650333Y-55645071D02*
X72650333Y-56178404D01*
X72650333Y-55721261D02*
X72612238Y-55683166D01*
X72536047Y-55645071D01*
X72421761Y-55645071D01*
X72345571Y-55683166D01*
X72307476Y-55759357D01*
X72307476Y-56178404D01*
X71583666Y-56178404D02*
X71583666Y-55378404D01*
X71583666Y-56140309D02*
X71659857Y-56178404D01*
X71812238Y-56178404D01*
X71888428Y-56140309D01*
X71926523Y-56102214D01*
X71964619Y-56026023D01*
X71964619Y-55797452D01*
X71926523Y-55721261D01*
X71888428Y-55683166D01*
X71812238Y-55645071D01*
X71659857Y-55645071D01*
X71583666Y-55683166D01*
X80651285Y-65576500D02*
X80727476Y-65538404D01*
X80841761Y-65538404D01*
X80956047Y-65576500D01*
X81032238Y-65652690D01*
X81070333Y-65728880D01*
X81108428Y-65881261D01*
X81108428Y-65995547D01*
X81070333Y-66147928D01*
X81032238Y-66224119D01*
X80956047Y-66300309D01*
X80841761Y-66338404D01*
X80765571Y-66338404D01*
X80651285Y-66300309D01*
X80613190Y-66262214D01*
X80613190Y-65995547D01*
X80765571Y-65995547D01*
X80270333Y-65805071D02*
X80270333Y-66338404D01*
X80270333Y-65881261D02*
X80232238Y-65843166D01*
X80156047Y-65805071D01*
X80041761Y-65805071D01*
X79965571Y-65843166D01*
X79927476Y-65919357D01*
X79927476Y-66338404D01*
X79203666Y-66338404D02*
X79203666Y-65538404D01*
X79203666Y-66300309D02*
X79279857Y-66338404D01*
X79432238Y-66338404D01*
X79508428Y-66300309D01*
X79546523Y-66262214D01*
X79584619Y-66186023D01*
X79584619Y-65957452D01*
X79546523Y-65881261D01*
X79508428Y-65843166D01*
X79432238Y-65805071D01*
X79279857Y-65805071D01*
X79203666Y-65843166D01*
X80898903Y-47758404D02*
X80365570Y-48558404D01*
X80365570Y-47758404D02*
X80898903Y-48558404D01*
X80060808Y-48253642D02*
X79451284Y-48253642D01*
X79756046Y-48558404D02*
X79756046Y-47948880D01*
X80632237Y-58337452D02*
X80632237Y-58718404D01*
X80898903Y-57918404D02*
X80632237Y-58337452D01*
X80365570Y-57918404D01*
X80098903Y-58413642D02*
X79489379Y-58413642D01*
X79794141Y-58718404D02*
X79794141Y-58108880D01*
X73278904Y-47758404D02*
X72745571Y-48558404D01*
X72745571Y-47758404D02*
X73278904Y-48558404D01*
X72440809Y-48253642D02*
X71831285Y-48253642D01*
X73012238Y-58337452D02*
X73012238Y-58718404D01*
X73278904Y-57918404D02*
X73012238Y-58337452D01*
X72745571Y-57918404D01*
X72478904Y-58413642D02*
X71869380Y-58413642D01*
X80898904Y-68078404D02*
X80365571Y-68078404D01*
X80898904Y-68878404D01*
X80365571Y-68878404D01*
X80060809Y-68573642D02*
X79451285Y-68573642D01*
X79756047Y-68878404D02*
X79756047Y-68268880D01*
X67408124Y-50012935D02*
X67973809Y-49447249D01*
X67839122Y-49312562D01*
X67731373Y-49258687D01*
X67623623Y-49258687D01*
X67542811Y-49285625D01*
X67408124Y-49366437D01*
X67327312Y-49447249D01*
X67246500Y-49581936D01*
X67219562Y-49662748D01*
X67219562Y-49770498D01*
X67273437Y-49878248D01*
X67408124Y-50012935D01*
X67381187Y-48962376D02*
X67381187Y-48908501D01*
X67354249Y-48827689D01*
X67219562Y-48693002D01*
X67138750Y-48666064D01*
X67084875Y-48666064D01*
X67004063Y-48693002D01*
X66950188Y-48746877D01*
X66896313Y-48854626D01*
X66896313Y-49501124D01*
X66546127Y-49150938D01*
X68383652Y-41983092D02*
X68033466Y-41632906D01*
X68006528Y-42036967D01*
X67925716Y-41956154D01*
X67844904Y-41929217D01*
X67791029Y-41929217D01*
X67710217Y-41956154D01*
X67575530Y-42090841D01*
X67548593Y-42171654D01*
X67548593Y-42225528D01*
X67575530Y-42306341D01*
X67737154Y-42467965D01*
X67817967Y-42494902D01*
X67871841Y-42494902D01*
X67871841Y-41471281D02*
X67117594Y-41848405D01*
X67494718Y-41094158D01*
X67360031Y-40959471D02*
X67009845Y-40609284D01*
X66982907Y-41013345D01*
X66902095Y-40932533D01*
X66821283Y-40905596D01*
X66767408Y-40905596D01*
X66686596Y-40932533D01*
X66551909Y-41067220D01*
X66524971Y-41148032D01*
X66524971Y-41201907D01*
X66551909Y-41282719D01*
X66713533Y-41444344D01*
X66794345Y-41471281D01*
X66848220Y-41471281D01*
X67471624Y-47472935D02*
X68037309Y-46907249D01*
X67902622Y-46772562D01*
X67794873Y-46718687D01*
X67687123Y-46718687D01*
X67606311Y-46745625D01*
X67471624Y-46826437D01*
X67390812Y-46907249D01*
X67310000Y-47041936D01*
X67283062Y-47122748D01*
X67283062Y-47230498D01*
X67336937Y-47338248D01*
X67471624Y-47472935D01*
X67525499Y-46395438D02*
X67175312Y-46045252D01*
X67148375Y-46449313D01*
X67067563Y-46368501D01*
X66986751Y-46341564D01*
X66932876Y-46341564D01*
X66852064Y-46368501D01*
X66717377Y-46503188D01*
X66690439Y-46584000D01*
X66690439Y-46637875D01*
X66717377Y-46718687D01*
X66879001Y-46880312D01*
X66959813Y-46907249D01*
X67013688Y-46907249D01*
X67956497Y-36593312D02*
X68037309Y-36620249D01*
X68118122Y-36701061D01*
X68171996Y-36808811D01*
X68171996Y-36916561D01*
X68145059Y-36997373D01*
X68064247Y-37132060D01*
X67983435Y-37212872D01*
X67848748Y-37293684D01*
X67767935Y-37320622D01*
X67660186Y-37320622D01*
X67552436Y-37266747D01*
X67498561Y-37212872D01*
X67444687Y-37105122D01*
X67444687Y-37051248D01*
X67633248Y-36862686D01*
X67740998Y-36970435D01*
X67525499Y-36485562D02*
X67148375Y-36862686D01*
X67471624Y-36539437D02*
X67471624Y-36485562D01*
X67444687Y-36404750D01*
X67363874Y-36323938D01*
X67283062Y-36297000D01*
X67202250Y-36323938D01*
X66905938Y-36620249D01*
X66394128Y-36108438D02*
X66959813Y-35542753D01*
X66421065Y-36081501D02*
X66448003Y-36162313D01*
X66555752Y-36270063D01*
X66636564Y-36297000D01*
X66690439Y-36297000D01*
X66771251Y-36270063D01*
X66932876Y-36108438D01*
X66959813Y-36027626D01*
X66959813Y-35973751D01*
X66932876Y-35892939D01*
X66825126Y-35785190D01*
X66744314Y-35758252D01*
D12*
X5461000Y-62217300D02*
X5521000Y-21466500D01*
X321000Y-21466500D02*
X5521000Y-21466500D01*
X321000Y-62226500D02*
X321000Y-21466500D01*
X321000Y-62226500D02*
X5461000Y-62217300D01*
X61089000Y-35016221D02*
X61089000Y-35341779D01*
X60069000Y-35016221D02*
X60069000Y-35341779D01*
X58608500Y-35341779D02*
X58608500Y-35016221D01*
X59628500Y-35341779D02*
X59628500Y-35016221D01*
X52034221Y-42352500D02*
X52359779Y-42352500D01*
X52034221Y-43372500D02*
X52359779Y-43372500D01*
X52034221Y-39812500D02*
X52359779Y-39812500D01*
X52034221Y-40832500D02*
X52359779Y-40832500D01*
X6613000Y-77343000D02*
X6613000Y-78673000D01*
X6613000Y-78673000D02*
X7943000Y-78673000D01*
X6613000Y-76073000D02*
X9213000Y-76073000D01*
X9213000Y-76073000D02*
X9213000Y-78673000D01*
X9213000Y-78673000D02*
X82933000Y-78673000D01*
X82933000Y-73473000D02*
X82933000Y-78673000D01*
X6613000Y-73473000D02*
X82933000Y-73473000D01*
X6613000Y-73473000D02*
X6613000Y-76073000D01*
X6613000Y-8890000D02*
X6613000Y-10220000D01*
X6613000Y-10220000D02*
X7943000Y-10220000D01*
X6613000Y-7620000D02*
X9213000Y-7620000D01*
X9213000Y-7620000D02*
X9213000Y-10220000D01*
X9213000Y-10220000D02*
X82933000Y-10220000D01*
X82933000Y-5020000D02*
X82933000Y-10220000D01*
X6613000Y-5020000D02*
X82933000Y-5020000D01*
X6613000Y-5020000D02*
X6613000Y-7620000D01*
X16046267Y-30736000D02*
X15703733Y-30736000D01*
X16046267Y-29716000D02*
X15703733Y-29716000D01*
D10*
X3730523Y-63118880D02*
X3730523Y-63833166D01*
X3778142Y-63976023D01*
X3873380Y-64071261D01*
X4016238Y-64118880D01*
X4111476Y-64118880D01*
X3301952Y-63214119D02*
X3254333Y-63166500D01*
X3159095Y-63118880D01*
X2921000Y-63118880D01*
X2825761Y-63166500D01*
X2778142Y-63214119D01*
X2730523Y-63309357D01*
X2730523Y-63404595D01*
X2778142Y-63547452D01*
X3349571Y-64118880D01*
X2730523Y-64118880D01*
X1825761Y-63118880D02*
X2301952Y-63118880D01*
X2349571Y-63595071D01*
X2301952Y-63547452D01*
X2206714Y-63499833D01*
X1968619Y-63499833D01*
X1873380Y-63547452D01*
X1825761Y-63595071D01*
X1778142Y-63690309D01*
X1778142Y-63928404D01*
X1825761Y-64023642D01*
X1873380Y-64071261D01*
X1968619Y-64118880D01*
X2206714Y-64118880D01*
X2301952Y-64071261D01*
X2349571Y-64023642D01*
X62555380Y-34599642D02*
X62079190Y-34266309D01*
X62555380Y-34028214D02*
X61555380Y-34028214D01*
X61555380Y-34409166D01*
X61603000Y-34504404D01*
X61650619Y-34552023D01*
X61745857Y-34599642D01*
X61888714Y-34599642D01*
X61983952Y-34552023D01*
X62031571Y-34504404D01*
X62079190Y-34409166D01*
X62079190Y-34028214D01*
X61650619Y-34980595D02*
X61603000Y-35028214D01*
X61555380Y-35123452D01*
X61555380Y-35361547D01*
X61603000Y-35456785D01*
X61650619Y-35504404D01*
X61745857Y-35552023D01*
X61841095Y-35552023D01*
X61983952Y-35504404D01*
X62555380Y-34932976D01*
X62555380Y-35552023D01*
X62555380Y-36504404D02*
X62555380Y-35932976D01*
X62555380Y-36218690D02*
X61555380Y-36218690D01*
X61698238Y-36123452D01*
X61793476Y-36028214D01*
X61841095Y-35932976D01*
X58046880Y-34536142D02*
X57570690Y-34202809D01*
X58046880Y-33964714D02*
X57046880Y-33964714D01*
X57046880Y-34345666D01*
X57094500Y-34440904D01*
X57142119Y-34488523D01*
X57237357Y-34536142D01*
X57380214Y-34536142D01*
X57475452Y-34488523D01*
X57523071Y-34440904D01*
X57570690Y-34345666D01*
X57570690Y-33964714D01*
X57142119Y-34917095D02*
X57094500Y-34964714D01*
X57046880Y-35059952D01*
X57046880Y-35298047D01*
X57094500Y-35393285D01*
X57142119Y-35440904D01*
X57237357Y-35488523D01*
X57332595Y-35488523D01*
X57475452Y-35440904D01*
X58046880Y-34869476D01*
X58046880Y-35488523D01*
X57046880Y-36107571D02*
X57046880Y-36202809D01*
X57094500Y-36298047D01*
X57142119Y-36345666D01*
X57237357Y-36393285D01*
X57427833Y-36440904D01*
X57665928Y-36440904D01*
X57856404Y-36393285D01*
X57951642Y-36345666D01*
X57999261Y-36298047D01*
X58046880Y-36202809D01*
X58046880Y-36107571D01*
X57999261Y-36012333D01*
X57951642Y-35964714D01*
X57856404Y-35917095D01*
X57665928Y-35869476D01*
X57427833Y-35869476D01*
X57237357Y-35917095D01*
X57142119Y-35964714D01*
X57094500Y-36012333D01*
X57046880Y-36107571D01*
X52839857Y-44744880D02*
X53173190Y-44268690D01*
X53411285Y-44744880D02*
X53411285Y-43744880D01*
X53030333Y-43744880D01*
X52935095Y-43792500D01*
X52887476Y-43840119D01*
X52839857Y-43935357D01*
X52839857Y-44078214D01*
X52887476Y-44173452D01*
X52935095Y-44221071D01*
X53030333Y-44268690D01*
X53411285Y-44268690D01*
X51887476Y-44744880D02*
X52458904Y-44744880D01*
X52173190Y-44744880D02*
X52173190Y-43744880D01*
X52268428Y-43887738D01*
X52363666Y-43982976D01*
X52458904Y-44030595D01*
X51411285Y-44744880D02*
X51220809Y-44744880D01*
X51125571Y-44697261D01*
X51077952Y-44649642D01*
X50982714Y-44506785D01*
X50935095Y-44316309D01*
X50935095Y-43935357D01*
X50982714Y-43840119D01*
X51030333Y-43792500D01*
X51125571Y-43744880D01*
X51316047Y-43744880D01*
X51411285Y-43792500D01*
X51458904Y-43840119D01*
X51506523Y-43935357D01*
X51506523Y-44173452D01*
X51458904Y-44268690D01*
X51411285Y-44316309D01*
X51316047Y-44363928D01*
X51125571Y-44363928D01*
X51030333Y-44316309D01*
X50982714Y-44268690D01*
X50935095Y-44173452D01*
X52839857Y-42204880D02*
X53173190Y-41728690D01*
X53411285Y-42204880D02*
X53411285Y-41204880D01*
X53030333Y-41204880D01*
X52935095Y-41252500D01*
X52887476Y-41300119D01*
X52839857Y-41395357D01*
X52839857Y-41538214D01*
X52887476Y-41633452D01*
X52935095Y-41681071D01*
X53030333Y-41728690D01*
X53411285Y-41728690D01*
X51887476Y-42204880D02*
X52458904Y-42204880D01*
X52173190Y-42204880D02*
X52173190Y-41204880D01*
X52268428Y-41347738D01*
X52363666Y-41442976D01*
X52458904Y-41490595D01*
X51316047Y-41633452D02*
X51411285Y-41585833D01*
X51458904Y-41538214D01*
X51506523Y-41442976D01*
X51506523Y-41395357D01*
X51458904Y-41300119D01*
X51411285Y-41252500D01*
X51316047Y-41204880D01*
X51125571Y-41204880D01*
X51030333Y-41252500D01*
X50982714Y-41300119D01*
X50935095Y-41395357D01*
X50935095Y-41442976D01*
X50982714Y-41538214D01*
X51030333Y-41585833D01*
X51125571Y-41633452D01*
X51316047Y-41633452D01*
X51411285Y-41681071D01*
X51458904Y-41728690D01*
X51506523Y-41823928D01*
X51506523Y-42014404D01*
X51458904Y-42109642D01*
X51411285Y-42157261D01*
X51316047Y-42204880D01*
X51125571Y-42204880D01*
X51030333Y-42157261D01*
X50982714Y-42109642D01*
X50935095Y-42014404D01*
X50935095Y-41823928D01*
X50982714Y-41728690D01*
X51030333Y-41681071D01*
X51125571Y-41633452D01*
X4625380Y-75263476D02*
X5339666Y-75263476D01*
X5482523Y-75215857D01*
X5577761Y-75120619D01*
X5625380Y-74977761D01*
X5625380Y-74882523D01*
X4625380Y-75644428D02*
X4625380Y-76263476D01*
X5006333Y-75930142D01*
X5006333Y-76073000D01*
X5053952Y-76168238D01*
X5101571Y-76215857D01*
X5196809Y-76263476D01*
X5434904Y-76263476D01*
X5530142Y-76215857D01*
X5577761Y-76168238D01*
X5625380Y-76073000D01*
X5625380Y-75787285D01*
X5577761Y-75692047D01*
X5530142Y-75644428D01*
X4625380Y-76882523D02*
X4625380Y-76977761D01*
X4673000Y-77073000D01*
X4720619Y-77120619D01*
X4815857Y-77168238D01*
X5006333Y-77215857D01*
X5244428Y-77215857D01*
X5434904Y-77168238D01*
X5530142Y-77120619D01*
X5577761Y-77073000D01*
X5625380Y-76977761D01*
X5625380Y-76882523D01*
X5577761Y-76787285D01*
X5530142Y-76739666D01*
X5434904Y-76692047D01*
X5244428Y-76644428D01*
X5006333Y-76644428D01*
X4815857Y-76692047D01*
X4720619Y-76739666D01*
X4673000Y-76787285D01*
X4625380Y-76882523D01*
X4625380Y-6810476D02*
X5339666Y-6810476D01*
X5482523Y-6762857D01*
X5577761Y-6667619D01*
X5625380Y-6524761D01*
X5625380Y-6429523D01*
X5625380Y-7810476D02*
X5625380Y-7239047D01*
X5625380Y-7524761D02*
X4625380Y-7524761D01*
X4768238Y-7429523D01*
X4863476Y-7334285D01*
X4911095Y-7239047D01*
X4625380Y-8143809D02*
X4625380Y-8810476D01*
X5625380Y-8381904D01*
X16517857Y-29153142D02*
X16565476Y-29200761D01*
X16708333Y-29248380D01*
X16803571Y-29248380D01*
X16946428Y-29200761D01*
X17041666Y-29105523D01*
X17089285Y-29010285D01*
X17136904Y-28819809D01*
X17136904Y-28676952D01*
X17089285Y-28486476D01*
X17041666Y-28391238D01*
X16946428Y-28296000D01*
X16803571Y-28248380D01*
X16708333Y-28248380D01*
X16565476Y-28296000D01*
X16517857Y-28343619D01*
X15565476Y-29248380D02*
X16136904Y-29248380D01*
X15851190Y-29248380D02*
X15851190Y-28248380D01*
X15946428Y-28391238D01*
X16041666Y-28486476D01*
X16136904Y-28534095D01*
X15232142Y-28248380D02*
X14565476Y-28248380D01*
X14994047Y-29248380D01*
%LPC*%
G36*
X142900000Y-138100000D02*
G01*
X136500000Y-138100000D01*
X136500000Y-132300000D01*
X142900000Y-132300000D01*
X142900000Y-138100000D01*
G37*
X142900000Y-138100000D02*
X136500000Y-138100000D01*
X136500000Y-132300000D01*
X142900000Y-132300000D01*
X142900000Y-138100000D01*
G36*
X142900000Y-129900000D02*
G01*
X136500000Y-129900000D01*
X136500000Y-124100000D01*
X142900000Y-124100000D01*
X142900000Y-129900000D01*
G37*
X142900000Y-129900000D02*
X136500000Y-129900000D01*
X136500000Y-124100000D01*
X142900000Y-124100000D01*
X142900000Y-129900000D01*
G36*
X142900000Y-121400000D02*
G01*
X136500000Y-121400000D01*
X136500000Y-115600000D01*
X142900000Y-115600000D01*
X142900000Y-121400000D01*
G37*
X142900000Y-121400000D02*
X136500000Y-121400000D01*
X136500000Y-115600000D01*
X142900000Y-115600000D01*
X142900000Y-121400000D01*
G36*
X146050000Y-113665000D02*
G01*
X136525000Y-113665000D01*
X136525000Y-102870000D01*
X146050000Y-102870000D01*
X146050000Y-113665000D01*
G37*
X146050000Y-113665000D02*
X136525000Y-113665000D01*
X136525000Y-102870000D01*
X146050000Y-102870000D01*
X146050000Y-113665000D01*
D13*
X56324500Y-80073500D03*
X58864500Y-80073500D03*
D14*
X61404500Y-80073500D03*
D13*
X53149500Y-80073500D03*
D14*
X50609500Y-80073500D03*
D15*
X26543000Y-27876500D03*
X24003000Y-27876500D03*
X21463000Y-27876500D03*
X26543000Y-33210500D03*
X24003000Y-33210500D03*
X21463000Y-33210500D03*
D13*
X1651000Y-22796500D03*
X4191000Y-22796500D03*
X1651000Y-25336500D03*
X4191000Y-25336500D03*
X1651000Y-27876500D03*
X4191000Y-27876500D03*
X1651000Y-30416500D03*
X4191000Y-30416500D03*
X1651000Y-32956500D03*
X4191000Y-32956500D03*
X1651000Y-35496500D03*
X4191000Y-35496500D03*
X1651000Y-38036500D03*
X4191000Y-38036500D03*
X1651000Y-40576500D03*
X4191000Y-40576500D03*
X1651000Y-43116500D03*
X4191000Y-43116500D03*
X1651000Y-45656500D03*
X4191000Y-45656500D03*
X1651000Y-48196500D03*
X4191000Y-48196500D03*
X1651000Y-50736500D03*
X4191000Y-50736500D03*
X1651000Y-53276500D03*
X4191000Y-53276500D03*
X1651000Y-55816500D03*
X4191000Y-55816500D03*
X1651000Y-58356500D03*
X4191000Y-58356500D03*
X1651000Y-60896500D03*
D16*
X4191000Y-60896500D03*
D13*
X42989500Y-43878500D03*
X42989500Y-46418500D03*
X42989500Y-48958500D03*
D16*
X42989500Y-51498500D03*
D13*
X45656500Y-43878500D03*
X45656500Y-46418500D03*
X45656500Y-48958500D03*
D16*
X45656500Y-51498500D03*
D13*
X22098000Y-63119000D03*
X19558000Y-63119000D03*
X22098000Y-60579000D03*
X19558000Y-60579000D03*
X22098000Y-58039000D03*
D14*
X19558000Y-58039000D03*
D13*
X65214500Y-28892500D03*
X65214500Y-31432500D03*
X65214500Y-33972500D03*
X65214500Y-36512500D03*
X65214500Y-39052500D03*
X65214500Y-41592500D03*
X65214500Y-44132500D03*
X65214500Y-46672500D03*
D16*
X65214500Y-49212500D03*
D17*
G36*
X60861632Y-35521075D02*
G01*
X60883304Y-35524290D01*
X60904556Y-35529613D01*
X60925184Y-35536994D01*
X60944989Y-35546361D01*
X60963781Y-35557624D01*
X60981378Y-35570675D01*
X60997612Y-35585388D01*
X61012325Y-35601622D01*
X61025376Y-35619219D01*
X61036639Y-35638011D01*
X61046006Y-35657816D01*
X61053387Y-35678444D01*
X61058710Y-35699696D01*
X61061925Y-35721368D01*
X61063000Y-35743250D01*
X61063000Y-36189750D01*
X61061925Y-36211632D01*
X61058710Y-36233304D01*
X61053387Y-36254556D01*
X61046006Y-36275184D01*
X61036639Y-36294989D01*
X61025376Y-36313781D01*
X61012325Y-36331378D01*
X60997612Y-36347612D01*
X60981378Y-36362325D01*
X60963781Y-36375376D01*
X60944989Y-36386639D01*
X60925184Y-36396006D01*
X60904556Y-36403387D01*
X60883304Y-36408710D01*
X60861632Y-36411925D01*
X60839750Y-36413000D01*
X60318250Y-36413000D01*
X60296368Y-36411925D01*
X60274696Y-36408710D01*
X60253444Y-36403387D01*
X60232816Y-36396006D01*
X60213011Y-36386639D01*
X60194219Y-36375376D01*
X60176622Y-36362325D01*
X60160388Y-36347612D01*
X60145675Y-36331378D01*
X60132624Y-36313781D01*
X60121361Y-36294989D01*
X60111994Y-36275184D01*
X60104613Y-36254556D01*
X60099290Y-36233304D01*
X60096075Y-36211632D01*
X60095000Y-36189750D01*
X60095000Y-35743250D01*
X60096075Y-35721368D01*
X60099290Y-35699696D01*
X60104613Y-35678444D01*
X60111994Y-35657816D01*
X60121361Y-35638011D01*
X60132624Y-35619219D01*
X60145675Y-35601622D01*
X60160388Y-35585388D01*
X60176622Y-35570675D01*
X60194219Y-35557624D01*
X60213011Y-35546361D01*
X60232816Y-35536994D01*
X60253444Y-35529613D01*
X60274696Y-35524290D01*
X60296368Y-35521075D01*
X60318250Y-35520000D01*
X60839750Y-35520000D01*
X60861632Y-35521075D01*
G37*
G36*
X60861632Y-33946075D02*
G01*
X60883304Y-33949290D01*
X60904556Y-33954613D01*
X60925184Y-33961994D01*
X60944989Y-33971361D01*
X60963781Y-33982624D01*
X60981378Y-33995675D01*
X60997612Y-34010388D01*
X61012325Y-34026622D01*
X61025376Y-34044219D01*
X61036639Y-34063011D01*
X61046006Y-34082816D01*
X61053387Y-34103444D01*
X61058710Y-34124696D01*
X61061925Y-34146368D01*
X61063000Y-34168250D01*
X61063000Y-34614750D01*
X61061925Y-34636632D01*
X61058710Y-34658304D01*
X61053387Y-34679556D01*
X61046006Y-34700184D01*
X61036639Y-34719989D01*
X61025376Y-34738781D01*
X61012325Y-34756378D01*
X60997612Y-34772612D01*
X60981378Y-34787325D01*
X60963781Y-34800376D01*
X60944989Y-34811639D01*
X60925184Y-34821006D01*
X60904556Y-34828387D01*
X60883304Y-34833710D01*
X60861632Y-34836925D01*
X60839750Y-34838000D01*
X60318250Y-34838000D01*
X60296368Y-34836925D01*
X60274696Y-34833710D01*
X60253444Y-34828387D01*
X60232816Y-34821006D01*
X60213011Y-34811639D01*
X60194219Y-34800376D01*
X60176622Y-34787325D01*
X60160388Y-34772612D01*
X60145675Y-34756378D01*
X60132624Y-34738781D01*
X60121361Y-34719989D01*
X60111994Y-34700184D01*
X60104613Y-34679556D01*
X60099290Y-34658304D01*
X60096075Y-34636632D01*
X60095000Y-34614750D01*
X60095000Y-34168250D01*
X60096075Y-34146368D01*
X60099290Y-34124696D01*
X60104613Y-34103444D01*
X60111994Y-34082816D01*
X60121361Y-34063011D01*
X60132624Y-34044219D01*
X60145675Y-34026622D01*
X60160388Y-34010388D01*
X60176622Y-33995675D01*
X60194219Y-33982624D01*
X60213011Y-33971361D01*
X60232816Y-33961994D01*
X60253444Y-33954613D01*
X60274696Y-33949290D01*
X60296368Y-33946075D01*
X60318250Y-33945000D01*
X60839750Y-33945000D01*
X60861632Y-33946075D01*
G37*
G36*
X59401132Y-33946075D02*
G01*
X59422804Y-33949290D01*
X59444056Y-33954613D01*
X59464684Y-33961994D01*
X59484489Y-33971361D01*
X59503281Y-33982624D01*
X59520878Y-33995675D01*
X59537112Y-34010388D01*
X59551825Y-34026622D01*
X59564876Y-34044219D01*
X59576139Y-34063011D01*
X59585506Y-34082816D01*
X59592887Y-34103444D01*
X59598210Y-34124696D01*
X59601425Y-34146368D01*
X59602500Y-34168250D01*
X59602500Y-34614750D01*
X59601425Y-34636632D01*
X59598210Y-34658304D01*
X59592887Y-34679556D01*
X59585506Y-34700184D01*
X59576139Y-34719989D01*
X59564876Y-34738781D01*
X59551825Y-34756378D01*
X59537112Y-34772612D01*
X59520878Y-34787325D01*
X59503281Y-34800376D01*
X59484489Y-34811639D01*
X59464684Y-34821006D01*
X59444056Y-34828387D01*
X59422804Y-34833710D01*
X59401132Y-34836925D01*
X59379250Y-34838000D01*
X58857750Y-34838000D01*
X58835868Y-34836925D01*
X58814196Y-34833710D01*
X58792944Y-34828387D01*
X58772316Y-34821006D01*
X58752511Y-34811639D01*
X58733719Y-34800376D01*
X58716122Y-34787325D01*
X58699888Y-34772612D01*
X58685175Y-34756378D01*
X58672124Y-34738781D01*
X58660861Y-34719989D01*
X58651494Y-34700184D01*
X58644113Y-34679556D01*
X58638790Y-34658304D01*
X58635575Y-34636632D01*
X58634500Y-34614750D01*
X58634500Y-34168250D01*
X58635575Y-34146368D01*
X58638790Y-34124696D01*
X58644113Y-34103444D01*
X58651494Y-34082816D01*
X58660861Y-34063011D01*
X58672124Y-34044219D01*
X58685175Y-34026622D01*
X58699888Y-34010388D01*
X58716122Y-33995675D01*
X58733719Y-33982624D01*
X58752511Y-33971361D01*
X58772316Y-33961994D01*
X58792944Y-33954613D01*
X58814196Y-33949290D01*
X58835868Y-33946075D01*
X58857750Y-33945000D01*
X59379250Y-33945000D01*
X59401132Y-33946075D01*
G37*
G36*
X59401132Y-35521075D02*
G01*
X59422804Y-35524290D01*
X59444056Y-35529613D01*
X59464684Y-35536994D01*
X59484489Y-35546361D01*
X59503281Y-35557624D01*
X59520878Y-35570675D01*
X59537112Y-35585388D01*
X59551825Y-35601622D01*
X59564876Y-35619219D01*
X59576139Y-35638011D01*
X59585506Y-35657816D01*
X59592887Y-35678444D01*
X59598210Y-35699696D01*
X59601425Y-35721368D01*
X59602500Y-35743250D01*
X59602500Y-36189750D01*
X59601425Y-36211632D01*
X59598210Y-36233304D01*
X59592887Y-36254556D01*
X59585506Y-36275184D01*
X59576139Y-36294989D01*
X59564876Y-36313781D01*
X59551825Y-36331378D01*
X59537112Y-36347612D01*
X59520878Y-36362325D01*
X59503281Y-36375376D01*
X59484489Y-36386639D01*
X59464684Y-36396006D01*
X59444056Y-36403387D01*
X59422804Y-36408710D01*
X59401132Y-36411925D01*
X59379250Y-36413000D01*
X58857750Y-36413000D01*
X58835868Y-36411925D01*
X58814196Y-36408710D01*
X58792944Y-36403387D01*
X58772316Y-36396006D01*
X58752511Y-36386639D01*
X58733719Y-36375376D01*
X58716122Y-36362325D01*
X58699888Y-36347612D01*
X58685175Y-36331378D01*
X58672124Y-36313781D01*
X58660861Y-36294989D01*
X58651494Y-36275184D01*
X58644113Y-36254556D01*
X58638790Y-36233304D01*
X58635575Y-36211632D01*
X58634500Y-36189750D01*
X58634500Y-35743250D01*
X58635575Y-35721368D01*
X58638790Y-35699696D01*
X58644113Y-35678444D01*
X58651494Y-35657816D01*
X58660861Y-35638011D01*
X58672124Y-35619219D01*
X58685175Y-35601622D01*
X58699888Y-35585388D01*
X58716122Y-35570675D01*
X58733719Y-35557624D01*
X58752511Y-35546361D01*
X58772316Y-35536994D01*
X58792944Y-35529613D01*
X58814196Y-35524290D01*
X58835868Y-35521075D01*
X58857750Y-35520000D01*
X59379250Y-35520000D01*
X59401132Y-35521075D01*
G37*
G36*
X53229632Y-42379575D02*
G01*
X53251304Y-42382790D01*
X53272556Y-42388113D01*
X53293184Y-42395494D01*
X53312989Y-42404861D01*
X53331781Y-42416124D01*
X53349378Y-42429175D01*
X53365612Y-42443888D01*
X53380325Y-42460122D01*
X53393376Y-42477719D01*
X53404639Y-42496511D01*
X53414006Y-42516316D01*
X53421387Y-42536944D01*
X53426710Y-42558196D01*
X53429925Y-42579868D01*
X53431000Y-42601750D01*
X53431000Y-43123250D01*
X53429925Y-43145132D01*
X53426710Y-43166804D01*
X53421387Y-43188056D01*
X53414006Y-43208684D01*
X53404639Y-43228489D01*
X53393376Y-43247281D01*
X53380325Y-43264878D01*
X53365612Y-43281112D01*
X53349378Y-43295825D01*
X53331781Y-43308876D01*
X53312989Y-43320139D01*
X53293184Y-43329506D01*
X53272556Y-43336887D01*
X53251304Y-43342210D01*
X53229632Y-43345425D01*
X53207750Y-43346500D01*
X52761250Y-43346500D01*
X52739368Y-43345425D01*
X52717696Y-43342210D01*
X52696444Y-43336887D01*
X52675816Y-43329506D01*
X52656011Y-43320139D01*
X52637219Y-43308876D01*
X52619622Y-43295825D01*
X52603388Y-43281112D01*
X52588675Y-43264878D01*
X52575624Y-43247281D01*
X52564361Y-43228489D01*
X52554994Y-43208684D01*
X52547613Y-43188056D01*
X52542290Y-43166804D01*
X52539075Y-43145132D01*
X52538000Y-43123250D01*
X52538000Y-42601750D01*
X52539075Y-42579868D01*
X52542290Y-42558196D01*
X52547613Y-42536944D01*
X52554994Y-42516316D01*
X52564361Y-42496511D01*
X52575624Y-42477719D01*
X52588675Y-42460122D01*
X52603388Y-42443888D01*
X52619622Y-42429175D01*
X52637219Y-42416124D01*
X52656011Y-42404861D01*
X52675816Y-42395494D01*
X52696444Y-42388113D01*
X52717696Y-42382790D01*
X52739368Y-42379575D01*
X52761250Y-42378500D01*
X53207750Y-42378500D01*
X53229632Y-42379575D01*
G37*
G36*
X51654632Y-42379575D02*
G01*
X51676304Y-42382790D01*
X51697556Y-42388113D01*
X51718184Y-42395494D01*
X51737989Y-42404861D01*
X51756781Y-42416124D01*
X51774378Y-42429175D01*
X51790612Y-42443888D01*
X51805325Y-42460122D01*
X51818376Y-42477719D01*
X51829639Y-42496511D01*
X51839006Y-42516316D01*
X51846387Y-42536944D01*
X51851710Y-42558196D01*
X51854925Y-42579868D01*
X51856000Y-42601750D01*
X51856000Y-43123250D01*
X51854925Y-43145132D01*
X51851710Y-43166804D01*
X51846387Y-43188056D01*
X51839006Y-43208684D01*
X51829639Y-43228489D01*
X51818376Y-43247281D01*
X51805325Y-43264878D01*
X51790612Y-43281112D01*
X51774378Y-43295825D01*
X51756781Y-43308876D01*
X51737989Y-43320139D01*
X51718184Y-43329506D01*
X51697556Y-43336887D01*
X51676304Y-43342210D01*
X51654632Y-43345425D01*
X51632750Y-43346500D01*
X51186250Y-43346500D01*
X51164368Y-43345425D01*
X51142696Y-43342210D01*
X51121444Y-43336887D01*
X51100816Y-43329506D01*
X51081011Y-43320139D01*
X51062219Y-43308876D01*
X51044622Y-43295825D01*
X51028388Y-43281112D01*
X51013675Y-43264878D01*
X51000624Y-43247281D01*
X50989361Y-43228489D01*
X50979994Y-43208684D01*
X50972613Y-43188056D01*
X50967290Y-43166804D01*
X50964075Y-43145132D01*
X50963000Y-43123250D01*
X50963000Y-42601750D01*
X50964075Y-42579868D01*
X50967290Y-42558196D01*
X50972613Y-42536944D01*
X50979994Y-42516316D01*
X50989361Y-42496511D01*
X51000624Y-42477719D01*
X51013675Y-42460122D01*
X51028388Y-42443888D01*
X51044622Y-42429175D01*
X51062219Y-42416124D01*
X51081011Y-42404861D01*
X51100816Y-42395494D01*
X51121444Y-42388113D01*
X51142696Y-42382790D01*
X51164368Y-42379575D01*
X51186250Y-42378500D01*
X51632750Y-42378500D01*
X51654632Y-42379575D01*
G37*
G36*
X53229632Y-39839575D02*
G01*
X53251304Y-39842790D01*
X53272556Y-39848113D01*
X53293184Y-39855494D01*
X53312989Y-39864861D01*
X53331781Y-39876124D01*
X53349378Y-39889175D01*
X53365612Y-39903888D01*
X53380325Y-39920122D01*
X53393376Y-39937719D01*
X53404639Y-39956511D01*
X53414006Y-39976316D01*
X53421387Y-39996944D01*
X53426710Y-40018196D01*
X53429925Y-40039868D01*
X53431000Y-40061750D01*
X53431000Y-40583250D01*
X53429925Y-40605132D01*
X53426710Y-40626804D01*
X53421387Y-40648056D01*
X53414006Y-40668684D01*
X53404639Y-40688489D01*
X53393376Y-40707281D01*
X53380325Y-40724878D01*
X53365612Y-40741112D01*
X53349378Y-40755825D01*
X53331781Y-40768876D01*
X53312989Y-40780139D01*
X53293184Y-40789506D01*
X53272556Y-40796887D01*
X53251304Y-40802210D01*
X53229632Y-40805425D01*
X53207750Y-40806500D01*
X52761250Y-40806500D01*
X52739368Y-40805425D01*
X52717696Y-40802210D01*
X52696444Y-40796887D01*
X52675816Y-40789506D01*
X52656011Y-40780139D01*
X52637219Y-40768876D01*
X52619622Y-40755825D01*
X52603388Y-40741112D01*
X52588675Y-40724878D01*
X52575624Y-40707281D01*
X52564361Y-40688489D01*
X52554994Y-40668684D01*
X52547613Y-40648056D01*
X52542290Y-40626804D01*
X52539075Y-40605132D01*
X52538000Y-40583250D01*
X52538000Y-40061750D01*
X52539075Y-40039868D01*
X52542290Y-40018196D01*
X52547613Y-39996944D01*
X52554994Y-39976316D01*
X52564361Y-39956511D01*
X52575624Y-39937719D01*
X52588675Y-39920122D01*
X52603388Y-39903888D01*
X52619622Y-39889175D01*
X52637219Y-39876124D01*
X52656011Y-39864861D01*
X52675816Y-39855494D01*
X52696444Y-39848113D01*
X52717696Y-39842790D01*
X52739368Y-39839575D01*
X52761250Y-39838500D01*
X53207750Y-39838500D01*
X53229632Y-39839575D01*
G37*
G36*
X51654632Y-39839575D02*
G01*
X51676304Y-39842790D01*
X51697556Y-39848113D01*
X51718184Y-39855494D01*
X51737989Y-39864861D01*
X51756781Y-39876124D01*
X51774378Y-39889175D01*
X51790612Y-39903888D01*
X51805325Y-39920122D01*
X51818376Y-39937719D01*
X51829639Y-39956511D01*
X51839006Y-39976316D01*
X51846387Y-39996944D01*
X51851710Y-40018196D01*
X51854925Y-40039868D01*
X51856000Y-40061750D01*
X51856000Y-40583250D01*
X51854925Y-40605132D01*
X51851710Y-40626804D01*
X51846387Y-40648056D01*
X51839006Y-40668684D01*
X51829639Y-40688489D01*
X51818376Y-40707281D01*
X51805325Y-40724878D01*
X51790612Y-40741112D01*
X51774378Y-40755825D01*
X51756781Y-40768876D01*
X51737989Y-40780139D01*
X51718184Y-40789506D01*
X51697556Y-40796887D01*
X51676304Y-40802210D01*
X51654632Y-40805425D01*
X51632750Y-40806500D01*
X51186250Y-40806500D01*
X51164368Y-40805425D01*
X51142696Y-40802210D01*
X51121444Y-40796887D01*
X51100816Y-40789506D01*
X51081011Y-40780139D01*
X51062219Y-40768876D01*
X51044622Y-40755825D01*
X51028388Y-40741112D01*
X51013675Y-40724878D01*
X51000624Y-40707281D01*
X50989361Y-40688489D01*
X50979994Y-40668684D01*
X50972613Y-40648056D01*
X50967290Y-40626804D01*
X50964075Y-40605132D01*
X50963000Y-40583250D01*
X50963000Y-40061750D01*
X50964075Y-40039868D01*
X50967290Y-40018196D01*
X50972613Y-39996944D01*
X50979994Y-39976316D01*
X50989361Y-39956511D01*
X51000624Y-39937719D01*
X51013675Y-39920122D01*
X51028388Y-39903888D01*
X51044622Y-39889175D01*
X51062219Y-39876124D01*
X51081011Y-39864861D01*
X51100816Y-39855494D01*
X51121444Y-39848113D01*
X51142696Y-39842790D01*
X51164368Y-39839575D01*
X51186250Y-39838500D01*
X51632750Y-39838500D01*
X51654632Y-39839575D01*
G37*
D18*
X39521000Y-25249000D03*
X39521000Y-26273000D03*
X39521000Y-27297000D03*
X39521000Y-28321000D03*
X38497000Y-25249000D03*
X38497000Y-26273000D03*
X38497000Y-27297000D03*
X38497000Y-28321000D03*
X37473000Y-25249000D03*
X37473000Y-26273000D03*
X37473000Y-27297000D03*
X37473000Y-28321000D03*
X36449000Y-25249000D03*
X36449000Y-26273000D03*
X36449000Y-27297000D03*
X36449000Y-28321000D03*
X46506000Y-25249000D03*
X46506000Y-26273000D03*
X46506000Y-27297000D03*
X46506000Y-28321000D03*
X45482000Y-25249000D03*
X45482000Y-26273000D03*
X45482000Y-27297000D03*
X45482000Y-28321000D03*
X44458000Y-25249000D03*
X44458000Y-26273000D03*
X44458000Y-27297000D03*
X44458000Y-28321000D03*
X43434000Y-25249000D03*
X43434000Y-26273000D03*
X43434000Y-27297000D03*
X43434000Y-28321000D03*
X32647001Y-25257000D03*
X32647001Y-26281000D03*
X32647001Y-27305000D03*
X32647001Y-28329000D03*
X31623001Y-25257000D03*
X31623001Y-26281000D03*
X31623001Y-27305000D03*
X31623001Y-28329000D03*
X30599001Y-25257000D03*
X30599001Y-26281000D03*
X30599001Y-27305000D03*
X30599001Y-28329000D03*
X29575001Y-25257000D03*
X29575001Y-26281000D03*
X29575001Y-27305000D03*
X29575001Y-28329000D03*
D13*
X78041500Y-35052000D03*
X78041500Y-32512000D03*
D16*
X78041500Y-29972000D03*
D13*
X75501500Y-35052000D03*
X75501500Y-32512000D03*
D16*
X75501500Y-29972000D03*
D13*
X72961500Y-35052000D03*
X72961500Y-32512000D03*
D16*
X72961500Y-29972000D03*
D13*
X60579000Y-61277500D03*
X60579000Y-58737500D03*
X60579000Y-56197500D03*
X60579000Y-53657500D03*
X60579000Y-51117500D03*
D16*
X60579000Y-48577500D03*
D13*
X57912000Y-61277500D03*
X57912000Y-58737500D03*
X57912000Y-56197500D03*
X57912000Y-53657500D03*
X57912000Y-51117500D03*
D16*
X57912000Y-48577500D03*
D13*
X60579000Y-37845999D03*
X60579000Y-40385999D03*
X60579000Y-42925999D03*
D16*
X60579000Y-45465999D03*
D13*
X54864000Y-45402500D03*
X54864000Y-42862500D03*
X54864000Y-40322500D03*
D16*
X54864000Y-37782500D03*
D13*
X57721500Y-37846000D03*
X57721500Y-40386000D03*
X57721500Y-42926000D03*
D16*
X57721500Y-45466000D03*
D19*
X27305000Y-61872500D03*
D17*
G36*
X28086117Y-58514717D02*
G01*
X28110642Y-58518355D01*
X28134693Y-58524379D01*
X28158037Y-58532732D01*
X28180450Y-58543332D01*
X28201716Y-58556079D01*
X28221631Y-58570848D01*
X28240001Y-58587499D01*
X28256652Y-58605869D01*
X28271421Y-58625784D01*
X28284168Y-58647050D01*
X28294768Y-58669463D01*
X28303121Y-58692807D01*
X28309145Y-58716858D01*
X28312783Y-58741383D01*
X28314000Y-58766147D01*
X28314000Y-59978853D01*
X28312783Y-60003617D01*
X28309145Y-60028142D01*
X28303121Y-60052193D01*
X28294768Y-60075537D01*
X28284168Y-60097950D01*
X28271421Y-60119216D01*
X28256652Y-60139131D01*
X28240001Y-60157501D01*
X28221631Y-60174152D01*
X28201716Y-60188921D01*
X28180450Y-60201668D01*
X28158037Y-60212268D01*
X28134693Y-60220621D01*
X28110642Y-60226645D01*
X28086117Y-60230283D01*
X28061353Y-60231500D01*
X26548647Y-60231500D01*
X26523883Y-60230283D01*
X26499358Y-60226645D01*
X26475307Y-60220621D01*
X26451963Y-60212268D01*
X26429550Y-60201668D01*
X26408284Y-60188921D01*
X26388369Y-60174152D01*
X26369999Y-60157501D01*
X26353348Y-60139131D01*
X26338579Y-60119216D01*
X26325832Y-60097950D01*
X26315232Y-60075537D01*
X26306879Y-60052193D01*
X26300855Y-60028142D01*
X26297217Y-60003617D01*
X26296000Y-59978853D01*
X26296000Y-58766147D01*
X26297217Y-58741383D01*
X26300855Y-58716858D01*
X26306879Y-58692807D01*
X26315232Y-58669463D01*
X26325832Y-58647050D01*
X26338579Y-58625784D01*
X26353348Y-58605869D01*
X26369999Y-58587499D01*
X26388369Y-58570848D01*
X26408284Y-58556079D01*
X26429550Y-58543332D01*
X26451963Y-58532732D01*
X26475307Y-58524379D01*
X26499358Y-58518355D01*
X26523883Y-58514717D01*
X26548647Y-58513500D01*
X28061353Y-58513500D01*
X28086117Y-58514717D01*
G37*
D20*
X106489500Y-68700000D03*
X106489500Y-71200000D03*
X106489500Y-73700000D03*
D17*
G36*
X107245617Y-75342217D02*
G01*
X107270142Y-75345855D01*
X107294193Y-75351879D01*
X107317537Y-75360232D01*
X107339950Y-75370832D01*
X107361216Y-75383579D01*
X107381131Y-75398348D01*
X107399501Y-75414999D01*
X107416152Y-75433369D01*
X107430921Y-75453284D01*
X107443668Y-75474550D01*
X107454268Y-75496963D01*
X107462621Y-75520307D01*
X107468645Y-75544358D01*
X107472283Y-75568883D01*
X107473500Y-75593647D01*
X107473500Y-76806353D01*
X107472283Y-76831117D01*
X107468645Y-76855642D01*
X107462621Y-76879693D01*
X107454268Y-76903037D01*
X107443668Y-76925450D01*
X107430921Y-76946716D01*
X107416152Y-76966631D01*
X107399501Y-76985001D01*
X107381131Y-77001652D01*
X107361216Y-77016421D01*
X107339950Y-77029168D01*
X107317537Y-77039768D01*
X107294193Y-77048121D01*
X107270142Y-77054145D01*
X107245617Y-77057783D01*
X107220853Y-77059000D01*
X105758147Y-77059000D01*
X105733383Y-77057783D01*
X105708858Y-77054145D01*
X105684807Y-77048121D01*
X105661463Y-77039768D01*
X105639050Y-77029168D01*
X105617784Y-77016421D01*
X105597869Y-77001652D01*
X105579499Y-76985001D01*
X105562848Y-76966631D01*
X105548079Y-76946716D01*
X105535332Y-76925450D01*
X105524732Y-76903037D01*
X105516379Y-76879693D01*
X105510355Y-76855642D01*
X105506717Y-76831117D01*
X105505500Y-76806353D01*
X105505500Y-75593647D01*
X105506717Y-75568883D01*
X105510355Y-75544358D01*
X105516379Y-75520307D01*
X105524732Y-75496963D01*
X105535332Y-75474550D01*
X105548079Y-75453284D01*
X105562848Y-75433369D01*
X105579499Y-75414999D01*
X105597869Y-75398348D01*
X105617784Y-75383579D01*
X105639050Y-75370832D01*
X105661463Y-75360232D01*
X105684807Y-75351879D01*
X105708858Y-75345855D01*
X105733383Y-75342217D01*
X105758147Y-75341000D01*
X107220853Y-75341000D01*
X107245617Y-75342217D01*
G37*
D20*
X106489500Y-53460000D03*
X106489500Y-55960000D03*
X106489500Y-58460000D03*
D17*
G36*
X107245617Y-60102217D02*
G01*
X107270142Y-60105855D01*
X107294193Y-60111879D01*
X107317537Y-60120232D01*
X107339950Y-60130832D01*
X107361216Y-60143579D01*
X107381131Y-60158348D01*
X107399501Y-60174999D01*
X107416152Y-60193369D01*
X107430921Y-60213284D01*
X107443668Y-60234550D01*
X107454268Y-60256963D01*
X107462621Y-60280307D01*
X107468645Y-60304358D01*
X107472283Y-60328883D01*
X107473500Y-60353647D01*
X107473500Y-61566353D01*
X107472283Y-61591117D01*
X107468645Y-61615642D01*
X107462621Y-61639693D01*
X107454268Y-61663037D01*
X107443668Y-61685450D01*
X107430921Y-61706716D01*
X107416152Y-61726631D01*
X107399501Y-61745001D01*
X107381131Y-61761652D01*
X107361216Y-61776421D01*
X107339950Y-61789168D01*
X107317537Y-61799768D01*
X107294193Y-61808121D01*
X107270142Y-61814145D01*
X107245617Y-61817783D01*
X107220853Y-61819000D01*
X105758147Y-61819000D01*
X105733383Y-61817783D01*
X105708858Y-61814145D01*
X105684807Y-61808121D01*
X105661463Y-61799768D01*
X105639050Y-61789168D01*
X105617784Y-61776421D01*
X105597869Y-61761652D01*
X105579499Y-61745001D01*
X105562848Y-61726631D01*
X105548079Y-61706716D01*
X105535332Y-61685450D01*
X105524732Y-61663037D01*
X105516379Y-61639693D01*
X105510355Y-61615642D01*
X105506717Y-61591117D01*
X105505500Y-61566353D01*
X105505500Y-60353647D01*
X105506717Y-60328883D01*
X105510355Y-60304358D01*
X105516379Y-60280307D01*
X105524732Y-60256963D01*
X105535332Y-60234550D01*
X105548079Y-60213284D01*
X105562848Y-60193369D01*
X105579499Y-60174999D01*
X105597869Y-60158348D01*
X105617784Y-60143579D01*
X105639050Y-60130832D01*
X105661463Y-60120232D01*
X105684807Y-60111879D01*
X105708858Y-60105855D01*
X105733383Y-60102217D01*
X105758147Y-60101000D01*
X107220853Y-60101000D01*
X107245617Y-60102217D01*
G37*
D20*
X106489500Y-38220000D03*
X106489500Y-40720000D03*
X106489500Y-43220000D03*
D17*
G36*
X107245617Y-44862217D02*
G01*
X107270142Y-44865855D01*
X107294193Y-44871879D01*
X107317537Y-44880232D01*
X107339950Y-44890832D01*
X107361216Y-44903579D01*
X107381131Y-44918348D01*
X107399501Y-44934999D01*
X107416152Y-44953369D01*
X107430921Y-44973284D01*
X107443668Y-44994550D01*
X107454268Y-45016963D01*
X107462621Y-45040307D01*
X107468645Y-45064358D01*
X107472283Y-45088883D01*
X107473500Y-45113647D01*
X107473500Y-46326353D01*
X107472283Y-46351117D01*
X107468645Y-46375642D01*
X107462621Y-46399693D01*
X107454268Y-46423037D01*
X107443668Y-46445450D01*
X107430921Y-46466716D01*
X107416152Y-46486631D01*
X107399501Y-46505001D01*
X107381131Y-46521652D01*
X107361216Y-46536421D01*
X107339950Y-46549168D01*
X107317537Y-46559768D01*
X107294193Y-46568121D01*
X107270142Y-46574145D01*
X107245617Y-46577783D01*
X107220853Y-46579000D01*
X105758147Y-46579000D01*
X105733383Y-46577783D01*
X105708858Y-46574145D01*
X105684807Y-46568121D01*
X105661463Y-46559768D01*
X105639050Y-46549168D01*
X105617784Y-46536421D01*
X105597869Y-46521652D01*
X105579499Y-46505001D01*
X105562848Y-46486631D01*
X105548079Y-46466716D01*
X105535332Y-46445450D01*
X105524732Y-46423037D01*
X105516379Y-46399693D01*
X105510355Y-46375642D01*
X105506717Y-46351117D01*
X105505500Y-46326353D01*
X105505500Y-45113647D01*
X105506717Y-45088883D01*
X105510355Y-45064358D01*
X105516379Y-45040307D01*
X105524732Y-45016963D01*
X105535332Y-44994550D01*
X105548079Y-44973284D01*
X105562848Y-44953369D01*
X105579499Y-44934999D01*
X105597869Y-44918348D01*
X105617784Y-44903579D01*
X105639050Y-44890832D01*
X105661463Y-44880232D01*
X105684807Y-44871879D01*
X105708858Y-44865855D01*
X105733383Y-44862217D01*
X105758147Y-44861000D01*
X107220853Y-44861000D01*
X107245617Y-44862217D01*
G37*
D20*
X106426000Y-22980000D03*
X106426000Y-25480000D03*
X106426000Y-27980000D03*
D17*
G36*
X107182117Y-29622217D02*
G01*
X107206642Y-29625855D01*
X107230693Y-29631879D01*
X107254037Y-29640232D01*
X107276450Y-29650832D01*
X107297716Y-29663579D01*
X107317631Y-29678348D01*
X107336001Y-29694999D01*
X107352652Y-29713369D01*
X107367421Y-29733284D01*
X107380168Y-29754550D01*
X107390768Y-29776963D01*
X107399121Y-29800307D01*
X107405145Y-29824358D01*
X107408783Y-29848883D01*
X107410000Y-29873647D01*
X107410000Y-31086353D01*
X107408783Y-31111117D01*
X107405145Y-31135642D01*
X107399121Y-31159693D01*
X107390768Y-31183037D01*
X107380168Y-31205450D01*
X107367421Y-31226716D01*
X107352652Y-31246631D01*
X107336001Y-31265001D01*
X107317631Y-31281652D01*
X107297716Y-31296421D01*
X107276450Y-31309168D01*
X107254037Y-31319768D01*
X107230693Y-31328121D01*
X107206642Y-31334145D01*
X107182117Y-31337783D01*
X107157353Y-31339000D01*
X105694647Y-31339000D01*
X105669883Y-31337783D01*
X105645358Y-31334145D01*
X105621307Y-31328121D01*
X105597963Y-31319768D01*
X105575550Y-31309168D01*
X105554284Y-31296421D01*
X105534369Y-31281652D01*
X105515999Y-31265001D01*
X105499348Y-31246631D01*
X105484579Y-31226716D01*
X105471832Y-31205450D01*
X105461232Y-31183037D01*
X105452879Y-31159693D01*
X105446855Y-31135642D01*
X105443217Y-31111117D01*
X105442000Y-31086353D01*
X105442000Y-29873647D01*
X105443217Y-29848883D01*
X105446855Y-29824358D01*
X105452879Y-29800307D01*
X105461232Y-29776963D01*
X105471832Y-29754550D01*
X105484579Y-29733284D01*
X105499348Y-29713369D01*
X105515999Y-29694999D01*
X105534369Y-29678348D01*
X105554284Y-29663579D01*
X105575550Y-29650832D01*
X105597963Y-29640232D01*
X105621307Y-29631879D01*
X105645358Y-29625855D01*
X105669883Y-29622217D01*
X105694647Y-29621000D01*
X107157353Y-29621000D01*
X107182117Y-29622217D01*
G37*
D20*
X106489500Y-7740000D03*
X106489500Y-10240000D03*
X106489500Y-12740000D03*
D17*
G36*
X107245617Y-14382217D02*
G01*
X107270142Y-14385855D01*
X107294193Y-14391879D01*
X107317537Y-14400232D01*
X107339950Y-14410832D01*
X107361216Y-14423579D01*
X107381131Y-14438348D01*
X107399501Y-14454999D01*
X107416152Y-14473369D01*
X107430921Y-14493284D01*
X107443668Y-14514550D01*
X107454268Y-14536963D01*
X107462621Y-14560307D01*
X107468645Y-14584358D01*
X107472283Y-14608883D01*
X107473500Y-14633647D01*
X107473500Y-15846353D01*
X107472283Y-15871117D01*
X107468645Y-15895642D01*
X107462621Y-15919693D01*
X107454268Y-15943037D01*
X107443668Y-15965450D01*
X107430921Y-15986716D01*
X107416152Y-16006631D01*
X107399501Y-16025001D01*
X107381131Y-16041652D01*
X107361216Y-16056421D01*
X107339950Y-16069168D01*
X107317537Y-16079768D01*
X107294193Y-16088121D01*
X107270142Y-16094145D01*
X107245617Y-16097783D01*
X107220853Y-16099000D01*
X105758147Y-16099000D01*
X105733383Y-16097783D01*
X105708858Y-16094145D01*
X105684807Y-16088121D01*
X105661463Y-16079768D01*
X105639050Y-16069168D01*
X105617784Y-16056421D01*
X105597869Y-16041652D01*
X105579499Y-16025001D01*
X105562848Y-16006631D01*
X105548079Y-15986716D01*
X105535332Y-15965450D01*
X105524732Y-15943037D01*
X105516379Y-15919693D01*
X105510355Y-15895642D01*
X105506717Y-15871117D01*
X105505500Y-15846353D01*
X105505500Y-14633647D01*
X105506717Y-14608883D01*
X105510355Y-14584358D01*
X105516379Y-14560307D01*
X105524732Y-14536963D01*
X105535332Y-14514550D01*
X105548079Y-14493284D01*
X105562848Y-14473369D01*
X105579499Y-14454999D01*
X105597869Y-14438348D01*
X105617784Y-14423579D01*
X105639050Y-14410832D01*
X105661463Y-14400232D01*
X105684807Y-14391879D01*
X105708858Y-14385855D01*
X105733383Y-14382217D01*
X105758147Y-14381000D01*
X107220853Y-14381000D01*
X107245617Y-14382217D01*
G37*
D13*
X83820000Y-78740000D03*
X86360000Y-78740000D03*
X88900000Y-78740000D03*
X91440000Y-78740000D03*
X93980000Y-78740000D03*
X96520000Y-78740000D03*
X99060000Y-78740000D03*
D16*
X101600000Y-78740000D03*
D13*
X83820000Y-63500000D03*
X86360000Y-63500000D03*
X88900000Y-63500000D03*
X91440000Y-63500000D03*
X93980000Y-63500000D03*
X96520000Y-63500000D03*
X99060000Y-63500000D03*
D16*
X101600000Y-63500000D03*
D13*
X83820000Y-48260000D03*
X86360000Y-48260000D03*
X88900000Y-48260000D03*
X91440000Y-48260000D03*
X93980000Y-48260000D03*
X96520000Y-48260000D03*
X99060000Y-48260000D03*
D16*
X101600000Y-48260000D03*
D13*
X83820000Y-33020000D03*
X86360000Y-33020000D03*
X88900000Y-33020000D03*
X91440000Y-33020000D03*
X93980000Y-33020000D03*
X96520000Y-33020000D03*
X99060000Y-33020000D03*
D16*
X101600000Y-33020000D03*
D13*
X83820000Y-17780000D03*
X86360000Y-17780000D03*
X88900000Y-17780000D03*
X91440000Y-17780000D03*
X93980000Y-17780000D03*
X96520000Y-17780000D03*
X99060000Y-17780000D03*
D16*
X101600000Y-17780000D03*
D13*
X83820000Y-73660000D03*
X83820000Y-71120000D03*
X86360000Y-73660000D03*
X86360000Y-71120000D03*
X88900000Y-73660000D03*
D16*
X88900000Y-71120000D03*
D13*
X83820000Y-66040000D03*
X86360000Y-66040000D03*
X88900000Y-66040000D03*
X91440000Y-66040000D03*
X93980000Y-66040000D03*
X96520000Y-66040000D03*
X99060000Y-66040000D03*
D16*
X101600000Y-66040000D03*
D13*
X81603000Y-74803000D03*
X81603000Y-77343000D03*
X79063000Y-74803000D03*
X79063000Y-77343000D03*
X76523000Y-74803000D03*
X76523000Y-77343000D03*
X73983000Y-74803000D03*
X73983000Y-77343000D03*
X71443000Y-74803000D03*
X71443000Y-77343000D03*
X68903000Y-74803000D03*
X68903000Y-77343000D03*
X66363000Y-74803000D03*
X66363000Y-77343000D03*
X63823000Y-74803000D03*
X63823000Y-77343000D03*
X61283000Y-74803000D03*
X61283000Y-77343000D03*
X58743000Y-74803000D03*
X58743000Y-77343000D03*
X56203000Y-74803000D03*
X56203000Y-77343000D03*
X53663000Y-74803000D03*
X53663000Y-77343000D03*
X51123000Y-74803000D03*
X51123000Y-77343000D03*
X48583000Y-74803000D03*
X48583000Y-77343000D03*
X46043000Y-74803000D03*
X46043000Y-77343000D03*
X43503000Y-74803000D03*
X43503000Y-77343000D03*
X40963000Y-74803000D03*
X40963000Y-77343000D03*
X38423000Y-74803000D03*
X38423000Y-77343000D03*
X35883000Y-74803000D03*
X35883000Y-77343000D03*
X33343000Y-74803000D03*
X33343000Y-77343000D03*
X30803000Y-74803000D03*
X30803000Y-77343000D03*
X28263000Y-74803000D03*
X28263000Y-77343000D03*
X25723000Y-74803000D03*
X25723000Y-77343000D03*
X23183000Y-74803000D03*
X23183000Y-77343000D03*
X20643000Y-74803000D03*
X20643000Y-77343000D03*
X18103000Y-74803000D03*
X18103000Y-77343000D03*
X15563000Y-74803000D03*
X15563000Y-77343000D03*
X13023000Y-74803000D03*
X13023000Y-77343000D03*
X10483000Y-74803000D03*
X10483000Y-77343000D03*
X7943000Y-74803000D03*
D16*
X7943000Y-77343000D03*
D13*
X83820000Y-58420000D03*
X83820000Y-55880000D03*
X86360000Y-58420000D03*
X86360000Y-55880000D03*
X88900000Y-58420000D03*
D16*
X88900000Y-55880000D03*
D13*
X83820000Y-50800000D03*
X86360000Y-50800000D03*
X88900000Y-50800000D03*
X91440000Y-50800000D03*
X93980000Y-50800000D03*
X96520000Y-50800000D03*
X99060000Y-50800000D03*
D16*
X101600000Y-50800000D03*
D21*
X13843000Y-64770000D03*
X11303000Y-64770000D03*
X13843000Y-62230000D03*
X11303000Y-62230000D03*
X13843000Y-59690000D03*
X11303000Y-59690000D03*
X13843000Y-57150000D03*
X11303000Y-57150000D03*
X13843000Y-54610000D03*
D22*
X11303000Y-54610000D03*
D13*
X83820000Y-43180000D03*
X83820000Y-40640000D03*
X86360000Y-43180000D03*
X86360000Y-40640000D03*
X88900000Y-43180000D03*
D16*
X88900000Y-40640000D03*
D13*
X83820000Y-35560000D03*
X86360000Y-35560000D03*
X88900000Y-35560000D03*
X91440000Y-35560000D03*
X93980000Y-35560000D03*
X96520000Y-35560000D03*
X99060000Y-35560000D03*
D16*
X101600000Y-35560000D03*
D21*
X13843000Y-41910000D03*
X11303000Y-41910000D03*
X13843000Y-39370000D03*
X11303000Y-39370000D03*
X13843000Y-36830000D03*
X11303000Y-36830000D03*
X13843000Y-34290000D03*
X11303000Y-34290000D03*
X13843000Y-31750000D03*
D22*
X11303000Y-31750000D03*
D13*
X83820000Y-27940000D03*
X83820000Y-25400000D03*
X86360000Y-27940000D03*
X86360000Y-25400000D03*
X88900000Y-27940000D03*
D16*
X88900000Y-25400000D03*
D20*
X77540524Y-63503094D03*
X77540524Y-66003094D03*
D17*
G36*
X78296641Y-67645311D02*
G01*
X78321166Y-67648949D01*
X78345217Y-67654973D01*
X78368561Y-67663326D01*
X78390974Y-67673926D01*
X78412240Y-67686673D01*
X78432155Y-67701442D01*
X78450525Y-67718093D01*
X78467176Y-67736463D01*
X78481945Y-67756378D01*
X78494692Y-67777644D01*
X78505292Y-67800057D01*
X78513645Y-67823401D01*
X78519669Y-67847452D01*
X78523307Y-67871977D01*
X78524524Y-67896741D01*
X78524524Y-69109447D01*
X78523307Y-69134211D01*
X78519669Y-69158736D01*
X78513645Y-69182787D01*
X78505292Y-69206131D01*
X78494692Y-69228544D01*
X78481945Y-69249810D01*
X78467176Y-69269725D01*
X78450525Y-69288095D01*
X78432155Y-69304746D01*
X78412240Y-69319515D01*
X78390974Y-69332262D01*
X78368561Y-69342862D01*
X78345217Y-69351215D01*
X78321166Y-69357239D01*
X78296641Y-69360877D01*
X78271877Y-69362094D01*
X76809171Y-69362094D01*
X76784407Y-69360877D01*
X76759882Y-69357239D01*
X76735831Y-69351215D01*
X76712487Y-69342862D01*
X76690074Y-69332262D01*
X76668808Y-69319515D01*
X76648893Y-69304746D01*
X76630523Y-69288095D01*
X76613872Y-69269725D01*
X76599103Y-69249810D01*
X76586356Y-69228544D01*
X76575756Y-69206131D01*
X76567403Y-69182787D01*
X76561379Y-69158736D01*
X76557741Y-69134211D01*
X76556524Y-69109447D01*
X76556524Y-67896741D01*
X76557741Y-67871977D01*
X76561379Y-67847452D01*
X76567403Y-67823401D01*
X76575756Y-67800057D01*
X76586356Y-67777644D01*
X76599103Y-67756378D01*
X76613872Y-67736463D01*
X76630523Y-67718093D01*
X76648893Y-67701442D01*
X76668808Y-67686673D01*
X76690074Y-67673926D01*
X76712487Y-67663326D01*
X76735831Y-67654973D01*
X76759882Y-67648949D01*
X76784407Y-67645311D01*
X76809171Y-67644094D01*
X78271877Y-67644094D01*
X78296641Y-67645311D01*
G37*
D20*
X77540524Y-53343094D03*
X77540524Y-55843094D03*
D17*
G36*
X78296641Y-57485311D02*
G01*
X78321166Y-57488949D01*
X78345217Y-57494973D01*
X78368561Y-57503326D01*
X78390974Y-57513926D01*
X78412240Y-57526673D01*
X78432155Y-57541442D01*
X78450525Y-57558093D01*
X78467176Y-57576463D01*
X78481945Y-57596378D01*
X78494692Y-57617644D01*
X78505292Y-57640057D01*
X78513645Y-57663401D01*
X78519669Y-57687452D01*
X78523307Y-57711977D01*
X78524524Y-57736741D01*
X78524524Y-58949447D01*
X78523307Y-58974211D01*
X78519669Y-58998736D01*
X78513645Y-59022787D01*
X78505292Y-59046131D01*
X78494692Y-59068544D01*
X78481945Y-59089810D01*
X78467176Y-59109725D01*
X78450525Y-59128095D01*
X78432155Y-59144746D01*
X78412240Y-59159515D01*
X78390974Y-59172262D01*
X78368561Y-59182862D01*
X78345217Y-59191215D01*
X78321166Y-59197239D01*
X78296641Y-59200877D01*
X78271877Y-59202094D01*
X76809171Y-59202094D01*
X76784407Y-59200877D01*
X76759882Y-59197239D01*
X76735831Y-59191215D01*
X76712487Y-59182862D01*
X76690074Y-59172262D01*
X76668808Y-59159515D01*
X76648893Y-59144746D01*
X76630523Y-59128095D01*
X76613872Y-59109725D01*
X76599103Y-59089810D01*
X76586356Y-59068544D01*
X76575756Y-59046131D01*
X76567403Y-59022787D01*
X76561379Y-58998736D01*
X76557741Y-58974211D01*
X76556524Y-58949447D01*
X76556524Y-57736741D01*
X76557741Y-57711977D01*
X76561379Y-57687452D01*
X76567403Y-57663401D01*
X76575756Y-57640057D01*
X76586356Y-57617644D01*
X76599103Y-57596378D01*
X76613872Y-57576463D01*
X76630523Y-57558093D01*
X76648893Y-57541442D01*
X76668808Y-57526673D01*
X76690074Y-57513926D01*
X76712487Y-57503326D01*
X76735831Y-57494973D01*
X76759882Y-57488949D01*
X76784407Y-57485311D01*
X76809171Y-57484094D01*
X78271877Y-57484094D01*
X78296641Y-57485311D01*
G37*
D20*
X77540524Y-43183094D03*
X77540524Y-45683094D03*
D17*
G36*
X78296641Y-47325311D02*
G01*
X78321166Y-47328949D01*
X78345217Y-47334973D01*
X78368561Y-47343326D01*
X78390974Y-47353926D01*
X78412240Y-47366673D01*
X78432155Y-47381442D01*
X78450525Y-47398093D01*
X78467176Y-47416463D01*
X78481945Y-47436378D01*
X78494692Y-47457644D01*
X78505292Y-47480057D01*
X78513645Y-47503401D01*
X78519669Y-47527452D01*
X78523307Y-47551977D01*
X78524524Y-47576741D01*
X78524524Y-48789447D01*
X78523307Y-48814211D01*
X78519669Y-48838736D01*
X78513645Y-48862787D01*
X78505292Y-48886131D01*
X78494692Y-48908544D01*
X78481945Y-48929810D01*
X78467176Y-48949725D01*
X78450525Y-48968095D01*
X78432155Y-48984746D01*
X78412240Y-48999515D01*
X78390974Y-49012262D01*
X78368561Y-49022862D01*
X78345217Y-49031215D01*
X78321166Y-49037239D01*
X78296641Y-49040877D01*
X78271877Y-49042094D01*
X76809171Y-49042094D01*
X76784407Y-49040877D01*
X76759882Y-49037239D01*
X76735831Y-49031215D01*
X76712487Y-49022862D01*
X76690074Y-49012262D01*
X76668808Y-48999515D01*
X76648893Y-48984746D01*
X76630523Y-48968095D01*
X76613872Y-48949725D01*
X76599103Y-48929810D01*
X76586356Y-48908544D01*
X76575756Y-48886131D01*
X76567403Y-48862787D01*
X76561379Y-48838736D01*
X76557741Y-48814211D01*
X76556524Y-48789447D01*
X76556524Y-47576741D01*
X76557741Y-47551977D01*
X76561379Y-47527452D01*
X76567403Y-47503401D01*
X76575756Y-47480057D01*
X76586356Y-47457644D01*
X76599103Y-47436378D01*
X76613872Y-47416463D01*
X76630523Y-47398093D01*
X76648893Y-47381442D01*
X76668808Y-47366673D01*
X76690074Y-47353926D01*
X76712487Y-47343326D01*
X76735831Y-47334973D01*
X76759882Y-47328949D01*
X76784407Y-47325311D01*
X76809171Y-47324094D01*
X78271877Y-47324094D01*
X78296641Y-47325311D01*
G37*
D13*
X83820000Y-20320000D03*
X86360000Y-20320000D03*
X88900000Y-20320000D03*
X91440000Y-20320000D03*
X93980000Y-20320000D03*
X96520000Y-20320000D03*
X99060000Y-20320000D03*
D16*
X101600000Y-20320000D03*
D13*
X81603000Y-6350000D03*
X81603000Y-8890000D03*
X79063000Y-6350000D03*
X79063000Y-8890000D03*
X76523000Y-6350000D03*
X76523000Y-8890000D03*
X73983000Y-6350000D03*
X73983000Y-8890000D03*
X71443000Y-6350000D03*
X71443000Y-8890000D03*
X68903000Y-6350000D03*
X68903000Y-8890000D03*
X66363000Y-6350000D03*
X66363000Y-8890000D03*
X63823000Y-6350000D03*
X63823000Y-8890000D03*
X61283000Y-6350000D03*
X61283000Y-8890000D03*
X58743000Y-6350000D03*
X58743000Y-8890000D03*
X56203000Y-6350000D03*
X56203000Y-8890000D03*
X53663000Y-6350000D03*
X53663000Y-8890000D03*
X51123000Y-6350000D03*
X51123000Y-8890000D03*
X48583000Y-6350000D03*
X48583000Y-8890000D03*
X46043000Y-6350000D03*
X46043000Y-8890000D03*
X43503000Y-6350000D03*
X43503000Y-8890000D03*
X40963000Y-6350000D03*
X40963000Y-8890000D03*
X38423000Y-6350000D03*
X38423000Y-8890000D03*
X35883000Y-6350000D03*
X35883000Y-8890000D03*
X33343000Y-6350000D03*
X33343000Y-8890000D03*
X30803000Y-6350000D03*
X30803000Y-8890000D03*
X28263000Y-6350000D03*
X28263000Y-8890000D03*
X25723000Y-6350000D03*
X25723000Y-8890000D03*
X23183000Y-6350000D03*
X23183000Y-8890000D03*
X20643000Y-6350000D03*
X20643000Y-8890000D03*
X18103000Y-6350000D03*
X18103000Y-8890000D03*
X15563000Y-6350000D03*
X15563000Y-8890000D03*
X13023000Y-6350000D03*
X13023000Y-8890000D03*
X10483000Y-6350000D03*
X10483000Y-8890000D03*
X7943000Y-6350000D03*
D16*
X7943000Y-8890000D03*
D20*
X69920523Y-63503094D03*
X69920523Y-66003094D03*
D17*
G36*
X70676640Y-67645311D02*
G01*
X70701165Y-67648949D01*
X70725216Y-67654973D01*
X70748560Y-67663326D01*
X70770973Y-67673926D01*
X70792239Y-67686673D01*
X70812154Y-67701442D01*
X70830524Y-67718093D01*
X70847175Y-67736463D01*
X70861944Y-67756378D01*
X70874691Y-67777644D01*
X70885291Y-67800057D01*
X70893644Y-67823401D01*
X70899668Y-67847452D01*
X70903306Y-67871977D01*
X70904523Y-67896741D01*
X70904523Y-69109447D01*
X70903306Y-69134211D01*
X70899668Y-69158736D01*
X70893644Y-69182787D01*
X70885291Y-69206131D01*
X70874691Y-69228544D01*
X70861944Y-69249810D01*
X70847175Y-69269725D01*
X70830524Y-69288095D01*
X70812154Y-69304746D01*
X70792239Y-69319515D01*
X70770973Y-69332262D01*
X70748560Y-69342862D01*
X70725216Y-69351215D01*
X70701165Y-69357239D01*
X70676640Y-69360877D01*
X70651876Y-69362094D01*
X69189170Y-69362094D01*
X69164406Y-69360877D01*
X69139881Y-69357239D01*
X69115830Y-69351215D01*
X69092486Y-69342862D01*
X69070073Y-69332262D01*
X69048807Y-69319515D01*
X69028892Y-69304746D01*
X69010522Y-69288095D01*
X68993871Y-69269725D01*
X68979102Y-69249810D01*
X68966355Y-69228544D01*
X68955755Y-69206131D01*
X68947402Y-69182787D01*
X68941378Y-69158736D01*
X68937740Y-69134211D01*
X68936523Y-69109447D01*
X68936523Y-67896741D01*
X68937740Y-67871977D01*
X68941378Y-67847452D01*
X68947402Y-67823401D01*
X68955755Y-67800057D01*
X68966355Y-67777644D01*
X68979102Y-67756378D01*
X68993871Y-67736463D01*
X69010522Y-67718093D01*
X69028892Y-67701442D01*
X69048807Y-67686673D01*
X69070073Y-67673926D01*
X69092486Y-67663326D01*
X69115830Y-67654973D01*
X69139881Y-67648949D01*
X69164406Y-67645311D01*
X69189170Y-67644094D01*
X70651876Y-67644094D01*
X70676640Y-67645311D01*
G37*
D20*
X69920523Y-53343094D03*
X69920523Y-55843094D03*
D17*
G36*
X70676640Y-57485311D02*
G01*
X70701165Y-57488949D01*
X70725216Y-57494973D01*
X70748560Y-57503326D01*
X70770973Y-57513926D01*
X70792239Y-57526673D01*
X70812154Y-57541442D01*
X70830524Y-57558093D01*
X70847175Y-57576463D01*
X70861944Y-57596378D01*
X70874691Y-57617644D01*
X70885291Y-57640057D01*
X70893644Y-57663401D01*
X70899668Y-57687452D01*
X70903306Y-57711977D01*
X70904523Y-57736741D01*
X70904523Y-58949447D01*
X70903306Y-58974211D01*
X70899668Y-58998736D01*
X70893644Y-59022787D01*
X70885291Y-59046131D01*
X70874691Y-59068544D01*
X70861944Y-59089810D01*
X70847175Y-59109725D01*
X70830524Y-59128095D01*
X70812154Y-59144746D01*
X70792239Y-59159515D01*
X70770973Y-59172262D01*
X70748560Y-59182862D01*
X70725216Y-59191215D01*
X70701165Y-59197239D01*
X70676640Y-59200877D01*
X70651876Y-59202094D01*
X69189170Y-59202094D01*
X69164406Y-59200877D01*
X69139881Y-59197239D01*
X69115830Y-59191215D01*
X69092486Y-59182862D01*
X69070073Y-59172262D01*
X69048807Y-59159515D01*
X69028892Y-59144746D01*
X69010522Y-59128095D01*
X68993871Y-59109725D01*
X68979102Y-59089810D01*
X68966355Y-59068544D01*
X68955755Y-59046131D01*
X68947402Y-59022787D01*
X68941378Y-58998736D01*
X68937740Y-58974211D01*
X68936523Y-58949447D01*
X68936523Y-57736741D01*
X68937740Y-57711977D01*
X68941378Y-57687452D01*
X68947402Y-57663401D01*
X68955755Y-57640057D01*
X68966355Y-57617644D01*
X68979102Y-57596378D01*
X68993871Y-57576463D01*
X69010522Y-57558093D01*
X69028892Y-57541442D01*
X69048807Y-57526673D01*
X69070073Y-57513926D01*
X69092486Y-57503326D01*
X69115830Y-57494973D01*
X69139881Y-57488949D01*
X69164406Y-57485311D01*
X69189170Y-57484094D01*
X70651876Y-57484094D01*
X70676640Y-57485311D01*
G37*
D20*
X69920523Y-43183094D03*
X69920523Y-45683094D03*
D17*
G36*
X70676640Y-47325311D02*
G01*
X70701165Y-47328949D01*
X70725216Y-47334973D01*
X70748560Y-47343326D01*
X70770973Y-47353926D01*
X70792239Y-47366673D01*
X70812154Y-47381442D01*
X70830524Y-47398093D01*
X70847175Y-47416463D01*
X70861944Y-47436378D01*
X70874691Y-47457644D01*
X70885291Y-47480057D01*
X70893644Y-47503401D01*
X70899668Y-47527452D01*
X70903306Y-47551977D01*
X70904523Y-47576741D01*
X70904523Y-48789447D01*
X70903306Y-48814211D01*
X70899668Y-48838736D01*
X70893644Y-48862787D01*
X70885291Y-48886131D01*
X70874691Y-48908544D01*
X70861944Y-48929810D01*
X70847175Y-48949725D01*
X70830524Y-48968095D01*
X70812154Y-48984746D01*
X70792239Y-48999515D01*
X70770973Y-49012262D01*
X70748560Y-49022862D01*
X70725216Y-49031215D01*
X70701165Y-49037239D01*
X70676640Y-49040877D01*
X70651876Y-49042094D01*
X69189170Y-49042094D01*
X69164406Y-49040877D01*
X69139881Y-49037239D01*
X69115830Y-49031215D01*
X69092486Y-49022862D01*
X69070073Y-49012262D01*
X69048807Y-48999515D01*
X69028892Y-48984746D01*
X69010522Y-48968095D01*
X68993871Y-48949725D01*
X68979102Y-48929810D01*
X68966355Y-48908544D01*
X68955755Y-48886131D01*
X68947402Y-48862787D01*
X68941378Y-48838736D01*
X68937740Y-48814211D01*
X68936523Y-48789447D01*
X68936523Y-47576741D01*
X68937740Y-47551977D01*
X68941378Y-47527452D01*
X68947402Y-47503401D01*
X68955755Y-47480057D01*
X68966355Y-47457644D01*
X68979102Y-47436378D01*
X68993871Y-47416463D01*
X69010522Y-47398093D01*
X69028892Y-47381442D01*
X69048807Y-47366673D01*
X69070073Y-47353926D01*
X69092486Y-47343326D01*
X69115830Y-47334973D01*
X69139881Y-47328949D01*
X69164406Y-47325311D01*
X69189170Y-47324094D01*
X70651876Y-47324094D01*
X70676640Y-47325311D01*
G37*
D13*
X84518500Y-12700000D03*
X84518500Y-10160000D03*
X87058500Y-12700000D03*
X87058500Y-10160000D03*
X89598500Y-12700000D03*
D16*
X89598500Y-10160000D03*
D13*
X83820000Y-5080000D03*
X86360000Y-5080000D03*
X88900000Y-5080000D03*
X91440000Y-5080000D03*
X93980000Y-5080000D03*
X96520000Y-5080000D03*
X99060000Y-5080000D03*
D16*
X101600000Y-5080000D03*
D19*
X33528000Y-61872500D03*
D17*
G36*
X34309117Y-58514717D02*
G01*
X34333642Y-58518355D01*
X34357693Y-58524379D01*
X34381037Y-58532732D01*
X34403450Y-58543332D01*
X34424716Y-58556079D01*
X34444631Y-58570848D01*
X34463001Y-58587499D01*
X34479652Y-58605869D01*
X34494421Y-58625784D01*
X34507168Y-58647050D01*
X34517768Y-58669463D01*
X34526121Y-58692807D01*
X34532145Y-58716858D01*
X34535783Y-58741383D01*
X34537000Y-58766147D01*
X34537000Y-59978853D01*
X34535783Y-60003617D01*
X34532145Y-60028142D01*
X34526121Y-60052193D01*
X34517768Y-60075537D01*
X34507168Y-60097950D01*
X34494421Y-60119216D01*
X34479652Y-60139131D01*
X34463001Y-60157501D01*
X34444631Y-60174152D01*
X34424716Y-60188921D01*
X34403450Y-60201668D01*
X34381037Y-60212268D01*
X34357693Y-60220621D01*
X34333642Y-60226645D01*
X34309117Y-60230283D01*
X34284353Y-60231500D01*
X32771647Y-60231500D01*
X32746883Y-60230283D01*
X32722358Y-60226645D01*
X32698307Y-60220621D01*
X32674963Y-60212268D01*
X32652550Y-60201668D01*
X32631284Y-60188921D01*
X32611369Y-60174152D01*
X32592999Y-60157501D01*
X32576348Y-60139131D01*
X32561579Y-60119216D01*
X32548832Y-60097950D01*
X32538232Y-60075537D01*
X32529879Y-60052193D01*
X32523855Y-60028142D01*
X32520217Y-60003617D01*
X32519000Y-59978853D01*
X32519000Y-58766147D01*
X32520217Y-58741383D01*
X32523855Y-58716858D01*
X32529879Y-58692807D01*
X32538232Y-58669463D01*
X32548832Y-58647050D01*
X32561579Y-58625784D01*
X32576348Y-58605869D01*
X32592999Y-58587499D01*
X32611369Y-58570848D01*
X32631284Y-58556079D01*
X32652550Y-58543332D01*
X32674963Y-58532732D01*
X32698307Y-58524379D01*
X32722358Y-58518355D01*
X32746883Y-58514717D01*
X32771647Y-58513500D01*
X34284353Y-58513500D01*
X34309117Y-58514717D01*
G37*
D19*
X39878000Y-61872500D03*
D17*
G36*
X40659117Y-58514717D02*
G01*
X40683642Y-58518355D01*
X40707693Y-58524379D01*
X40731037Y-58532732D01*
X40753450Y-58543332D01*
X40774716Y-58556079D01*
X40794631Y-58570848D01*
X40813001Y-58587499D01*
X40829652Y-58605869D01*
X40844421Y-58625784D01*
X40857168Y-58647050D01*
X40867768Y-58669463D01*
X40876121Y-58692807D01*
X40882145Y-58716858D01*
X40885783Y-58741383D01*
X40887000Y-58766147D01*
X40887000Y-59978853D01*
X40885783Y-60003617D01*
X40882145Y-60028142D01*
X40876121Y-60052193D01*
X40867768Y-60075537D01*
X40857168Y-60097950D01*
X40844421Y-60119216D01*
X40829652Y-60139131D01*
X40813001Y-60157501D01*
X40794631Y-60174152D01*
X40774716Y-60188921D01*
X40753450Y-60201668D01*
X40731037Y-60212268D01*
X40707693Y-60220621D01*
X40683642Y-60226645D01*
X40659117Y-60230283D01*
X40634353Y-60231500D01*
X39121647Y-60231500D01*
X39096883Y-60230283D01*
X39072358Y-60226645D01*
X39048307Y-60220621D01*
X39024963Y-60212268D01*
X39002550Y-60201668D01*
X38981284Y-60188921D01*
X38961369Y-60174152D01*
X38942999Y-60157501D01*
X38926348Y-60139131D01*
X38911579Y-60119216D01*
X38898832Y-60097950D01*
X38888232Y-60075537D01*
X38879879Y-60052193D01*
X38873855Y-60028142D01*
X38870217Y-60003617D01*
X38869000Y-59978853D01*
X38869000Y-58766147D01*
X38870217Y-58741383D01*
X38873855Y-58716858D01*
X38879879Y-58692807D01*
X38888232Y-58669463D01*
X38898832Y-58647050D01*
X38911579Y-58625784D01*
X38926348Y-58605869D01*
X38942999Y-58587499D01*
X38961369Y-58570848D01*
X38981284Y-58556079D01*
X39002550Y-58543332D01*
X39024963Y-58532732D01*
X39048307Y-58524379D01*
X39072358Y-58518355D01*
X39096883Y-58514717D01*
X39121647Y-58513500D01*
X40634353Y-58513500D01*
X40659117Y-58514717D01*
G37*
D19*
X46228000Y-61872500D03*
D17*
G36*
X47009117Y-58514717D02*
G01*
X47033642Y-58518355D01*
X47057693Y-58524379D01*
X47081037Y-58532732D01*
X47103450Y-58543332D01*
X47124716Y-58556079D01*
X47144631Y-58570848D01*
X47163001Y-58587499D01*
X47179652Y-58605869D01*
X47194421Y-58625784D01*
X47207168Y-58647050D01*
X47217768Y-58669463D01*
X47226121Y-58692807D01*
X47232145Y-58716858D01*
X47235783Y-58741383D01*
X47237000Y-58766147D01*
X47237000Y-59978853D01*
X47235783Y-60003617D01*
X47232145Y-60028142D01*
X47226121Y-60052193D01*
X47217768Y-60075537D01*
X47207168Y-60097950D01*
X47194421Y-60119216D01*
X47179652Y-60139131D01*
X47163001Y-60157501D01*
X47144631Y-60174152D01*
X47124716Y-60188921D01*
X47103450Y-60201668D01*
X47081037Y-60212268D01*
X47057693Y-60220621D01*
X47033642Y-60226645D01*
X47009117Y-60230283D01*
X46984353Y-60231500D01*
X45471647Y-60231500D01*
X45446883Y-60230283D01*
X45422358Y-60226645D01*
X45398307Y-60220621D01*
X45374963Y-60212268D01*
X45352550Y-60201668D01*
X45331284Y-60188921D01*
X45311369Y-60174152D01*
X45292999Y-60157501D01*
X45276348Y-60139131D01*
X45261579Y-60119216D01*
X45248832Y-60097950D01*
X45238232Y-60075537D01*
X45229879Y-60052193D01*
X45223855Y-60028142D01*
X45220217Y-60003617D01*
X45219000Y-59978853D01*
X45219000Y-58766147D01*
X45220217Y-58741383D01*
X45223855Y-58716858D01*
X45229879Y-58692807D01*
X45238232Y-58669463D01*
X45248832Y-58647050D01*
X45261579Y-58625784D01*
X45276348Y-58605869D01*
X45292999Y-58587499D01*
X45311369Y-58570848D01*
X45331284Y-58556079D01*
X45352550Y-58543332D01*
X45374963Y-58532732D01*
X45398307Y-58524379D01*
X45422358Y-58518355D01*
X45446883Y-58514717D01*
X45471647Y-58513500D01*
X46984353Y-58513500D01*
X47009117Y-58514717D01*
G37*
D23*
X34099500Y-19685000D03*
D24*
X37599500Y-19685000D03*
D23*
X41211500Y-19685000D03*
D24*
X44711500Y-19685000D03*
D25*
X24320500Y-19748500D03*
D26*
X29400500Y-19748500D03*
D25*
X3810000Y-17843500D03*
D26*
X3810000Y-12763500D03*
D27*
X55235974Y-16754973D03*
D17*
G36*
X53367091Y-15747190D02*
G01*
X53391616Y-15750828D01*
X53415667Y-15756852D01*
X53439011Y-15765205D01*
X53461424Y-15775805D01*
X53482690Y-15788552D01*
X53502605Y-15803321D01*
X53520975Y-15819972D01*
X53537626Y-15838342D01*
X53552395Y-15858257D01*
X53565142Y-15879523D01*
X53575742Y-15901936D01*
X53584095Y-15925280D01*
X53590119Y-15949331D01*
X53593757Y-15973856D01*
X53594974Y-15998620D01*
X53594974Y-17511326D01*
X53593757Y-17536090D01*
X53590119Y-17560615D01*
X53584095Y-17584666D01*
X53575742Y-17608010D01*
X53565142Y-17630423D01*
X53552395Y-17651689D01*
X53537626Y-17671604D01*
X53520975Y-17689974D01*
X53502605Y-17706625D01*
X53482690Y-17721394D01*
X53461424Y-17734141D01*
X53439011Y-17744741D01*
X53415667Y-17753094D01*
X53391616Y-17759118D01*
X53367091Y-17762756D01*
X53342327Y-17763973D01*
X52129621Y-17763973D01*
X52104857Y-17762756D01*
X52080332Y-17759118D01*
X52056281Y-17753094D01*
X52032937Y-17744741D01*
X52010524Y-17734141D01*
X51989258Y-17721394D01*
X51969343Y-17706625D01*
X51950973Y-17689974D01*
X51934322Y-17671604D01*
X51919553Y-17651689D01*
X51906806Y-17630423D01*
X51896206Y-17608010D01*
X51887853Y-17584666D01*
X51881829Y-17560615D01*
X51878191Y-17536090D01*
X51876974Y-17511326D01*
X51876974Y-15998620D01*
X51878191Y-15973856D01*
X51881829Y-15949331D01*
X51887853Y-15925280D01*
X51896206Y-15901936D01*
X51906806Y-15879523D01*
X51919553Y-15858257D01*
X51934322Y-15838342D01*
X51950973Y-15819972D01*
X51969343Y-15803321D01*
X51989258Y-15788552D01*
X52010524Y-15775805D01*
X52032937Y-15765205D01*
X52056281Y-15756852D01*
X52080332Y-15750828D01*
X52104857Y-15747190D01*
X52129621Y-15745973D01*
X53342327Y-15745973D01*
X53367091Y-15747190D01*
G37*
D27*
X62855975Y-16754974D03*
D17*
G36*
X60987092Y-15747191D02*
G01*
X61011617Y-15750829D01*
X61035668Y-15756853D01*
X61059012Y-15765206D01*
X61081425Y-15775806D01*
X61102691Y-15788553D01*
X61122606Y-15803322D01*
X61140976Y-15819973D01*
X61157627Y-15838343D01*
X61172396Y-15858258D01*
X61185143Y-15879524D01*
X61195743Y-15901937D01*
X61204096Y-15925281D01*
X61210120Y-15949332D01*
X61213758Y-15973857D01*
X61214975Y-15998621D01*
X61214975Y-17511327D01*
X61213758Y-17536091D01*
X61210120Y-17560616D01*
X61204096Y-17584667D01*
X61195743Y-17608011D01*
X61185143Y-17630424D01*
X61172396Y-17651690D01*
X61157627Y-17671605D01*
X61140976Y-17689975D01*
X61122606Y-17706626D01*
X61102691Y-17721395D01*
X61081425Y-17734142D01*
X61059012Y-17744742D01*
X61035668Y-17753095D01*
X61011617Y-17759119D01*
X60987092Y-17762757D01*
X60962328Y-17763974D01*
X59749622Y-17763974D01*
X59724858Y-17762757D01*
X59700333Y-17759119D01*
X59676282Y-17753095D01*
X59652938Y-17744742D01*
X59630525Y-17734142D01*
X59609259Y-17721395D01*
X59589344Y-17706626D01*
X59570974Y-17689975D01*
X59554323Y-17671605D01*
X59539554Y-17651690D01*
X59526807Y-17630424D01*
X59516207Y-17608011D01*
X59507854Y-17584667D01*
X59501830Y-17560616D01*
X59498192Y-17536091D01*
X59496975Y-17511327D01*
X59496975Y-15998621D01*
X59498192Y-15973857D01*
X59501830Y-15949332D01*
X59507854Y-15925281D01*
X59516207Y-15901937D01*
X59526807Y-15879524D01*
X59539554Y-15858258D01*
X59554323Y-15838343D01*
X59570974Y-15819973D01*
X59589344Y-15803322D01*
X59609259Y-15788553D01*
X59630525Y-15775806D01*
X59652938Y-15765206D01*
X59676282Y-15756853D01*
X59700333Y-15750829D01*
X59724858Y-15747191D01*
X59749622Y-15745974D01*
X60962328Y-15745974D01*
X60987092Y-15747191D01*
G37*
D27*
X70435973Y-16754975D03*
D17*
G36*
X68567090Y-15747192D02*
G01*
X68591615Y-15750830D01*
X68615666Y-15756854D01*
X68639010Y-15765207D01*
X68661423Y-15775807D01*
X68682689Y-15788554D01*
X68702604Y-15803323D01*
X68720974Y-15819974D01*
X68737625Y-15838344D01*
X68752394Y-15858259D01*
X68765141Y-15879525D01*
X68775741Y-15901938D01*
X68784094Y-15925282D01*
X68790118Y-15949333D01*
X68793756Y-15973858D01*
X68794973Y-15998622D01*
X68794973Y-17511328D01*
X68793756Y-17536092D01*
X68790118Y-17560617D01*
X68784094Y-17584668D01*
X68775741Y-17608012D01*
X68765141Y-17630425D01*
X68752394Y-17651691D01*
X68737625Y-17671606D01*
X68720974Y-17689976D01*
X68702604Y-17706627D01*
X68682689Y-17721396D01*
X68661423Y-17734143D01*
X68639010Y-17744743D01*
X68615666Y-17753096D01*
X68591615Y-17759120D01*
X68567090Y-17762758D01*
X68542326Y-17763975D01*
X67329620Y-17763975D01*
X67304856Y-17762758D01*
X67280331Y-17759120D01*
X67256280Y-17753096D01*
X67232936Y-17744743D01*
X67210523Y-17734143D01*
X67189257Y-17721396D01*
X67169342Y-17706627D01*
X67150972Y-17689976D01*
X67134321Y-17671606D01*
X67119552Y-17651691D01*
X67106805Y-17630425D01*
X67096205Y-17608012D01*
X67087852Y-17584668D01*
X67081828Y-17560617D01*
X67078190Y-17536092D01*
X67076973Y-17511328D01*
X67076973Y-15998622D01*
X67078190Y-15973858D01*
X67081828Y-15949333D01*
X67087852Y-15925282D01*
X67096205Y-15901938D01*
X67106805Y-15879525D01*
X67119552Y-15858259D01*
X67134321Y-15838344D01*
X67150972Y-15819974D01*
X67169342Y-15803323D01*
X67189257Y-15788554D01*
X67210523Y-15775807D01*
X67232936Y-15765207D01*
X67256280Y-15756854D01*
X67280331Y-15750830D01*
X67304856Y-15747192D01*
X67329620Y-15745975D01*
X68542326Y-15745975D01*
X68567090Y-15747192D01*
G37*
D27*
X78055975Y-16754974D03*
D17*
G36*
X76187092Y-15747191D02*
G01*
X76211617Y-15750829D01*
X76235668Y-15756853D01*
X76259012Y-15765206D01*
X76281425Y-15775806D01*
X76302691Y-15788553D01*
X76322606Y-15803322D01*
X76340976Y-15819973D01*
X76357627Y-15838343D01*
X76372396Y-15858258D01*
X76385143Y-15879524D01*
X76395743Y-15901937D01*
X76404096Y-15925281D01*
X76410120Y-15949332D01*
X76413758Y-15973857D01*
X76414975Y-15998621D01*
X76414975Y-17511327D01*
X76413758Y-17536091D01*
X76410120Y-17560616D01*
X76404096Y-17584667D01*
X76395743Y-17608011D01*
X76385143Y-17630424D01*
X76372396Y-17651690D01*
X76357627Y-17671605D01*
X76340976Y-17689975D01*
X76322606Y-17706626D01*
X76302691Y-17721395D01*
X76281425Y-17734142D01*
X76259012Y-17744742D01*
X76235668Y-17753095D01*
X76211617Y-17759119D01*
X76187092Y-17762757D01*
X76162328Y-17763974D01*
X74949622Y-17763974D01*
X74924858Y-17762757D01*
X74900333Y-17759119D01*
X74876282Y-17753095D01*
X74852938Y-17744742D01*
X74830525Y-17734142D01*
X74809259Y-17721395D01*
X74789344Y-17706626D01*
X74770974Y-17689975D01*
X74754323Y-17671605D01*
X74739554Y-17651690D01*
X74726807Y-17630424D01*
X74716207Y-17608011D01*
X74707854Y-17584667D01*
X74701830Y-17560616D01*
X74698192Y-17536091D01*
X74696975Y-17511327D01*
X74696975Y-15998621D01*
X74698192Y-15973857D01*
X74701830Y-15949332D01*
X74707854Y-15925281D01*
X74716207Y-15901937D01*
X74726807Y-15879524D01*
X74739554Y-15858258D01*
X74754323Y-15838343D01*
X74770974Y-15819973D01*
X74789344Y-15803322D01*
X74809259Y-15788553D01*
X74830525Y-15775806D01*
X74852938Y-15765206D01*
X74876282Y-15756853D01*
X74900333Y-15750829D01*
X74924858Y-15747191D01*
X74949622Y-15745974D01*
X76162328Y-15745974D01*
X76187092Y-15747191D01*
G37*
G36*
X15315720Y-29743165D02*
G01*
X15339212Y-29746650D01*
X15362249Y-29752420D01*
X15384609Y-29760421D01*
X15406078Y-29770575D01*
X15426448Y-29782784D01*
X15445523Y-29796931D01*
X15463120Y-29812880D01*
X15479069Y-29830477D01*
X15493216Y-29849552D01*
X15505425Y-29869922D01*
X15515579Y-29891391D01*
X15523580Y-29913751D01*
X15529350Y-29936788D01*
X15532835Y-29960280D01*
X15534000Y-29984000D01*
X15534000Y-30468000D01*
X15532835Y-30491720D01*
X15529350Y-30515212D01*
X15523580Y-30538249D01*
X15515579Y-30560609D01*
X15505425Y-30582078D01*
X15493216Y-30602448D01*
X15479069Y-30621523D01*
X15463120Y-30639120D01*
X15445523Y-30655069D01*
X15426448Y-30669216D01*
X15406078Y-30681425D01*
X15384609Y-30691579D01*
X15362249Y-30699580D01*
X15339212Y-30705350D01*
X15315720Y-30708835D01*
X15292000Y-30710000D01*
X14708000Y-30710000D01*
X14684280Y-30708835D01*
X14660788Y-30705350D01*
X14637751Y-30699580D01*
X14615391Y-30691579D01*
X14593922Y-30681425D01*
X14573552Y-30669216D01*
X14554477Y-30655069D01*
X14536880Y-30639120D01*
X14520931Y-30621523D01*
X14506784Y-30602448D01*
X14494575Y-30582078D01*
X14484421Y-30560609D01*
X14476420Y-30538249D01*
X14470650Y-30515212D01*
X14467165Y-30491720D01*
X14466000Y-30468000D01*
X14466000Y-29984000D01*
X14467165Y-29960280D01*
X14470650Y-29936788D01*
X14476420Y-29913751D01*
X14484421Y-29891391D01*
X14494575Y-29869922D01*
X14506784Y-29849552D01*
X14520931Y-29830477D01*
X14536880Y-29812880D01*
X14554477Y-29796931D01*
X14573552Y-29782784D01*
X14593922Y-29770575D01*
X14615391Y-29760421D01*
X14637751Y-29752420D01*
X14660788Y-29746650D01*
X14684280Y-29743165D01*
X14708000Y-29742000D01*
X15292000Y-29742000D01*
X15315720Y-29743165D01*
G37*
G36*
X17065720Y-29743165D02*
G01*
X17089212Y-29746650D01*
X17112249Y-29752420D01*
X17134609Y-29760421D01*
X17156078Y-29770575D01*
X17176448Y-29782784D01*
X17195523Y-29796931D01*
X17213120Y-29812880D01*
X17229069Y-29830477D01*
X17243216Y-29849552D01*
X17255425Y-29869922D01*
X17265579Y-29891391D01*
X17273580Y-29913751D01*
X17279350Y-29936788D01*
X17282835Y-29960280D01*
X17284000Y-29984000D01*
X17284000Y-30468000D01*
X17282835Y-30491720D01*
X17279350Y-30515212D01*
X17273580Y-30538249D01*
X17265579Y-30560609D01*
X17255425Y-30582078D01*
X17243216Y-30602448D01*
X17229069Y-30621523D01*
X17213120Y-30639120D01*
X17195523Y-30655069D01*
X17176448Y-30669216D01*
X17156078Y-30681425D01*
X17134609Y-30691579D01*
X17112249Y-30699580D01*
X17089212Y-30705350D01*
X17065720Y-30708835D01*
X17042000Y-30710000D01*
X16458000Y-30710000D01*
X16434280Y-30708835D01*
X16410788Y-30705350D01*
X16387751Y-30699580D01*
X16365391Y-30691579D01*
X16343922Y-30681425D01*
X16323552Y-30669216D01*
X16304477Y-30655069D01*
X16286880Y-30639120D01*
X16270931Y-30621523D01*
X16256784Y-30602448D01*
X16244575Y-30582078D01*
X16234421Y-30560609D01*
X16226420Y-30538249D01*
X16220650Y-30515212D01*
X16217165Y-30491720D01*
X16216000Y-30468000D01*
X16216000Y-29984000D01*
X16217165Y-29960280D01*
X16220650Y-29936788D01*
X16226420Y-29913751D01*
X16234421Y-29891391D01*
X16244575Y-29869922D01*
X16256784Y-29849552D01*
X16270931Y-29830477D01*
X16286880Y-29812880D01*
X16304477Y-29796931D01*
X16323552Y-29782784D01*
X16343922Y-29770575D01*
X16365391Y-29760421D01*
X16387751Y-29752420D01*
X16410788Y-29746650D01*
X16434280Y-29743165D01*
X16458000Y-29742000D01*
X17042000Y-29742000D01*
X17065720Y-29743165D01*
G37*
M02*
